%TF.GenerationSoftware,KiCad,Pcbnew,(6.0.4)*%
%TF.CreationDate,2023-06-21T10:24:11+09:00*%
%TF.ProjectId,MultiMeter,4d756c74-694d-4657-9465-722e6b696361,rev?*%
%TF.SameCoordinates,Original*%
%TF.FileFunction,Soldermask,Bot*%
%TF.FilePolarity,Negative*%
%FSLAX46Y46*%
G04 Gerber Fmt 4.6, Leading zero omitted, Abs format (unit mm)*
G04 Created by KiCad (PCBNEW (6.0.4)) date 2023-06-21 10:24:11*
%MOMM*%
%LPD*%
G01*
G04 APERTURE LIST*
G04 Aperture macros list*
%AMRoundRect*
0 Rectangle with rounded corners*
0 $1 Rounding radius*
0 $2 $3 $4 $5 $6 $7 $8 $9 X,Y pos of 4 corners*
0 Add a 4 corners polygon primitive as box body*
4,1,4,$2,$3,$4,$5,$6,$7,$8,$9,$2,$3,0*
0 Add four circle primitives for the rounded corners*
1,1,$1+$1,$2,$3*
1,1,$1+$1,$4,$5*
1,1,$1+$1,$6,$7*
1,1,$1+$1,$8,$9*
0 Add four rect primitives between the rounded corners*
20,1,$1+$1,$2,$3,$4,$5,0*
20,1,$1+$1,$4,$5,$6,$7,0*
20,1,$1+$1,$6,$7,$8,$9,0*
20,1,$1+$1,$8,$9,$2,$3,0*%
G04 Aperture macros list end*
%ADD10R,1.700000X1.700000*%
%ADD11O,1.700000X1.700000*%
%ADD12R,1.600000X1.600000*%
%ADD13O,1.600000X1.600000*%
%ADD14C,1.400000*%
%ADD15O,1.400000X1.400000*%
%ADD16C,1.600000*%
%ADD17R,1.800000X1.800000*%
%ADD18C,1.800000*%
%ADD19RoundRect,0.250000X0.675000X-0.600000X0.675000X0.600000X-0.675000X0.600000X-0.675000X-0.600000X0*%
%ADD20O,1.850000X1.700000*%
%ADD21RoundRect,0.250000X-0.845000X0.620000X-0.845000X-0.620000X0.845000X-0.620000X0.845000X0.620000X0*%
%ADD22O,2.190000X1.740000*%
%ADD23R,1.050000X1.500000*%
%ADD24O,1.050000X1.500000*%
G04 APERTURE END LIST*
D10*
%TO.C,JP1*%
X38735000Y-67305000D03*
D11*
X38735000Y-69845000D03*
%TD*%
D12*
%TO.C,A1*%
X42545000Y-26035000D03*
D13*
X42545000Y-28575000D03*
X42545000Y-31115000D03*
X42545000Y-33655000D03*
X42545000Y-36195000D03*
X42545000Y-38735000D03*
X42545000Y-41275000D03*
X42545000Y-43815000D03*
X42545000Y-46355000D03*
X42545000Y-48895000D03*
X42545000Y-51435000D03*
X42545000Y-53975000D03*
X42545000Y-56515000D03*
X42545000Y-59055000D03*
X42545000Y-61595000D03*
X57785000Y-61595000D03*
X57785000Y-59055000D03*
X57785000Y-56515000D03*
X57785000Y-53975000D03*
X57785000Y-51435000D03*
X57785000Y-48895000D03*
X57785000Y-46355000D03*
X57785000Y-43815000D03*
X57785000Y-41275000D03*
X57785000Y-38735000D03*
X57785000Y-36195000D03*
X57785000Y-33655000D03*
X57785000Y-31115000D03*
X57785000Y-28575000D03*
X57785000Y-26035000D03*
%TD*%
D14*
%TO.C,R6*%
X51435000Y-39370000D03*
D15*
X51435000Y-46990000D03*
%TD*%
D16*
%TO.C,RV1*%
X42545000Y-67310000D03*
X47545000Y-69410000D03*
%TD*%
D14*
%TO.C,R9*%
X48895000Y-46990000D03*
D15*
X48895000Y-39370000D03*
%TD*%
D17*
%TO.C,D5*%
X59050000Y-69215000D03*
D18*
X61590000Y-69215000D03*
%TD*%
D19*
%TO.C,J2*%
X65405000Y-59055000D03*
D20*
X65405000Y-56555000D03*
%TD*%
D14*
%TO.C,R4*%
X46355000Y-27940000D03*
D15*
X53975000Y-27940000D03*
%TD*%
D21*
%TO.C,J5*%
X66655000Y-26035000D03*
D22*
X66655000Y-28575000D03*
%TD*%
D10*
%TO.C,J6*%
X39370000Y-26035000D03*
D11*
X39370000Y-28575000D03*
X39370000Y-31115000D03*
X39370000Y-33655000D03*
X39370000Y-36195000D03*
X39370000Y-38735000D03*
X39370000Y-41275000D03*
X39370000Y-43815000D03*
X39370000Y-46355000D03*
X39370000Y-48895000D03*
X39370000Y-51435000D03*
X39370000Y-53975000D03*
X39370000Y-56515000D03*
X39370000Y-59055000D03*
X39370000Y-61595000D03*
%TD*%
D19*
%TO.C,J3*%
X65405000Y-50165000D03*
D20*
X65405000Y-47665000D03*
X65405000Y-45165000D03*
%TD*%
D14*
%TO.C,R7*%
X46355000Y-39370000D03*
D15*
X46355000Y-46990000D03*
%TD*%
D19*
%TO.C,J1*%
X65405000Y-67945000D03*
D20*
X65405000Y-65445000D03*
%TD*%
D14*
%TO.C,R5*%
X55245000Y-71120000D03*
D15*
X55245000Y-63500000D03*
%TD*%
D19*
%TO.C,J4*%
X65168000Y-38695000D03*
D20*
X65168000Y-36195000D03*
X65168000Y-33695000D03*
%TD*%
D14*
%TO.C,R8*%
X53975000Y-46990000D03*
D15*
X53975000Y-39370000D03*
%TD*%
D14*
%TO.C,R2*%
X53975000Y-59055000D03*
D15*
X46355000Y-59055000D03*
%TD*%
D23*
%TO.C,Q2*%
X46355000Y-34650000D03*
D24*
X47625000Y-34650000D03*
X48895000Y-34650000D03*
%TD*%
D14*
%TO.C,R3*%
X46355000Y-25400000D03*
D15*
X53975000Y-25400000D03*
%TD*%
D23*
%TO.C,Q1*%
X52070000Y-34650000D03*
D24*
X53340000Y-34650000D03*
X54610000Y-34650000D03*
%TD*%
D10*
%TO.C,J7*%
X60935000Y-61595000D03*
D11*
X60935000Y-59055000D03*
X60935000Y-56515000D03*
X60935000Y-53975000D03*
X60935000Y-51435000D03*
X60935000Y-48895000D03*
X60935000Y-46355000D03*
X60935000Y-43815000D03*
X60935000Y-41275000D03*
X60935000Y-38735000D03*
X60935000Y-36195000D03*
X60935000Y-33655000D03*
X60935000Y-31115000D03*
X60935000Y-28575000D03*
X60935000Y-26035000D03*
%TD*%
D14*
%TO.C,R1*%
X53975000Y-61595000D03*
D15*
X46355000Y-61595000D03*
%TD*%
M02*
