%TF.GenerationSoftware,KiCad,Pcbnew,(6.0.4)*%
%TF.CreationDate,2022-09-13T00:35:04+09:00*%
%TF.ProjectId,MultiMeter,4d756c74-694d-4657-9465-722e6b696361,rev?*%
%TF.SameCoordinates,Original*%
%TF.FileFunction,Copper,L1,Top*%
%TF.FilePolarity,Positive*%
%FSLAX46Y46*%
G04 Gerber Fmt 4.6, Leading zero omitted, Abs format (unit mm)*
G04 Created by KiCad (PCBNEW (6.0.4)) date 2022-09-13 00:35:04*
%MOMM*%
%LPD*%
G01*
G04 APERTURE LIST*
G04 Aperture macros list*
%AMRoundRect*
0 Rectangle with rounded corners*
0 $1 Rounding radius*
0 $2 $3 $4 $5 $6 $7 $8 $9 X,Y pos of 4 corners*
0 Add a 4 corners polygon primitive as box body*
4,1,4,$2,$3,$4,$5,$6,$7,$8,$9,$2,$3,0*
0 Add four circle primitives for the rounded corners*
1,1,$1+$1,$2,$3*
1,1,$1+$1,$4,$5*
1,1,$1+$1,$6,$7*
1,1,$1+$1,$8,$9*
0 Add four rect primitives between the rounded corners*
20,1,$1+$1,$2,$3,$4,$5,0*
20,1,$1+$1,$4,$5,$6,$7,0*
20,1,$1+$1,$6,$7,$8,$9,0*
20,1,$1+$1,$8,$9,$2,$3,0*%
G04 Aperture macros list end*
%TA.AperFunction,ComponentPad*%
%ADD10R,1.600000X1.600000*%
%TD*%
%TA.AperFunction,ComponentPad*%
%ADD11O,1.600000X1.600000*%
%TD*%
%TA.AperFunction,ComponentPad*%
%ADD12C,1.400000*%
%TD*%
%TA.AperFunction,ComponentPad*%
%ADD13RoundRect,0.250000X-0.675000X0.600000X-0.675000X-0.600000X0.675000X-0.600000X0.675000X0.600000X0*%
%TD*%
%TA.AperFunction,ComponentPad*%
%ADD14O,1.850000X1.700000*%
%TD*%
%TA.AperFunction,ComponentPad*%
%ADD15O,1.400000X1.400000*%
%TD*%
%TA.AperFunction,ComponentPad*%
%ADD16RoundRect,0.250000X-0.845000X0.620000X-0.845000X-0.620000X0.845000X-0.620000X0.845000X0.620000X0*%
%TD*%
%TA.AperFunction,ComponentPad*%
%ADD17O,2.190000X1.740000*%
%TD*%
%TA.AperFunction,Conductor*%
%ADD18C,0.250000*%
%TD*%
G04 APERTURE END LIST*
D10*
%TO.P,A1,1,D1/TX*%
%TO.N,unconnected-(A1-Pad1)*%
X42545000Y-26035000D03*
D11*
%TO.P,A1,2,D0/RX*%
%TO.N,unconnected-(A1-Pad2)*%
X42545000Y-28575000D03*
%TO.P,A1,3,~{RESET}*%
%TO.N,unconnected-(A1-Pad3)*%
X42545000Y-31115000D03*
%TO.P,A1,4,GND*%
%TO.N,Net-(A1-Pad29)*%
X42545000Y-33655000D03*
%TO.P,A1,5,D2*%
%TO.N,Net-(A1-Pad5)*%
X42545000Y-36195000D03*
%TO.P,A1,6,D3*%
%TO.N,Net-(A1-Pad6)*%
X42545000Y-38735000D03*
%TO.P,A1,7,D4*%
%TO.N,unconnected-(A1-Pad7)*%
X42545000Y-41275000D03*
%TO.P,A1,8,D5*%
%TO.N,unconnected-(A1-Pad8)*%
X42545000Y-43815000D03*
%TO.P,A1,9,D6*%
%TO.N,unconnected-(A1-Pad9)*%
X42545000Y-46355000D03*
%TO.P,A1,10,D7*%
%TO.N,unconnected-(A1-Pad10)*%
X42545000Y-48895000D03*
%TO.P,A1,11,D8*%
%TO.N,unconnected-(A1-Pad11)*%
X42545000Y-51435000D03*
%TO.P,A1,12,D9*%
%TO.N,unconnected-(A1-Pad12)*%
X42545000Y-53975000D03*
%TO.P,A1,13,D10*%
%TO.N,unconnected-(A1-Pad13)*%
X42545000Y-56515000D03*
%TO.P,A1,14,D11*%
%TO.N,unconnected-(A1-Pad14)*%
X42545000Y-59055000D03*
%TO.P,A1,15,D12*%
%TO.N,unconnected-(A1-Pad15)*%
X42545000Y-61595000D03*
%TO.P,A1,16,D13*%
%TO.N,unconnected-(A1-Pad16)*%
X57785000Y-61595000D03*
%TO.P,A1,17,3V3*%
%TO.N,unconnected-(A1-Pad17)*%
X57785000Y-59055000D03*
%TO.P,A1,18,AREF*%
%TO.N,unconnected-(A1-Pad18)*%
X57785000Y-56515000D03*
%TO.P,A1,19,A0*%
%TO.N,unconnected-(A1-Pad19)*%
X57785000Y-53975000D03*
%TO.P,A1,20,A1*%
%TO.N,Net-(A1-Pad20)*%
X57785000Y-51435000D03*
%TO.P,A1,21,A2*%
%TO.N,Net-(A1-Pad21)*%
X57785000Y-48895000D03*
%TO.P,A1,22,A3*%
%TO.N,Net-(A1-Pad22)*%
X57785000Y-46355000D03*
%TO.P,A1,23,A4*%
%TO.N,Net-(A1-Pad23)*%
X57785000Y-43815000D03*
%TO.P,A1,24,A5*%
%TO.N,unconnected-(A1-Pad24)*%
X57785000Y-41275000D03*
%TO.P,A1,25,A6*%
%TO.N,unconnected-(A1-Pad25)*%
X57785000Y-38735000D03*
%TO.P,A1,26,A7*%
%TO.N,unconnected-(A1-Pad26)*%
X57785000Y-36195000D03*
%TO.P,A1,27,+5V*%
%TO.N,Net-(A1-Pad27)*%
X57785000Y-33655000D03*
%TO.P,A1,28,~{RESET}*%
%TO.N,unconnected-(A1-Pad28)*%
X57785000Y-31115000D03*
%TO.P,A1,29,GND*%
%TO.N,Net-(A1-Pad29)*%
X57785000Y-28575000D03*
%TO.P,A1,30,VIN*%
%TO.N,unconnected-(A1-Pad30)*%
X57785000Y-26035000D03*
%TD*%
D10*
%TO.P,D1,1,K*%
%TO.N,Net-(A1-Pad5)*%
X48895000Y-48895000D03*
D11*
%TO.P,D1,2,A*%
%TO.N,Net-(A1-Pad29)*%
X48895000Y-41275000D03*
%TD*%
D12*
%TO.P,C2,1*%
%TO.N,Net-(A1-Pad6)*%
X52090000Y-55245000D03*
%TO.P,C2,2*%
%TO.N,Net-(A1-Pad29)*%
X54590000Y-55245000D03*
%TD*%
D10*
%TO.P,D3,1,K*%
%TO.N,Net-(A1-Pad6)*%
X53340000Y-48895000D03*
D11*
%TO.P,D3,2,A*%
%TO.N,Net-(A1-Pad29)*%
X53340000Y-41275000D03*
%TD*%
D13*
%TO.P,J2,1,Pin_1*%
%TO.N,Net-(A1-Pad27)*%
X64432500Y-56515000D03*
D14*
%TO.P,J2,2,Pin_2*%
%TO.N,Net-(A1-Pad21)*%
X64432500Y-59015000D03*
%TD*%
D12*
%TO.P,C1,1*%
%TO.N,Net-(A1-Pad5)*%
X45740000Y-55245000D03*
%TO.P,C1,2*%
%TO.N,Net-(A1-Pad29)*%
X48240000Y-55245000D03*
%TD*%
%TO.P,R4,1*%
%TO.N,Net-(A1-Pad6)*%
X46355000Y-27940000D03*
D15*
%TO.P,R4,2*%
%TO.N,Net-(J5-Pad2)*%
X53975000Y-27940000D03*
%TD*%
D16*
%TO.P,J5,1,Pin_1*%
%TO.N,Net-(J5-Pad1)*%
X64750000Y-26035000D03*
D17*
%TO.P,J5,2,Pin_2*%
%TO.N,Net-(J5-Pad2)*%
X64750000Y-28575000D03*
%TD*%
D13*
%TO.P,J3,1,Pin_1*%
%TO.N,Net-(A1-Pad27)*%
X64432500Y-45092500D03*
D14*
%TO.P,J3,2,Pin_2*%
%TO.N,Net-(A1-Pad22)*%
X64432500Y-47592500D03*
%TO.P,J3,3,Pin_3*%
%TO.N,Net-(A1-Pad29)*%
X64432500Y-50092500D03*
%TD*%
D13*
%TO.P,J1,1,Pin_1*%
%TO.N,Net-(A1-Pad27)*%
X64432500Y-65405000D03*
D14*
%TO.P,J1,2,Pin_2*%
%TO.N,Net-(A1-Pad20)*%
X64432500Y-67905000D03*
%TD*%
D13*
%TO.P,J4,1,Pin_1*%
%TO.N,Net-(A1-Pad27)*%
X64412500Y-33655000D03*
D14*
%TO.P,J4,2,Pin_2*%
%TO.N,Net-(A1-Pad23)*%
X64412500Y-36155000D03*
%TO.P,J4,3,Pin_3*%
%TO.N,Net-(A1-Pad29)*%
X64412500Y-38655000D03*
%TD*%
D12*
%TO.P,R2,1*%
%TO.N,Net-(A1-Pad21)*%
X53975000Y-59055000D03*
D15*
%TO.P,R2,2*%
%TO.N,Net-(A1-Pad29)*%
X46355000Y-59055000D03*
%TD*%
D10*
%TO.P,D4,1,K*%
%TO.N,Net-(A1-Pad27)*%
X53340000Y-38100000D03*
D11*
%TO.P,D4,2,A*%
%TO.N,Net-(A1-Pad6)*%
X53340000Y-30480000D03*
%TD*%
D12*
%TO.P,R3,1*%
%TO.N,Net-(A1-Pad5)*%
X46355000Y-25400000D03*
D15*
%TO.P,R3,2*%
%TO.N,Net-(J5-Pad1)*%
X53975000Y-25400000D03*
%TD*%
D12*
%TO.P,R1,1*%
%TO.N,Net-(A1-Pad20)*%
X53975000Y-61595000D03*
D15*
%TO.P,R1,2*%
%TO.N,Net-(A1-Pad29)*%
X46355000Y-61595000D03*
%TD*%
D10*
%TO.P,D2,1,K*%
%TO.N,Net-(A1-Pad27)*%
X48895000Y-38100000D03*
D11*
%TO.P,D2,2,A*%
%TO.N,Net-(A1-Pad5)*%
X48895000Y-30480000D03*
%TD*%
D18*
%TO.N,Net-(A1-Pad29)*%
X46355000Y-57130000D02*
X48240000Y-55245000D01*
X46355000Y-61595000D02*
X46355000Y-59055000D01*
X46355000Y-59055000D02*
X46355000Y-57130000D01*
%TO.N,Net-(A1-Pad5)*%
X48895000Y-30480000D02*
X48895000Y-34925000D01*
X45330489Y-26424511D02*
X45330489Y-28364367D01*
X45330489Y-28364367D02*
X47446122Y-30480000D01*
X48895000Y-34925000D02*
X47625000Y-36195000D01*
X47446122Y-30480000D02*
X48895000Y-30480000D01*
X47625000Y-36195000D02*
X42545000Y-36195000D01*
X48895000Y-52090000D02*
X45740000Y-55245000D01*
X48895000Y-48895000D02*
X48895000Y-52090000D01*
X46355000Y-25400000D02*
X45330489Y-26424511D01*
%TO.N,Net-(A1-Pad6)*%
X52705000Y-27940000D02*
X52705000Y-29845000D01*
X46355000Y-27940000D02*
X52705000Y-27940000D01*
X43815000Y-37465000D02*
X42545000Y-38735000D01*
X43815000Y-47625000D02*
X43815000Y-39370000D01*
X53340000Y-30480000D02*
X52070000Y-30480000D01*
X53340000Y-48895000D02*
X53340000Y-53995000D01*
X52070000Y-47625000D02*
X53340000Y-48895000D01*
X52070000Y-30480000D02*
X51435000Y-31115000D01*
X43815000Y-39370000D02*
X43180000Y-38735000D01*
X46355000Y-47625000D02*
X52070000Y-47625000D01*
X51435000Y-31115000D02*
X51435000Y-36830000D01*
X53340000Y-53995000D02*
X52090000Y-55245000D01*
X45085000Y-48895000D02*
X46355000Y-47625000D01*
X45085000Y-48895000D02*
X43815000Y-47625000D01*
X43815000Y-36830000D02*
X43815000Y-37465000D01*
X52705000Y-29845000D02*
X53340000Y-30480000D01*
X51435000Y-36830000D02*
X43815000Y-36830000D01*
%TO.N,Net-(A1-Pad20)*%
X60325000Y-51435000D02*
X57785000Y-51435000D01*
X59690000Y-66675000D02*
X59690000Y-63500000D01*
X60325000Y-62865000D02*
X59690000Y-63500000D01*
X53975000Y-61595000D02*
X55880000Y-63500000D01*
X64432500Y-67905000D02*
X60920000Y-67905000D01*
X60920000Y-67905000D02*
X59690000Y-66675000D01*
X60325000Y-51435000D02*
X60325000Y-62865000D01*
X55880000Y-63500000D02*
X59690000Y-63500000D01*
%TO.N,Net-(A1-Pad21)*%
X60774520Y-51248803D02*
X58420717Y-48895000D01*
X60774520Y-55357020D02*
X60774520Y-51248803D01*
X64432500Y-59015000D02*
X60774520Y-55357020D01*
%TO.N,Net-(A1-Pad22)*%
X64432500Y-47592500D02*
X61562500Y-47592500D01*
X60325000Y-46355000D02*
X57785000Y-46355000D01*
X61562500Y-47592500D02*
X60325000Y-46355000D01*
%TO.N,Net-(A1-Pad23)*%
X60325000Y-43815000D02*
X57785000Y-43815000D01*
X64412500Y-36155000D02*
X61635000Y-36155000D01*
X60960000Y-43180000D02*
X60325000Y-43815000D01*
X60960000Y-36830000D02*
X60960000Y-43180000D01*
X61635000Y-36155000D02*
X60960000Y-36830000D01*
%TO.N,Net-(A1-Pad27)*%
X65397500Y-45092500D02*
X66040000Y-44450000D01*
X48895000Y-38100000D02*
X53340000Y-38100000D01*
X65405000Y-33655000D02*
X64412500Y-33655000D01*
X64432500Y-56515000D02*
X65405000Y-56515000D01*
X54610000Y-38100000D02*
X55245000Y-37465000D01*
X66040000Y-53340000D02*
X66040000Y-44450000D01*
X55245000Y-37465000D02*
X55245000Y-34290000D01*
X55880000Y-33655000D02*
X57785000Y-33655000D01*
X66040000Y-44450000D02*
X66040000Y-34290000D01*
X64412500Y-33655000D02*
X57785000Y-33655000D01*
X66040000Y-34290000D02*
X65405000Y-33655000D01*
X65405000Y-65405000D02*
X66040000Y-64770000D01*
X66040000Y-55880000D02*
X66040000Y-53340000D01*
X64432500Y-65405000D02*
X65405000Y-65405000D01*
X64432500Y-45092500D02*
X65397500Y-45092500D01*
X66040000Y-64770000D02*
X66040000Y-53340000D01*
X65405000Y-56515000D02*
X66040000Y-55880000D01*
X55245000Y-34290000D02*
X55880000Y-33655000D01*
X53340000Y-38100000D02*
X54610000Y-38100000D01*
%TO.N,Net-(J5-Pad1)*%
X64750000Y-26035000D02*
X63415000Y-24700000D01*
X54675000Y-24700000D02*
X53975000Y-25400000D01*
X63415000Y-24700000D02*
X54675000Y-24700000D01*
%TO.N,Net-(J5-Pad2)*%
X64750000Y-28575000D02*
X63625489Y-27450489D01*
X54464511Y-27450489D02*
X53975000Y-27940000D01*
X63625489Y-27450489D02*
X54464511Y-27450489D01*
%TD*%
M02*
