%TF.GenerationSoftware,KiCad,Pcbnew,(6.0.4)*%
%TF.CreationDate,2022-09-13T00:35:04+09:00*%
%TF.ProjectId,MultiMeter,4d756c74-694d-4657-9465-722e6b696361,rev?*%
%TF.SameCoordinates,Original*%
%TF.FileFunction,Legend,Bot*%
%TF.FilePolarity,Positive*%
%FSLAX46Y46*%
G04 Gerber Fmt 4.6, Leading zero omitted, Abs format (unit mm)*
G04 Created by KiCad (PCBNEW (6.0.4)) date 2022-09-13 00:35:04*
%MOMM*%
%LPD*%
G01*
G04 APERTURE LIST*
%ADD10C,0.150000*%
G04 APERTURE END LIST*
D10*
X50386666Y-70667619D02*
X50339047Y-70620000D01*
X50243809Y-70572380D01*
X50005714Y-70572380D01*
X49910476Y-70620000D01*
X49862857Y-70667619D01*
X49815238Y-70762857D01*
X49815238Y-70858095D01*
X49862857Y-71000952D01*
X50434285Y-71572380D01*
X49815238Y-71572380D01*
X49196190Y-70572380D02*
X49100952Y-70572380D01*
X49005714Y-70620000D01*
X48958095Y-70667619D01*
X48910476Y-70762857D01*
X48862857Y-70953333D01*
X48862857Y-71191428D01*
X48910476Y-71381904D01*
X48958095Y-71477142D01*
X49005714Y-71524761D01*
X49100952Y-71572380D01*
X49196190Y-71572380D01*
X49291428Y-71524761D01*
X49339047Y-71477142D01*
X49386666Y-71381904D01*
X49434285Y-71191428D01*
X49434285Y-70953333D01*
X49386666Y-70762857D01*
X49339047Y-70667619D01*
X49291428Y-70620000D01*
X49196190Y-70572380D01*
X48481904Y-70667619D02*
X48434285Y-70620000D01*
X48339047Y-70572380D01*
X48100952Y-70572380D01*
X48005714Y-70620000D01*
X47958095Y-70667619D01*
X47910476Y-70762857D01*
X47910476Y-70858095D01*
X47958095Y-71000952D01*
X48529523Y-71572380D01*
X47910476Y-71572380D01*
X47529523Y-70667619D02*
X47481904Y-70620000D01*
X47386666Y-70572380D01*
X47148571Y-70572380D01*
X47053333Y-70620000D01*
X47005714Y-70667619D01*
X46958095Y-70762857D01*
X46958095Y-70858095D01*
X47005714Y-71000952D01*
X47577142Y-71572380D01*
X46958095Y-71572380D01*
X45815238Y-70524761D02*
X46672380Y-71810476D01*
X45291428Y-70572380D02*
X45196190Y-70572380D01*
X45100952Y-70620000D01*
X45053333Y-70667619D01*
X45005714Y-70762857D01*
X44958095Y-70953333D01*
X44958095Y-71191428D01*
X45005714Y-71381904D01*
X45053333Y-71477142D01*
X45100952Y-71524761D01*
X45196190Y-71572380D01*
X45291428Y-71572380D01*
X45386666Y-71524761D01*
X45434285Y-71477142D01*
X45481904Y-71381904D01*
X45529523Y-71191428D01*
X45529523Y-70953333D01*
X45481904Y-70762857D01*
X45434285Y-70667619D01*
X45386666Y-70620000D01*
X45291428Y-70572380D01*
X44481904Y-71572380D02*
X44291428Y-71572380D01*
X44196190Y-71524761D01*
X44148571Y-71477142D01*
X44053333Y-71334285D01*
X44005714Y-71143809D01*
X44005714Y-70762857D01*
X44053333Y-70667619D01*
X44100952Y-70620000D01*
X44196190Y-70572380D01*
X44386666Y-70572380D01*
X44481904Y-70620000D01*
X44529523Y-70667619D01*
X44577142Y-70762857D01*
X44577142Y-71000952D01*
X44529523Y-71096190D01*
X44481904Y-71143809D01*
X44386666Y-71191428D01*
X44196190Y-71191428D01*
X44100952Y-71143809D01*
X44053333Y-71096190D01*
X44005714Y-71000952D01*
X42862857Y-70524761D02*
X43720000Y-71810476D01*
X42005714Y-71572380D02*
X42577142Y-71572380D01*
X42291428Y-71572380D02*
X42291428Y-70572380D01*
X42386666Y-70715238D01*
X42481904Y-70810476D01*
X42577142Y-70858095D01*
X41672380Y-70572380D02*
X41053333Y-70572380D01*
X41386666Y-70953333D01*
X41243809Y-70953333D01*
X41148571Y-71000952D01*
X41100952Y-71048571D01*
X41053333Y-71143809D01*
X41053333Y-71381904D01*
X41100952Y-71477142D01*
X41148571Y-71524761D01*
X41243809Y-71572380D01*
X41529523Y-71572380D01*
X41624761Y-71524761D01*
X41672380Y-71477142D01*
M02*
