%TF.GenerationSoftware,KiCad,Pcbnew,(6.0.4)*%
%TF.CreationDate,2023-11-18T09:04:38+09:00*%
%TF.ProjectId,MultiMeter,4d756c74-694d-4657-9465-722e6b696361,rev?*%
%TF.SameCoordinates,Original*%
%TF.FileFunction,Legend,Bot*%
%TF.FilePolarity,Positive*%
%FSLAX46Y46*%
G04 Gerber Fmt 4.6, Leading zero omitted, Abs format (unit mm)*
G04 Created by KiCad (PCBNEW (6.0.4)) date 2023-11-18 09:04:38*
%MOMM*%
%LPD*%
G01*
G04 APERTURE LIST*
%ADD10C,0.300000*%
%ADD11C,0.150000*%
G04 APERTURE END LIST*
D10*
X71941428Y-69532142D02*
X70441428Y-69175000D01*
X71512857Y-68889285D01*
X70441428Y-68603571D01*
X71941428Y-68246428D01*
X70441428Y-67032142D02*
X71227142Y-67032142D01*
X71370000Y-67103571D01*
X71441428Y-67246428D01*
X71441428Y-67532142D01*
X71370000Y-67675000D01*
X70512857Y-67032142D02*
X70441428Y-67175000D01*
X70441428Y-67532142D01*
X70512857Y-67675000D01*
X70655714Y-67746428D01*
X70798571Y-67746428D01*
X70941428Y-67675000D01*
X71012857Y-67532142D01*
X71012857Y-67175000D01*
X71084285Y-67032142D01*
X71441428Y-66532142D02*
X71441428Y-65960714D01*
X71941428Y-66317857D02*
X70655714Y-66317857D01*
X70512857Y-66246428D01*
X70441428Y-66103571D01*
X70441428Y-65960714D01*
X70512857Y-64889285D02*
X70441428Y-65032142D01*
X70441428Y-65317857D01*
X70512857Y-65460714D01*
X70655714Y-65532142D01*
X71227142Y-65532142D01*
X71370000Y-65460714D01*
X71441428Y-65317857D01*
X71441428Y-65032142D01*
X71370000Y-64889285D01*
X71227142Y-64817857D01*
X71084285Y-64817857D01*
X70941428Y-65532142D01*
X70441428Y-64175000D02*
X71441428Y-64175000D01*
X71155714Y-64175000D02*
X71298571Y-64103571D01*
X71370000Y-64032142D01*
X71441428Y-63889285D01*
X71441428Y-63746428D01*
X71227142Y-38480714D02*
X71155714Y-38266428D01*
X71084285Y-38195000D01*
X70941428Y-38123571D01*
X70727142Y-38123571D01*
X70584285Y-38195000D01*
X70512857Y-38266428D01*
X70441428Y-38409285D01*
X70441428Y-38980714D01*
X71941428Y-38980714D01*
X71941428Y-38480714D01*
X71870000Y-38337857D01*
X71798571Y-38266428D01*
X71655714Y-38195000D01*
X71512857Y-38195000D01*
X71370000Y-38266428D01*
X71298571Y-38337857D01*
X71227142Y-38480714D01*
X71227142Y-38980714D01*
X70441428Y-37266428D02*
X70512857Y-37409285D01*
X70584285Y-37480714D01*
X70727142Y-37552142D01*
X71155714Y-37552142D01*
X71298571Y-37480714D01*
X71370000Y-37409285D01*
X71441428Y-37266428D01*
X71441428Y-37052142D01*
X71370000Y-36909285D01*
X71298571Y-36837857D01*
X71155714Y-36766428D01*
X70727142Y-36766428D01*
X70584285Y-36837857D01*
X70512857Y-36909285D01*
X70441428Y-37052142D01*
X70441428Y-37266428D01*
X70441428Y-35909285D02*
X70512857Y-36052142D01*
X70584285Y-36123571D01*
X70727142Y-36195000D01*
X71155714Y-36195000D01*
X71298571Y-36123571D01*
X71370000Y-36052142D01*
X71441428Y-35909285D01*
X71441428Y-35695000D01*
X71370000Y-35552142D01*
X71298571Y-35480714D01*
X71155714Y-35409285D01*
X70727142Y-35409285D01*
X70584285Y-35480714D01*
X70512857Y-35552142D01*
X70441428Y-35695000D01*
X70441428Y-35909285D01*
X70512857Y-34837857D02*
X70441428Y-34695000D01*
X70441428Y-34409285D01*
X70512857Y-34266428D01*
X70655714Y-34194999D01*
X70727142Y-34194999D01*
X70870000Y-34266428D01*
X70941428Y-34409285D01*
X70941428Y-34623571D01*
X71012857Y-34766428D01*
X71155714Y-34837857D01*
X71227142Y-34837857D01*
X71370000Y-34766428D01*
X71441428Y-34623571D01*
X71441428Y-34409285D01*
X71370000Y-34266428D01*
X71441428Y-33766428D02*
X71441428Y-33194999D01*
X71941428Y-33552142D02*
X70655714Y-33552142D01*
X70512857Y-33480714D01*
X70441428Y-33337857D01*
X70441428Y-33194999D01*
X71886666Y-30695333D02*
X71886666Y-29895333D01*
X70486666Y-30295333D02*
X71886666Y-30295333D01*
X70486666Y-29428666D02*
X71886666Y-29428666D01*
X70486666Y-28828666D02*
X71220000Y-28828666D01*
X71353333Y-28895333D01*
X71420000Y-29028666D01*
X71420000Y-29228666D01*
X71353333Y-29362000D01*
X71286666Y-29428666D01*
X70553333Y-27162000D02*
X70486666Y-26962000D01*
X70486666Y-26628666D01*
X70553333Y-26495333D01*
X70620000Y-26428666D01*
X70753333Y-26362000D01*
X70886666Y-26362000D01*
X71020000Y-26428666D01*
X71086666Y-26495333D01*
X71153333Y-26628666D01*
X71220000Y-26895333D01*
X71286666Y-27028666D01*
X71353333Y-27095333D01*
X71486666Y-27162000D01*
X71620000Y-27162000D01*
X71753333Y-27095333D01*
X71820000Y-27028666D01*
X71886666Y-26895333D01*
X71886666Y-26562000D01*
X71820000Y-26362000D01*
X71420000Y-25762000D02*
X70020000Y-25762000D01*
X71353333Y-25762000D02*
X71420000Y-25628666D01*
X71420000Y-25362000D01*
X71353333Y-25228666D01*
X71286666Y-25162000D01*
X71153333Y-25095333D01*
X70753333Y-25095333D01*
X70620000Y-25162000D01*
X70553333Y-25228666D01*
X70486666Y-25362000D01*
X70486666Y-25628666D01*
X70553333Y-25762000D01*
X71886666Y-23628666D02*
X71886666Y-22828666D01*
X70486666Y-23228666D02*
X71886666Y-23228666D01*
X70553333Y-21762000D02*
X70486666Y-21895333D01*
X70486666Y-22162000D01*
X70553333Y-22295333D01*
X70620000Y-22362000D01*
X70753333Y-22428666D01*
X71153333Y-22428666D01*
X71286666Y-22362000D01*
X71353333Y-22295333D01*
X71420000Y-22162000D01*
X71420000Y-21895333D01*
X71353333Y-21762000D01*
X71941428Y-59606428D02*
X71941428Y-59320714D01*
X71870000Y-59177857D01*
X71727142Y-59035000D01*
X71441428Y-58963571D01*
X70941428Y-58963571D01*
X70655714Y-59035000D01*
X70512857Y-59177857D01*
X70441428Y-59320714D01*
X70441428Y-59606428D01*
X70512857Y-59749285D01*
X70655714Y-59892142D01*
X70941428Y-59963571D01*
X71441428Y-59963571D01*
X71727142Y-59892142D01*
X71870000Y-59749285D01*
X71941428Y-59606428D01*
X70441428Y-58320714D02*
X71441428Y-58320714D01*
X71941428Y-58320714D02*
X71870000Y-58392142D01*
X71798571Y-58320714D01*
X71870000Y-58249285D01*
X71941428Y-58320714D01*
X71798571Y-58320714D01*
X70441428Y-57392142D02*
X70512857Y-57535000D01*
X70655714Y-57606428D01*
X71941428Y-57606428D01*
X70584285Y-56820714D02*
X70512857Y-56749285D01*
X70441428Y-56820714D01*
X70512857Y-56892142D01*
X70584285Y-56820714D01*
X70441428Y-56820714D01*
X71941428Y-56320714D02*
X71941428Y-55463571D01*
X70441428Y-55892142D02*
X71941428Y-55892142D01*
X71941428Y-49625000D02*
X71941428Y-49339285D01*
X71870000Y-49196428D01*
X71727142Y-49053571D01*
X71441428Y-48982142D01*
X70941428Y-48982142D01*
X70655714Y-49053571D01*
X70512857Y-49196428D01*
X70441428Y-49339285D01*
X70441428Y-49625000D01*
X70512857Y-49767857D01*
X70655714Y-49910714D01*
X70941428Y-49982142D01*
X71441428Y-49982142D01*
X71727142Y-49910714D01*
X71870000Y-49767857D01*
X71941428Y-49625000D01*
X70441428Y-48339285D02*
X71441428Y-48339285D01*
X71941428Y-48339285D02*
X71870000Y-48410714D01*
X71798571Y-48339285D01*
X71870000Y-48267857D01*
X71941428Y-48339285D01*
X71798571Y-48339285D01*
X70441428Y-47410714D02*
X70512857Y-47553571D01*
X70655714Y-47625000D01*
X71941428Y-47625000D01*
X70584285Y-46839285D02*
X70512857Y-46767857D01*
X70441428Y-46839285D01*
X70512857Y-46910714D01*
X70584285Y-46839285D01*
X70441428Y-46839285D01*
X70441428Y-46125000D02*
X71941428Y-46125000D01*
X71941428Y-45553571D01*
X71870000Y-45410714D01*
X71798571Y-45339285D01*
X71655714Y-45267857D01*
X71441428Y-45267857D01*
X71298571Y-45339285D01*
X71227142Y-45410714D01*
X71155714Y-45553571D01*
X71155714Y-46125000D01*
D11*
X71722666Y-72953619D02*
X71675047Y-72906000D01*
X71579809Y-72858380D01*
X71341714Y-72858380D01*
X71246476Y-72906000D01*
X71198857Y-72953619D01*
X71151238Y-73048857D01*
X71151238Y-73144095D01*
X71198857Y-73286952D01*
X71770285Y-73858380D01*
X71151238Y-73858380D01*
X70532190Y-72858380D02*
X70436952Y-72858380D01*
X70341714Y-72906000D01*
X70294095Y-72953619D01*
X70246476Y-73048857D01*
X70198857Y-73239333D01*
X70198857Y-73477428D01*
X70246476Y-73667904D01*
X70294095Y-73763142D01*
X70341714Y-73810761D01*
X70436952Y-73858380D01*
X70532190Y-73858380D01*
X70627428Y-73810761D01*
X70675047Y-73763142D01*
X70722666Y-73667904D01*
X70770285Y-73477428D01*
X70770285Y-73239333D01*
X70722666Y-73048857D01*
X70675047Y-72953619D01*
X70627428Y-72906000D01*
X70532190Y-72858380D01*
X69817904Y-72953619D02*
X69770285Y-72906000D01*
X69675047Y-72858380D01*
X69436952Y-72858380D01*
X69341714Y-72906000D01*
X69294095Y-72953619D01*
X69246476Y-73048857D01*
X69246476Y-73144095D01*
X69294095Y-73286952D01*
X69865523Y-73858380D01*
X69246476Y-73858380D01*
X68913142Y-72858380D02*
X68294095Y-72858380D01*
X68627428Y-73239333D01*
X68484571Y-73239333D01*
X68389333Y-73286952D01*
X68341714Y-73334571D01*
X68294095Y-73429809D01*
X68294095Y-73667904D01*
X68341714Y-73763142D01*
X68389333Y-73810761D01*
X68484571Y-73858380D01*
X68770285Y-73858380D01*
X68865523Y-73810761D01*
X68913142Y-73763142D01*
X67151238Y-72810761D02*
X68008380Y-74096476D01*
X66294095Y-73858380D02*
X66865523Y-73858380D01*
X66579809Y-73858380D02*
X66579809Y-72858380D01*
X66675047Y-73001238D01*
X66770285Y-73096476D01*
X66865523Y-73144095D01*
X65341714Y-73858380D02*
X65913142Y-73858380D01*
X65627428Y-73858380D02*
X65627428Y-72858380D01*
X65722666Y-73001238D01*
X65817904Y-73096476D01*
X65913142Y-73144095D01*
X64198857Y-72810761D02*
X65056000Y-74096476D01*
X63341714Y-73858380D02*
X63913142Y-73858380D01*
X63627428Y-73858380D02*
X63627428Y-72858380D01*
X63722666Y-73001238D01*
X63817904Y-73096476D01*
X63913142Y-73144095D01*
X63008380Y-72858380D02*
X62341714Y-72858380D01*
X62770285Y-73858380D01*
M02*
