%TF.GenerationSoftware,KiCad,Pcbnew,(6.0.4)*%
%TF.CreationDate,2023-06-21T10:24:11+09:00*%
%TF.ProjectId,MultiMeter,4d756c74-694d-4657-9465-722e6b696361,rev?*%
%TF.SameCoordinates,Original*%
%TF.FileFunction,Legend,Top*%
%TF.FilePolarity,Positive*%
%FSLAX46Y46*%
G04 Gerber Fmt 4.6, Leading zero omitted, Abs format (unit mm)*
G04 Created by KiCad (PCBNEW (6.0.4)) date 2023-06-21 10:24:11*
%MOMM*%
%LPD*%
G01*
G04 APERTURE LIST*
%ADD10C,0.150000*%
%ADD11C,0.120000*%
G04 APERTURE END LIST*
D10*
X43180000Y-23495000D02*
G75*
G03*
X43180000Y-23495000I-635000J0D01*
G01*
%TO.C,JP1*%
X37901666Y-64427380D02*
X37901666Y-65141666D01*
X37854047Y-65284523D01*
X37758809Y-65379761D01*
X37615952Y-65427380D01*
X37520714Y-65427380D01*
X38377857Y-65427380D02*
X38377857Y-64427380D01*
X38758809Y-64427380D01*
X38854047Y-64475000D01*
X38901666Y-64522619D01*
X38949285Y-64617857D01*
X38949285Y-64760714D01*
X38901666Y-64855952D01*
X38854047Y-64903571D01*
X38758809Y-64951190D01*
X38377857Y-64951190D01*
X39901666Y-65427380D02*
X39330238Y-65427380D01*
X39615952Y-65427380D02*
X39615952Y-64427380D01*
X39520714Y-64570238D01*
X39425476Y-64665476D01*
X39330238Y-64713095D01*
%TO.C,A1*%
X49450714Y-21121666D02*
X49926904Y-21121666D01*
X49355476Y-21407380D02*
X49688809Y-20407380D01*
X50022142Y-21407380D01*
X50879285Y-21407380D02*
X50307857Y-21407380D01*
X50593571Y-21407380D02*
X50593571Y-20407380D01*
X50498333Y-20550238D01*
X50403095Y-20645476D01*
X50307857Y-20693095D01*
%TO.C,R6*%
X53807380Y-43346666D02*
X53331190Y-43680000D01*
X53807380Y-43918095D02*
X52807380Y-43918095D01*
X52807380Y-43537142D01*
X52855000Y-43441904D01*
X52902619Y-43394285D01*
X52997857Y-43346666D01*
X53140714Y-43346666D01*
X53235952Y-43394285D01*
X53283571Y-43441904D01*
X53331190Y-43537142D01*
X53331190Y-43918095D01*
X52807380Y-42489523D02*
X52807380Y-42680000D01*
X52855000Y-42775238D01*
X52902619Y-42822857D01*
X53045476Y-42918095D01*
X53235952Y-42965714D01*
X53616904Y-42965714D01*
X53712142Y-42918095D01*
X53759761Y-42870476D01*
X53807380Y-42775238D01*
X53807380Y-42584761D01*
X53759761Y-42489523D01*
X53712142Y-42441904D01*
X53616904Y-42394285D01*
X53378809Y-42394285D01*
X53283571Y-42441904D01*
X53235952Y-42489523D01*
X53188333Y-42584761D01*
X53188333Y-42775238D01*
X53235952Y-42870476D01*
X53283571Y-42918095D01*
X53378809Y-42965714D01*
%TO.C,RV1*%
X44449761Y-72062380D02*
X44116428Y-71586190D01*
X43878333Y-72062380D02*
X43878333Y-71062380D01*
X44259285Y-71062380D01*
X44354523Y-71110000D01*
X44402142Y-71157619D01*
X44449761Y-71252857D01*
X44449761Y-71395714D01*
X44402142Y-71490952D01*
X44354523Y-71538571D01*
X44259285Y-71586190D01*
X43878333Y-71586190D01*
X44735476Y-71062380D02*
X45068809Y-72062380D01*
X45402142Y-71062380D01*
X46259285Y-72062380D02*
X45687857Y-72062380D01*
X45973571Y-72062380D02*
X45973571Y-71062380D01*
X45878333Y-71205238D01*
X45783095Y-71300476D01*
X45687857Y-71348095D01*
%TO.C,R9*%
X47427380Y-43346666D02*
X46951190Y-43680000D01*
X47427380Y-43918095D02*
X46427380Y-43918095D01*
X46427380Y-43537142D01*
X46475000Y-43441904D01*
X46522619Y-43394285D01*
X46617857Y-43346666D01*
X46760714Y-43346666D01*
X46855952Y-43394285D01*
X46903571Y-43441904D01*
X46951190Y-43537142D01*
X46951190Y-43918095D01*
X47427380Y-42870476D02*
X47427380Y-42680000D01*
X47379761Y-42584761D01*
X47332142Y-42537142D01*
X47189285Y-42441904D01*
X46998809Y-42394285D01*
X46617857Y-42394285D01*
X46522619Y-42441904D01*
X46475000Y-42489523D01*
X46427380Y-42584761D01*
X46427380Y-42775238D01*
X46475000Y-42870476D01*
X46522619Y-42918095D01*
X46617857Y-42965714D01*
X46855952Y-42965714D01*
X46951190Y-42918095D01*
X46998809Y-42870476D01*
X47046428Y-42775238D01*
X47046428Y-42584761D01*
X46998809Y-42489523D01*
X46951190Y-42441904D01*
X46855952Y-42394285D01*
%TO.C,D5*%
X59581904Y-65707380D02*
X59581904Y-64707380D01*
X59820000Y-64707380D01*
X59962857Y-64755000D01*
X60058095Y-64850238D01*
X60105714Y-64945476D01*
X60153333Y-65135952D01*
X60153333Y-65278809D01*
X60105714Y-65469285D01*
X60058095Y-65564523D01*
X59962857Y-65659761D01*
X59820000Y-65707380D01*
X59581904Y-65707380D01*
X61058095Y-64707380D02*
X60581904Y-64707380D01*
X60534285Y-65183571D01*
X60581904Y-65135952D01*
X60677142Y-65088333D01*
X60915238Y-65088333D01*
X61010476Y-65135952D01*
X61058095Y-65183571D01*
X61105714Y-65278809D01*
X61105714Y-65516904D01*
X61058095Y-65612142D01*
X61010476Y-65659761D01*
X60915238Y-65707380D01*
X60677142Y-65707380D01*
X60581904Y-65659761D01*
X60534285Y-65612142D01*
%TO.C,J2*%
X62357380Y-58138333D02*
X63071666Y-58138333D01*
X63214523Y-58185952D01*
X63309761Y-58281190D01*
X63357380Y-58424047D01*
X63357380Y-58519285D01*
X62452619Y-57709761D02*
X62405000Y-57662142D01*
X62357380Y-57566904D01*
X62357380Y-57328809D01*
X62405000Y-57233571D01*
X62452619Y-57185952D01*
X62547857Y-57138333D01*
X62643095Y-57138333D01*
X62785952Y-57185952D01*
X63357380Y-57757380D01*
X63357380Y-57138333D01*
%TO.C,R4*%
X49998333Y-26472380D02*
X49665000Y-25996190D01*
X49426904Y-26472380D02*
X49426904Y-25472380D01*
X49807857Y-25472380D01*
X49903095Y-25520000D01*
X49950714Y-25567619D01*
X49998333Y-25662857D01*
X49998333Y-25805714D01*
X49950714Y-25900952D01*
X49903095Y-25948571D01*
X49807857Y-25996190D01*
X49426904Y-25996190D01*
X50855476Y-25805714D02*
X50855476Y-26472380D01*
X50617380Y-25424761D02*
X50379285Y-26139047D01*
X50998333Y-26139047D01*
%TO.C,J5*%
X68667380Y-23828333D02*
X69381666Y-23828333D01*
X69524523Y-23875952D01*
X69619761Y-23971190D01*
X69667380Y-24114047D01*
X69667380Y-24209285D01*
X68667380Y-22875952D02*
X68667380Y-23352142D01*
X69143571Y-23399761D01*
X69095952Y-23352142D01*
X69048333Y-23256904D01*
X69048333Y-23018809D01*
X69095952Y-22923571D01*
X69143571Y-22875952D01*
X69238809Y-22828333D01*
X69476904Y-22828333D01*
X69572142Y-22875952D01*
X69619761Y-22923571D01*
X69667380Y-23018809D01*
X69667380Y-23256904D01*
X69619761Y-23352142D01*
X69572142Y-23399761D01*
%TO.C,J6*%
X39036666Y-22717380D02*
X39036666Y-23431666D01*
X38989047Y-23574523D01*
X38893809Y-23669761D01*
X38750952Y-23717380D01*
X38655714Y-23717380D01*
X39941428Y-22717380D02*
X39750952Y-22717380D01*
X39655714Y-22765000D01*
X39608095Y-22812619D01*
X39512857Y-22955476D01*
X39465238Y-23145952D01*
X39465238Y-23526904D01*
X39512857Y-23622142D01*
X39560476Y-23669761D01*
X39655714Y-23717380D01*
X39846190Y-23717380D01*
X39941428Y-23669761D01*
X39989047Y-23622142D01*
X40036666Y-23526904D01*
X40036666Y-23288809D01*
X39989047Y-23193571D01*
X39941428Y-23145952D01*
X39846190Y-23098333D01*
X39655714Y-23098333D01*
X39560476Y-23145952D01*
X39512857Y-23193571D01*
X39465238Y-23288809D01*
%TO.C,J3*%
X62357380Y-47998333D02*
X63071666Y-47998333D01*
X63214523Y-48045952D01*
X63309761Y-48141190D01*
X63357380Y-48284047D01*
X63357380Y-48379285D01*
X62357380Y-47617380D02*
X62357380Y-46998333D01*
X62738333Y-47331666D01*
X62738333Y-47188809D01*
X62785952Y-47093571D01*
X62833571Y-47045952D01*
X62928809Y-46998333D01*
X63166904Y-46998333D01*
X63262142Y-47045952D01*
X63309761Y-47093571D01*
X63357380Y-47188809D01*
X63357380Y-47474523D01*
X63309761Y-47569761D01*
X63262142Y-47617380D01*
%TO.C,R7*%
X48727380Y-43346666D02*
X48251190Y-43680000D01*
X48727380Y-43918095D02*
X47727380Y-43918095D01*
X47727380Y-43537142D01*
X47775000Y-43441904D01*
X47822619Y-43394285D01*
X47917857Y-43346666D01*
X48060714Y-43346666D01*
X48155952Y-43394285D01*
X48203571Y-43441904D01*
X48251190Y-43537142D01*
X48251190Y-43918095D01*
X47727380Y-43013333D02*
X47727380Y-42346666D01*
X48727380Y-42775238D01*
%TO.C,J1*%
X62357380Y-67028333D02*
X63071666Y-67028333D01*
X63214523Y-67075952D01*
X63309761Y-67171190D01*
X63357380Y-67314047D01*
X63357380Y-67409285D01*
X63357380Y-66028333D02*
X63357380Y-66599761D01*
X63357380Y-66314047D02*
X62357380Y-66314047D01*
X62500238Y-66409285D01*
X62595476Y-66504523D01*
X62643095Y-66599761D01*
%TO.C,R5*%
X57602380Y-67476666D02*
X57126190Y-67810000D01*
X57602380Y-68048095D02*
X56602380Y-68048095D01*
X56602380Y-67667142D01*
X56650000Y-67571904D01*
X56697619Y-67524285D01*
X56792857Y-67476666D01*
X56935714Y-67476666D01*
X57030952Y-67524285D01*
X57078571Y-67571904D01*
X57126190Y-67667142D01*
X57126190Y-68048095D01*
X56602380Y-66571904D02*
X56602380Y-67048095D01*
X57078571Y-67095714D01*
X57030952Y-67048095D01*
X56983333Y-66952857D01*
X56983333Y-66714761D01*
X57030952Y-66619523D01*
X57078571Y-66571904D01*
X57173809Y-66524285D01*
X57411904Y-66524285D01*
X57507142Y-66571904D01*
X57554761Y-66619523D01*
X57602380Y-66714761D01*
X57602380Y-66952857D01*
X57554761Y-67048095D01*
X57507142Y-67095714D01*
%TO.C,J4*%
X62120380Y-36528333D02*
X62834666Y-36528333D01*
X62977523Y-36575952D01*
X63072761Y-36671190D01*
X63120380Y-36814047D01*
X63120380Y-36909285D01*
X62453714Y-35623571D02*
X63120380Y-35623571D01*
X62072761Y-35861666D02*
X62787047Y-36099761D01*
X62787047Y-35480714D01*
%TO.C,R8*%
X52507380Y-43346666D02*
X52031190Y-43680000D01*
X52507380Y-43918095D02*
X51507380Y-43918095D01*
X51507380Y-43537142D01*
X51555000Y-43441904D01*
X51602619Y-43394285D01*
X51697857Y-43346666D01*
X51840714Y-43346666D01*
X51935952Y-43394285D01*
X51983571Y-43441904D01*
X52031190Y-43537142D01*
X52031190Y-43918095D01*
X51935952Y-42775238D02*
X51888333Y-42870476D01*
X51840714Y-42918095D01*
X51745476Y-42965714D01*
X51697857Y-42965714D01*
X51602619Y-42918095D01*
X51555000Y-42870476D01*
X51507380Y-42775238D01*
X51507380Y-42584761D01*
X51555000Y-42489523D01*
X51602619Y-42441904D01*
X51697857Y-42394285D01*
X51745476Y-42394285D01*
X51840714Y-42441904D01*
X51888333Y-42489523D01*
X51935952Y-42584761D01*
X51935952Y-42775238D01*
X51983571Y-42870476D01*
X52031190Y-42918095D01*
X52126428Y-42965714D01*
X52316904Y-42965714D01*
X52412142Y-42918095D01*
X52459761Y-42870476D01*
X52507380Y-42775238D01*
X52507380Y-42584761D01*
X52459761Y-42489523D01*
X52412142Y-42441904D01*
X52316904Y-42394285D01*
X52126428Y-42394285D01*
X52031190Y-42441904D01*
X51983571Y-42489523D01*
X51935952Y-42584761D01*
%TO.C,R2*%
X49998333Y-57602380D02*
X49665000Y-57126190D01*
X49426904Y-57602380D02*
X49426904Y-56602380D01*
X49807857Y-56602380D01*
X49903095Y-56650000D01*
X49950714Y-56697619D01*
X49998333Y-56792857D01*
X49998333Y-56935714D01*
X49950714Y-57030952D01*
X49903095Y-57078571D01*
X49807857Y-57126190D01*
X49426904Y-57126190D01*
X50379285Y-56697619D02*
X50426904Y-56650000D01*
X50522142Y-56602380D01*
X50760238Y-56602380D01*
X50855476Y-56650000D01*
X50903095Y-56697619D01*
X50950714Y-56792857D01*
X50950714Y-56888095D01*
X50903095Y-57030952D01*
X50331666Y-57602380D01*
X50950714Y-57602380D01*
%TO.C,Q2*%
X47529761Y-31637619D02*
X47434523Y-31590000D01*
X47339285Y-31494761D01*
X47196428Y-31351904D01*
X47101190Y-31304285D01*
X47005952Y-31304285D01*
X47053571Y-31542380D02*
X46958333Y-31494761D01*
X46863095Y-31399523D01*
X46815476Y-31209047D01*
X46815476Y-30875714D01*
X46863095Y-30685238D01*
X46958333Y-30590000D01*
X47053571Y-30542380D01*
X47244047Y-30542380D01*
X47339285Y-30590000D01*
X47434523Y-30685238D01*
X47482142Y-30875714D01*
X47482142Y-31209047D01*
X47434523Y-31399523D01*
X47339285Y-31494761D01*
X47244047Y-31542380D01*
X47053571Y-31542380D01*
X47863095Y-30637619D02*
X47910714Y-30590000D01*
X48005952Y-30542380D01*
X48244047Y-30542380D01*
X48339285Y-30590000D01*
X48386904Y-30637619D01*
X48434523Y-30732857D01*
X48434523Y-30828095D01*
X48386904Y-30970952D01*
X47815476Y-31542380D01*
X48434523Y-31542380D01*
%TO.C,R3*%
X49998333Y-23932380D02*
X49665000Y-23456190D01*
X49426904Y-23932380D02*
X49426904Y-22932380D01*
X49807857Y-22932380D01*
X49903095Y-22980000D01*
X49950714Y-23027619D01*
X49998333Y-23122857D01*
X49998333Y-23265714D01*
X49950714Y-23360952D01*
X49903095Y-23408571D01*
X49807857Y-23456190D01*
X49426904Y-23456190D01*
X50331666Y-22932380D02*
X50950714Y-22932380D01*
X50617380Y-23313333D01*
X50760238Y-23313333D01*
X50855476Y-23360952D01*
X50903095Y-23408571D01*
X50950714Y-23503809D01*
X50950714Y-23741904D01*
X50903095Y-23837142D01*
X50855476Y-23884761D01*
X50760238Y-23932380D01*
X50474523Y-23932380D01*
X50379285Y-23884761D01*
X50331666Y-23837142D01*
%TO.C,Q1*%
X53244761Y-31637619D02*
X53149523Y-31590000D01*
X53054285Y-31494761D01*
X52911428Y-31351904D01*
X52816190Y-31304285D01*
X52720952Y-31304285D01*
X52768571Y-31542380D02*
X52673333Y-31494761D01*
X52578095Y-31399523D01*
X52530476Y-31209047D01*
X52530476Y-30875714D01*
X52578095Y-30685238D01*
X52673333Y-30590000D01*
X52768571Y-30542380D01*
X52959047Y-30542380D01*
X53054285Y-30590000D01*
X53149523Y-30685238D01*
X53197142Y-30875714D01*
X53197142Y-31209047D01*
X53149523Y-31399523D01*
X53054285Y-31494761D01*
X52959047Y-31542380D01*
X52768571Y-31542380D01*
X54149523Y-31542380D02*
X53578095Y-31542380D01*
X53863809Y-31542380D02*
X53863809Y-30542380D01*
X53768571Y-30685238D01*
X53673333Y-30780476D01*
X53578095Y-30828095D01*
%TO.C,J7*%
X60601666Y-63817380D02*
X60601666Y-64531666D01*
X60554047Y-64674523D01*
X60458809Y-64769761D01*
X60315952Y-64817380D01*
X60220714Y-64817380D01*
X60982619Y-63817380D02*
X61649285Y-63817380D01*
X61220714Y-64817380D01*
%TO.C,R1*%
X49998333Y-63967380D02*
X49665000Y-63491190D01*
X49426904Y-63967380D02*
X49426904Y-62967380D01*
X49807857Y-62967380D01*
X49903095Y-63015000D01*
X49950714Y-63062619D01*
X49998333Y-63157857D01*
X49998333Y-63300714D01*
X49950714Y-63395952D01*
X49903095Y-63443571D01*
X49807857Y-63491190D01*
X49426904Y-63491190D01*
X50950714Y-63967380D02*
X50379285Y-63967380D01*
X50665000Y-63967380D02*
X50665000Y-62967380D01*
X50569761Y-63110238D01*
X50474523Y-63205476D01*
X50379285Y-63253095D01*
D11*
%TO.C,JP1*%
X37405000Y-67305000D02*
X37405000Y-65975000D01*
X37405000Y-71175000D02*
X40065000Y-71175000D01*
X37405000Y-68575000D02*
X37405000Y-71175000D01*
X37405000Y-68575000D02*
X40065000Y-68575000D01*
X37405000Y-65975000D02*
X38735000Y-65975000D01*
X40065000Y-68575000D02*
X40065000Y-71175000D01*
%TO.C,A1*%
X56515000Y-24765000D02*
X56515000Y-62865000D01*
X41145000Y-27305000D02*
X41145000Y-65535000D01*
X41145000Y-22095000D02*
X41145000Y-24765000D01*
X59185000Y-65535000D02*
X59185000Y-22095000D01*
X56515000Y-24765000D02*
X59185000Y-24765000D01*
X43815000Y-27305000D02*
X43815000Y-24765000D01*
X43815000Y-62865000D02*
X41145000Y-62865000D01*
X59185000Y-22095000D02*
X41145000Y-22095000D01*
X41145000Y-65535000D02*
X59185000Y-65535000D01*
X43815000Y-27305000D02*
X43815000Y-62865000D01*
X43815000Y-24765000D02*
X41145000Y-24765000D01*
X43815000Y-27305000D02*
X41145000Y-27305000D01*
X56515000Y-62865000D02*
X59185000Y-62865000D01*
%TO.C,R6*%
X52355000Y-45100000D02*
X52355000Y-41260000D01*
X51435000Y-46050000D02*
X51435000Y-45100000D01*
X52355000Y-41260000D02*
X50515000Y-41260000D01*
X51435000Y-40310000D02*
X51435000Y-41260000D01*
X50515000Y-41260000D02*
X50515000Y-45100000D01*
X50515000Y-45100000D02*
X52355000Y-45100000D01*
D10*
%TO.C,RV1*%
X41545000Y-66110000D02*
X41545000Y-70610000D01*
X48545000Y-66110000D02*
X48545000Y-70610000D01*
X41545000Y-70610000D02*
X48545000Y-70610000D01*
X41545000Y-66110000D02*
X48545000Y-66110000D01*
D11*
%TO.C,R9*%
X47975000Y-45100000D02*
X49815000Y-45100000D01*
X48895000Y-46050000D02*
X48895000Y-45100000D01*
X49815000Y-45100000D02*
X49815000Y-41260000D01*
X49815000Y-41260000D02*
X47975000Y-41260000D01*
X48895000Y-40310000D02*
X48895000Y-41260000D01*
X47975000Y-41260000D02*
X47975000Y-45100000D01*
%TO.C,D5*%
X57760000Y-67670000D02*
X57760000Y-70760000D01*
X57760000Y-70759830D02*
G75*
G03*
X63310000Y-69214538I2560000J1544830D01*
G01*
X63310000Y-69215462D02*
G75*
G03*
X57760000Y-67670170I-2990000J462D01*
G01*
X62820000Y-69215000D02*
G75*
G03*
X62820000Y-69215000I-2500000J0D01*
G01*
%TO.C,J2*%
X66105000Y-61915000D02*
X63695000Y-61915000D01*
X63695000Y-61915000D02*
X63695000Y-59505000D01*
X72115000Y-61615000D02*
X72115000Y-53995000D01*
X63995000Y-53995000D02*
X63995000Y-61615000D01*
X63995000Y-61615000D02*
X72115000Y-61615000D01*
X72115000Y-53995000D02*
X63995000Y-53995000D01*
%TO.C,R4*%
X48245000Y-28860000D02*
X52085000Y-28860000D01*
X52085000Y-27020000D02*
X48245000Y-27020000D01*
X48245000Y-27020000D02*
X48245000Y-28860000D01*
X52085000Y-28860000D02*
X52085000Y-27020000D01*
X53035000Y-27940000D02*
X52085000Y-27940000D01*
X47295000Y-27940000D02*
X48245000Y-27940000D01*
%TO.C,J5*%
X65195000Y-28325000D02*
X64665000Y-28575000D01*
X69685000Y-24655000D02*
X63665000Y-24655000D01*
X63665000Y-28325000D02*
X64665000Y-28325000D01*
X69685000Y-29955000D02*
X69685000Y-24655000D01*
X63665000Y-26035000D02*
X64665000Y-26035000D01*
X68655000Y-24365000D02*
X64655000Y-24365000D01*
X64665000Y-26035000D02*
X64665000Y-28575000D01*
X69085000Y-26835000D02*
X69685000Y-26835000D01*
X69685000Y-25235000D02*
X69085000Y-25235000D01*
X63665000Y-26285000D02*
X64665000Y-26285000D01*
X64665000Y-26035000D02*
X65195000Y-26285000D01*
X69085000Y-25235000D02*
X69085000Y-26835000D01*
X69085000Y-29375000D02*
X69685000Y-29375000D01*
X69085000Y-27775000D02*
X69085000Y-29375000D01*
X63665000Y-24655000D02*
X63665000Y-29955000D01*
X64665000Y-28575000D02*
X63665000Y-28575000D01*
X69685000Y-27775000D02*
X69085000Y-27775000D01*
X65195000Y-26285000D02*
X65195000Y-28325000D01*
X63665000Y-29955000D02*
X69685000Y-29955000D01*
%TO.C,J6*%
X40700000Y-27305000D02*
X40700000Y-62925000D01*
X39370000Y-24705000D02*
X40700000Y-24705000D01*
X38040000Y-27305000D02*
X40700000Y-27305000D01*
X38040000Y-27305000D02*
X38040000Y-62925000D01*
X38040000Y-62925000D02*
X40700000Y-62925000D01*
X40700000Y-24705000D02*
X40700000Y-26035000D01*
%TO.C,J3*%
X72115000Y-42605000D02*
X63995000Y-42605000D01*
X63695000Y-53025000D02*
X63695000Y-50615000D01*
X63995000Y-52725000D02*
X72115000Y-52725000D01*
X63995000Y-42605000D02*
X63995000Y-52725000D01*
X66105000Y-53025000D02*
X63695000Y-53025000D01*
X72115000Y-52725000D02*
X72115000Y-42605000D01*
%TO.C,R7*%
X46355000Y-40310000D02*
X46355000Y-41260000D01*
X46355000Y-46050000D02*
X46355000Y-45100000D01*
X47275000Y-45100000D02*
X47275000Y-41260000D01*
X45435000Y-41260000D02*
X45435000Y-45100000D01*
X47275000Y-41260000D02*
X45435000Y-41260000D01*
X45435000Y-45100000D02*
X47275000Y-45100000D01*
%TO.C,J1*%
X72115000Y-70505000D02*
X72115000Y-62885000D01*
X63995000Y-62885000D02*
X63995000Y-70505000D01*
X63695000Y-70805000D02*
X63695000Y-68395000D01*
X72115000Y-62885000D02*
X63995000Y-62885000D01*
X66105000Y-70805000D02*
X63695000Y-70805000D01*
X63995000Y-70505000D02*
X72115000Y-70505000D01*
%TO.C,R5*%
X56165000Y-65390000D02*
X54325000Y-65390000D01*
X55245000Y-64440000D02*
X55245000Y-65390000D01*
X54325000Y-69230000D02*
X56165000Y-69230000D01*
X56165000Y-69230000D02*
X56165000Y-65390000D01*
X55245000Y-70180000D02*
X55245000Y-69230000D01*
X54325000Y-65390000D02*
X54325000Y-69230000D01*
%TO.C,J4*%
X63758000Y-41255000D02*
X71878000Y-41255000D01*
X63758000Y-31135000D02*
X63758000Y-41255000D01*
X65868000Y-41555000D02*
X63458000Y-41555000D01*
X71878000Y-31135000D02*
X63758000Y-31135000D01*
X71878000Y-41255000D02*
X71878000Y-31135000D01*
X63458000Y-41555000D02*
X63458000Y-39145000D01*
%TO.C,R8*%
X54895000Y-41260000D02*
X53055000Y-41260000D01*
X53975000Y-46050000D02*
X53975000Y-45100000D01*
X53055000Y-41260000D02*
X53055000Y-45100000D01*
X54895000Y-45100000D02*
X54895000Y-41260000D01*
X53975000Y-40310000D02*
X53975000Y-41260000D01*
X53055000Y-45100000D02*
X54895000Y-45100000D01*
%TO.C,R2*%
X47295000Y-59055000D02*
X48245000Y-59055000D01*
X52085000Y-59975000D02*
X52085000Y-58135000D01*
X48245000Y-59975000D02*
X52085000Y-59975000D01*
X52085000Y-58135000D02*
X48245000Y-58135000D01*
X53035000Y-59055000D02*
X52085000Y-59055000D01*
X48245000Y-58135000D02*
X48245000Y-59975000D01*
%TO.C,Q2*%
X45825000Y-36500000D02*
X49425000Y-36500000D01*
X49463478Y-36488478D02*
G75*
G03*
X47625000Y-32050000I-1838478J1838478D01*
G01*
X47625000Y-32049999D02*
G75*
G03*
X45786522Y-36488478I0J-2600001D01*
G01*
%TO.C,R3*%
X48245000Y-24480000D02*
X48245000Y-26320000D01*
X53035000Y-25400000D02*
X52085000Y-25400000D01*
X52085000Y-24480000D02*
X48245000Y-24480000D01*
X47295000Y-25400000D02*
X48245000Y-25400000D01*
X48245000Y-26320000D02*
X52085000Y-26320000D01*
X52085000Y-26320000D02*
X52085000Y-24480000D01*
%TO.C,Q1*%
X51540000Y-36500000D02*
X55140000Y-36500000D01*
X55178478Y-36488478D02*
G75*
G03*
X53340000Y-32050000I-1838478J1838478D01*
G01*
X53340000Y-32049999D02*
G75*
G03*
X51501522Y-36488478I0J-2600001D01*
G01*
%TO.C,J7*%
X60935000Y-62925000D02*
X59605000Y-62925000D01*
X59605000Y-62925000D02*
X59605000Y-61595000D01*
X62265000Y-24705000D02*
X59605000Y-24705000D01*
X62265000Y-60325000D02*
X59605000Y-60325000D01*
X59605000Y-60325000D02*
X59605000Y-24705000D01*
X62265000Y-60325000D02*
X62265000Y-24705000D01*
%TO.C,R1*%
X47295000Y-61595000D02*
X48245000Y-61595000D01*
X52085000Y-62515000D02*
X52085000Y-60675000D01*
X52085000Y-60675000D02*
X48245000Y-60675000D01*
X48245000Y-60675000D02*
X48245000Y-62515000D01*
X53035000Y-61595000D02*
X52085000Y-61595000D01*
X48245000Y-62515000D02*
X52085000Y-62515000D01*
%TD*%
M02*
