M48
; DRILL file {KiCad 8.0.0} date 2024-03-16T12:10:58+0900
; FORMAT={-:-/ absolute / inch / decimal}
; #@! TF.CreationDate,2024-03-16T12:10:58+09:00
; #@! TF.GenerationSoftware,Kicad,Pcbnew,8.0.0
; #@! TF.FileFunction,Plated,1,2,PTH
FMAT,2
INCH
; #@! TA.AperFunction,Plated,PTH,ComponentDrill
T1C0.0236
; #@! TA.AperFunction,Plated,PTH,ComponentDrill
T2C0.0276
; #@! TA.AperFunction,Plated,PTH,ComponentDrill
T3C0.0295
; #@! TA.AperFunction,Plated,PTH,ComponentDrill
T4C0.0335
; #@! TA.AperFunction,Plated,PTH,ComponentDrill
T5C0.0354
; #@! TA.AperFunction,Plated,PTH,ComponentDrill
T6C0.0374
; #@! TA.AperFunction,Plated,PTH,ComponentDrill
T7C0.0394
; #@! TA.AperFunction,Plated,PTH,ComponentDrill
T8C0.0433
; #@! TA.AperFunction,Plated,PTH,ComponentDrill
T9C0.0469
%
G90
G05
T1
X3.6509Y-1.0431
X3.7336Y-0.8462
T2
X3.0207Y-1.7898
X3.0272Y-1.2346
X3.0272Y-1.3346
X3.0272Y-2.5596
X3.0272Y-2.6596
X3.3207Y-1.7898
X3.3272Y-1.2346
X3.3272Y-1.3346
X3.3272Y-2.5596
X3.3272Y-2.6596
X3.3772Y-2.7346
X3.3772Y-3.0346
T3
X3.0272Y-1.5988
X3.0772Y-1.5988
X3.1272Y-1.5988
X3.2495Y-1.5988
X3.2995Y-1.5988
X3.3495Y-1.5988
T4
X1.7731Y-2.8921
X1.8715Y-2.8921
X1.97Y-2.8921
X2.0684Y-2.8921
X2.8022Y-2.8946
X2.9007Y-2.8946
X2.9991Y-2.8946
X3.0975Y-2.8946
X3.7679Y-1.5612
X3.7679Y-1.6596
X3.7679Y-1.7581
X3.7772Y-2.0128
X3.7772Y-2.1112
X3.7772Y-2.2096
X3.7772Y-2.4612
X3.7772Y-2.5596
X3.7772Y-2.8112
X3.7772Y-2.9096
T5
X3.527Y-2.9596
X3.627Y-2.9596
T6
X1.6849Y-0.9134
X1.7833Y-0.9134
X1.8818Y-0.9134
X1.9802Y-0.9134
X2.0786Y-0.9134
X2.177Y-0.9134
X2.2755Y-0.9134
X2.3739Y-0.9134
X2.7733Y-0.9246
X2.8717Y-0.9246
X2.9701Y-0.9246
X3.0685Y-0.9246
X3.167Y-0.9246
X3.2654Y-0.9246
X3.3638Y-0.9246
X3.4622Y-0.9246
T7
X1.4424Y-1.4661
X1.4424Y-1.5661
X1.4424Y-1.6661
X1.5763Y-1.2551
X1.5763Y-1.3551
X1.5763Y-1.4551
X1.5763Y-1.5551
X1.5763Y-1.6551
X1.5763Y-1.7551
X1.5763Y-1.8551
X1.5763Y-1.9551
X1.5763Y-2.0551
X1.5763Y-2.1551
X1.5763Y-2.2551
X1.5763Y-2.3551
X1.5763Y-2.4551
X1.5763Y-2.5551
X1.5763Y-2.6551
X1.7294Y-1.2563
X1.7294Y-1.3563
X1.7294Y-1.4563
X1.7294Y-1.5563
X1.7294Y-1.6563
X1.7294Y-1.7563
X1.7294Y-1.8563
X1.7294Y-1.9563
X1.7294Y-2.0563
X1.7294Y-2.1563
X1.7294Y-2.2563
X1.7294Y-2.3563
X1.7294Y-2.4563
X1.7294Y-2.5563
X1.7294Y-2.6563
X2.3294Y-1.2563
X2.3294Y-1.3563
X2.3294Y-1.4563
X2.3294Y-1.5563
X2.3294Y-1.6563
X2.3294Y-1.7563
X2.3294Y-1.8563
X2.3294Y-1.9563
X2.3294Y-2.0563
X2.3294Y-2.1563
X2.3294Y-2.2563
X2.3294Y-2.3563
X2.3294Y-2.4563
X2.3294Y-2.5563
X2.3294Y-2.6563
X2.7522Y-1.2596
X2.7522Y-1.3596
X2.7522Y-1.4596
X2.7522Y-1.5596
X2.7522Y-1.6596
X2.7522Y-1.7596
X2.7522Y-1.8596
X2.7522Y-1.9596
X2.7522Y-2.0596
X2.7522Y-2.1596
X2.7522Y-2.2596
X2.7522Y-2.3596
X2.7522Y-2.4596
X2.7522Y-2.5596
X2.7522Y-2.6596
X2.8772Y-1.2596
X2.8772Y-1.3596
X2.8772Y-1.4596
X2.8772Y-1.5596
X2.8772Y-1.6596
X2.8772Y-1.7596
X2.8772Y-1.8596
X2.8772Y-1.9596
X2.8772Y-2.0596
X2.8772Y-2.1596
X2.8772Y-2.2596
X2.8772Y-2.3596
X2.8772Y-2.4596
X2.8772Y-2.5596
X2.8772Y-2.6596
X3.4772Y-1.2596
X3.4772Y-1.3596
X3.4772Y-1.4596
X3.4772Y-1.5596
X3.4772Y-1.6596
X3.4772Y-1.7596
X3.4772Y-1.8596
X3.4772Y-1.9596
X3.4772Y-2.0596
X3.4772Y-2.1596
X3.4772Y-2.2596
X3.4772Y-2.3596
X3.4772Y-2.4596
X3.4772Y-2.5596
X3.4772Y-2.6596
X3.6013Y-1.2596
X3.6013Y-1.3596
X3.6013Y-1.4596
X3.6013Y-1.5596
X3.6013Y-1.6596
X3.6013Y-1.7596
X3.6013Y-1.8596
X3.6013Y-1.9596
X3.6013Y-2.0596
X3.6013Y-2.1596
X3.6013Y-2.2596
X3.6013Y-2.3596
X3.6013Y-2.4596
X3.6013Y-2.5596
X3.6013Y-2.6596
T8
X1.0448Y-1.1677
X1.0448Y-1.3449
X1.0448Y-1.5043
X1.0448Y-1.6815
X1.0448Y-1.8409
X1.0448Y-2.0181
X1.3007Y-1.1677
X1.3007Y-1.3449
X1.3007Y-1.5043
X1.3007Y-1.6815
X1.3007Y-1.8409
X1.3007Y-2.0181
T9
X3.8315Y-1.1646
X3.8315Y-1.2646
X3.8315Y-1.3646
X3.9222Y-0.8946
X3.9222Y-0.9946
M30
