M48
; DRILL file {KiCad (6.0.4)} date Sat Nov 18 09:04:44 2023
; FORMAT={-:-/ absolute / inch / decimal}
; #@! TF.CreationDate,2023-11-18T09:04:44+09:00
; #@! TF.GenerationSoftware,Kicad,Pcbnew,(6.0.4)
; #@! TF.FileFunction,Plated,1,2,PTH
FMAT,2
INCH
; #@! TA.AperFunction,Plated,PTH,ComponentDrill
T1C0.0236
; #@! TA.AperFunction,Plated,PTH,ComponentDrill
T2C0.0276
; #@! TA.AperFunction,Plated,PTH,ComponentDrill
T3C0.0295
; #@! TA.AperFunction,Plated,PTH,ComponentDrill
T4C0.0335
; #@! TA.AperFunction,Plated,PTH,ComponentDrill
T5C0.0354
; #@! TA.AperFunction,Plated,PTH,ComponentDrill
T6C0.0374
; #@! TA.AperFunction,Plated,PTH,ComponentDrill
T7C0.0394
; #@! TA.AperFunction,Plated,PTH,ComponentDrill
T8C0.0469
%
G90
G05
T1
X2.4487Y-0.8084
X2.5313Y-0.6116
T2
X1.825Y-1.0
X1.825Y-1.1
X1.825Y-1.55
X1.825Y-1.85
X1.825Y-2.325
X1.825Y-2.425
X1.925Y-1.55
X1.925Y-1.85
X2.025Y-1.55
X2.025Y-1.85
X2.125Y-1.0
X2.125Y-1.1
X2.125Y-1.55
X2.125Y-1.85
X2.125Y-2.325
X2.125Y-2.425
X2.175Y-2.5
X2.175Y-2.8
T3
X1.825Y-1.3642
X1.875Y-1.3642
X1.925Y-1.3642
X2.05Y-1.3642
X2.1Y-1.3642
X2.15Y-1.3642
T4
X1.6Y-2.66
X1.6984Y-2.66
X1.7969Y-2.66
X1.8953Y-2.66
X2.5657Y-1.3266
X2.5657Y-1.425
X2.5657Y-1.5234
X2.575Y-1.7781
X2.575Y-1.8766
X2.575Y-1.975
X2.575Y-2.2266
X2.575Y-2.325
X2.575Y-2.5766
X2.575Y-2.675
T5
X2.3248Y-2.725
X2.4248Y-2.725
T6
X1.571Y-0.69
X1.6694Y-0.69
X1.7679Y-0.69
X1.8663Y-0.69
X1.9647Y-0.69
X2.0631Y-0.69
X2.1616Y-0.69
X2.26Y-0.69
T7
X1.55Y-1.025
X1.55Y-1.125
X1.55Y-1.225
X1.55Y-1.325
X1.55Y-1.425
X1.55Y-1.525
X1.55Y-1.625
X1.55Y-1.725
X1.55Y-1.825
X1.55Y-1.925
X1.55Y-2.025
X1.55Y-2.125
X1.55Y-2.225
X1.55Y-2.325
X1.55Y-2.425
X1.675Y-1.025
X1.675Y-1.125
X1.675Y-1.225
X1.675Y-1.325
X1.675Y-1.425
X1.675Y-1.525
X1.675Y-1.625
X1.675Y-1.725
X1.675Y-1.825
X1.675Y-1.925
X1.675Y-2.025
X1.675Y-2.125
X1.675Y-2.225
X1.675Y-2.325
X1.675Y-2.425
X1.92Y-2.06
X1.92Y-2.16
X2.275Y-1.025
X2.275Y-1.125
X2.275Y-1.225
X2.275Y-1.325
X2.275Y-1.425
X2.275Y-1.525
X2.275Y-1.625
X2.275Y-1.725
X2.275Y-1.825
X2.275Y-1.925
X2.275Y-2.025
X2.275Y-2.125
X2.275Y-2.225
X2.275Y-2.325
X2.275Y-2.425
X2.399Y-1.025
X2.399Y-1.125
X2.399Y-1.225
X2.399Y-1.325
X2.399Y-1.425
X2.399Y-1.525
X2.399Y-1.625
X2.399Y-1.725
X2.399Y-1.825
X2.399Y-1.925
X2.399Y-2.025
X2.399Y-2.125
X2.399Y-2.225
X2.399Y-2.325
X2.399Y-2.425
T8
X2.6292Y-0.93
X2.6292Y-1.03
X2.6292Y-1.13
X2.72Y-0.66
X2.72Y-0.76
T0
M30
