%TF.GenerationSoftware,KiCad,Pcbnew,(6.0.4)*%
%TF.CreationDate,2022-08-18T03:48:08+09:00*%
%TF.ProjectId,MultiMeter,4d756c74-694d-4657-9465-722e6b696361,rev?*%
%TF.SameCoordinates,Original*%
%TF.FileFunction,Legend,Bot*%
%TF.FilePolarity,Positive*%
%FSLAX46Y46*%
G04 Gerber Fmt 4.6, Leading zero omitted, Abs format (unit mm)*
G04 Created by KiCad (PCBNEW (6.0.4)) date 2022-08-18 03:48:08*
%MOMM*%
%LPD*%
G01*
G04 APERTURE LIST*
%ADD10C,0.150000*%
G04 APERTURE END LIST*
D10*
X75676904Y-28027380D02*
X75676904Y-28836904D01*
X75629285Y-28932142D01*
X75581666Y-28979761D01*
X75486428Y-29027380D01*
X75295952Y-29027380D01*
X75200714Y-28979761D01*
X75153095Y-28932142D01*
X75105476Y-28836904D01*
X75105476Y-28027380D01*
X74676904Y-28979761D02*
X74534047Y-29027380D01*
X74295952Y-29027380D01*
X74200714Y-28979761D01*
X74153095Y-28932142D01*
X74105476Y-28836904D01*
X74105476Y-28741666D01*
X74153095Y-28646428D01*
X74200714Y-28598809D01*
X74295952Y-28551190D01*
X74486428Y-28503571D01*
X74581666Y-28455952D01*
X74629285Y-28408333D01*
X74676904Y-28313095D01*
X74676904Y-28217857D01*
X74629285Y-28122619D01*
X74581666Y-28075000D01*
X74486428Y-28027380D01*
X74248333Y-28027380D01*
X74105476Y-28075000D01*
X73343571Y-28503571D02*
X73200714Y-28551190D01*
X73153095Y-28598809D01*
X73105476Y-28694047D01*
X73105476Y-28836904D01*
X73153095Y-28932142D01*
X73200714Y-28979761D01*
X73295952Y-29027380D01*
X73676904Y-29027380D01*
X73676904Y-28027380D01*
X73343571Y-28027380D01*
X73248333Y-28075000D01*
X73200714Y-28122619D01*
X73153095Y-28217857D01*
X73153095Y-28313095D01*
X73200714Y-28408333D01*
X73248333Y-28455952D01*
X73343571Y-28503571D01*
X73676904Y-28503571D01*
X89121666Y-66857619D02*
X89074047Y-66810000D01*
X88978809Y-66762380D01*
X88740714Y-66762380D01*
X88645476Y-66810000D01*
X88597857Y-66857619D01*
X88550238Y-66952857D01*
X88550238Y-67048095D01*
X88597857Y-67190952D01*
X89169285Y-67762380D01*
X88550238Y-67762380D01*
X87931190Y-66762380D02*
X87835952Y-66762380D01*
X87740714Y-66810000D01*
X87693095Y-66857619D01*
X87645476Y-66952857D01*
X87597857Y-67143333D01*
X87597857Y-67381428D01*
X87645476Y-67571904D01*
X87693095Y-67667142D01*
X87740714Y-67714761D01*
X87835952Y-67762380D01*
X87931190Y-67762380D01*
X88026428Y-67714761D01*
X88074047Y-67667142D01*
X88121666Y-67571904D01*
X88169285Y-67381428D01*
X88169285Y-67143333D01*
X88121666Y-66952857D01*
X88074047Y-66857619D01*
X88026428Y-66810000D01*
X87931190Y-66762380D01*
X87216904Y-66857619D02*
X87169285Y-66810000D01*
X87074047Y-66762380D01*
X86835952Y-66762380D01*
X86740714Y-66810000D01*
X86693095Y-66857619D01*
X86645476Y-66952857D01*
X86645476Y-67048095D01*
X86693095Y-67190952D01*
X87264523Y-67762380D01*
X86645476Y-67762380D01*
X86264523Y-66857619D02*
X86216904Y-66810000D01*
X86121666Y-66762380D01*
X85883571Y-66762380D01*
X85788333Y-66810000D01*
X85740714Y-66857619D01*
X85693095Y-66952857D01*
X85693095Y-67048095D01*
X85740714Y-67190952D01*
X86312142Y-67762380D01*
X85693095Y-67762380D01*
X84550238Y-66714761D02*
X85407380Y-68000476D01*
X84026428Y-66762380D02*
X83931190Y-66762380D01*
X83835952Y-66810000D01*
X83788333Y-66857619D01*
X83740714Y-66952857D01*
X83693095Y-67143333D01*
X83693095Y-67381428D01*
X83740714Y-67571904D01*
X83788333Y-67667142D01*
X83835952Y-67714761D01*
X83931190Y-67762380D01*
X84026428Y-67762380D01*
X84121666Y-67714761D01*
X84169285Y-67667142D01*
X84216904Y-67571904D01*
X84264523Y-67381428D01*
X84264523Y-67143333D01*
X84216904Y-66952857D01*
X84169285Y-66857619D01*
X84121666Y-66810000D01*
X84026428Y-66762380D01*
X83121666Y-67190952D02*
X83216904Y-67143333D01*
X83264523Y-67095714D01*
X83312142Y-67000476D01*
X83312142Y-66952857D01*
X83264523Y-66857619D01*
X83216904Y-66810000D01*
X83121666Y-66762380D01*
X82931190Y-66762380D01*
X82835952Y-66810000D01*
X82788333Y-66857619D01*
X82740714Y-66952857D01*
X82740714Y-67000476D01*
X82788333Y-67095714D01*
X82835952Y-67143333D01*
X82931190Y-67190952D01*
X83121666Y-67190952D01*
X83216904Y-67238571D01*
X83264523Y-67286190D01*
X83312142Y-67381428D01*
X83312142Y-67571904D01*
X83264523Y-67667142D01*
X83216904Y-67714761D01*
X83121666Y-67762380D01*
X82931190Y-67762380D01*
X82835952Y-67714761D01*
X82788333Y-67667142D01*
X82740714Y-67571904D01*
X82740714Y-67381428D01*
X82788333Y-67286190D01*
X82835952Y-67238571D01*
X82931190Y-67190952D01*
X81597857Y-66714761D02*
X82455000Y-68000476D01*
X80740714Y-67762380D02*
X81312142Y-67762380D01*
X81026428Y-67762380D02*
X81026428Y-66762380D01*
X81121666Y-66905238D01*
X81216904Y-67000476D01*
X81312142Y-67048095D01*
X80169285Y-67190952D02*
X80264523Y-67143333D01*
X80312142Y-67095714D01*
X80359761Y-67000476D01*
X80359761Y-66952857D01*
X80312142Y-66857619D01*
X80264523Y-66810000D01*
X80169285Y-66762380D01*
X79978809Y-66762380D01*
X79883571Y-66810000D01*
X79835952Y-66857619D01*
X79788333Y-66952857D01*
X79788333Y-67000476D01*
X79835952Y-67095714D01*
X79883571Y-67143333D01*
X79978809Y-67190952D01*
X80169285Y-67190952D01*
X80264523Y-67238571D01*
X80312142Y-67286190D01*
X80359761Y-67381428D01*
X80359761Y-67571904D01*
X80312142Y-67667142D01*
X80264523Y-67714761D01*
X80169285Y-67762380D01*
X79978809Y-67762380D01*
X79883571Y-67714761D01*
X79835952Y-67667142D01*
X79788333Y-67571904D01*
X79788333Y-67381428D01*
X79835952Y-67286190D01*
X79883571Y-67238571D01*
X79978809Y-67190952D01*
M02*
