%TF.GenerationSoftware,KiCad,Pcbnew,(6.0.4)*%
%TF.CreationDate,2022-09-13T00:35:04+09:00*%
%TF.ProjectId,MultiMeter,4d756c74-694d-4657-9465-722e6b696361,rev?*%
%TF.SameCoordinates,Original*%
%TF.FileFunction,Soldermask,Bot*%
%TF.FilePolarity,Negative*%
%FSLAX46Y46*%
G04 Gerber Fmt 4.6, Leading zero omitted, Abs format (unit mm)*
G04 Created by KiCad (PCBNEW (6.0.4)) date 2022-09-13 00:35:04*
%MOMM*%
%LPD*%
G01*
G04 APERTURE LIST*
G04 Aperture macros list*
%AMRoundRect*
0 Rectangle with rounded corners*
0 $1 Rounding radius*
0 $2 $3 $4 $5 $6 $7 $8 $9 X,Y pos of 4 corners*
0 Add a 4 corners polygon primitive as box body*
4,1,4,$2,$3,$4,$5,$6,$7,$8,$9,$2,$3,0*
0 Add four circle primitives for the rounded corners*
1,1,$1+$1,$2,$3*
1,1,$1+$1,$4,$5*
1,1,$1+$1,$6,$7*
1,1,$1+$1,$8,$9*
0 Add four rect primitives between the rounded corners*
20,1,$1+$1,$2,$3,$4,$5,0*
20,1,$1+$1,$4,$5,$6,$7,0*
20,1,$1+$1,$6,$7,$8,$9,0*
20,1,$1+$1,$8,$9,$2,$3,0*%
G04 Aperture macros list end*
%ADD10R,1.600000X1.600000*%
%ADD11O,1.600000X1.600000*%
%ADD12C,1.400000*%
%ADD13RoundRect,0.250000X-0.675000X0.600000X-0.675000X-0.600000X0.675000X-0.600000X0.675000X0.600000X0*%
%ADD14O,1.850000X1.700000*%
%ADD15O,1.400000X1.400000*%
%ADD16RoundRect,0.250000X-0.845000X0.620000X-0.845000X-0.620000X0.845000X-0.620000X0.845000X0.620000X0*%
%ADD17O,2.190000X1.740000*%
G04 APERTURE END LIST*
D10*
%TO.C,A1*%
X42545000Y-26035000D03*
D11*
X42545000Y-28575000D03*
X42545000Y-31115000D03*
X42545000Y-33655000D03*
X42545000Y-36195000D03*
X42545000Y-38735000D03*
X42545000Y-41275000D03*
X42545000Y-43815000D03*
X42545000Y-46355000D03*
X42545000Y-48895000D03*
X42545000Y-51435000D03*
X42545000Y-53975000D03*
X42545000Y-56515000D03*
X42545000Y-59055000D03*
X42545000Y-61595000D03*
X57785000Y-61595000D03*
X57785000Y-59055000D03*
X57785000Y-56515000D03*
X57785000Y-53975000D03*
X57785000Y-51435000D03*
X57785000Y-48895000D03*
X57785000Y-46355000D03*
X57785000Y-43815000D03*
X57785000Y-41275000D03*
X57785000Y-38735000D03*
X57785000Y-36195000D03*
X57785000Y-33655000D03*
X57785000Y-31115000D03*
X57785000Y-28575000D03*
X57785000Y-26035000D03*
%TD*%
D10*
%TO.C,D1*%
X48895000Y-48895000D03*
D11*
X48895000Y-41275000D03*
%TD*%
D12*
%TO.C,C2*%
X52090000Y-55245000D03*
X54590000Y-55245000D03*
%TD*%
D10*
%TO.C,D3*%
X53340000Y-48895000D03*
D11*
X53340000Y-41275000D03*
%TD*%
D13*
%TO.C,J2*%
X64432500Y-56515000D03*
D14*
X64432500Y-59015000D03*
%TD*%
D12*
%TO.C,C1*%
X45740000Y-55245000D03*
X48240000Y-55245000D03*
%TD*%
%TO.C,R4*%
X46355000Y-27940000D03*
D15*
X53975000Y-27940000D03*
%TD*%
D16*
%TO.C,J5*%
X64750000Y-26035000D03*
D17*
X64750000Y-28575000D03*
%TD*%
D13*
%TO.C,J3*%
X64432500Y-45092500D03*
D14*
X64432500Y-47592500D03*
X64432500Y-50092500D03*
%TD*%
D13*
%TO.C,J1*%
X64432500Y-65405000D03*
D14*
X64432500Y-67905000D03*
%TD*%
D13*
%TO.C,J4*%
X64412500Y-33655000D03*
D14*
X64412500Y-36155000D03*
X64412500Y-38655000D03*
%TD*%
D12*
%TO.C,R2*%
X53975000Y-59055000D03*
D15*
X46355000Y-59055000D03*
%TD*%
D10*
%TO.C,D4*%
X53340000Y-38100000D03*
D11*
X53340000Y-30480000D03*
%TD*%
D12*
%TO.C,R3*%
X46355000Y-25400000D03*
D15*
X53975000Y-25400000D03*
%TD*%
D12*
%TO.C,R1*%
X53975000Y-61595000D03*
D15*
X46355000Y-61595000D03*
%TD*%
D10*
%TO.C,D2*%
X48895000Y-38100000D03*
D11*
X48895000Y-30480000D03*
%TD*%
M02*
