%TF.GenerationSoftware,KiCad,Pcbnew,(6.0.4)*%
%TF.CreationDate,2023-06-21T10:24:11+09:00*%
%TF.ProjectId,MultiMeter,4d756c74-694d-4657-9465-722e6b696361,rev?*%
%TF.SameCoordinates,Original*%
%TF.FileFunction,Legend,Bot*%
%TF.FilePolarity,Positive*%
%FSLAX46Y46*%
G04 Gerber Fmt 4.6, Leading zero omitted, Abs format (unit mm)*
G04 Created by KiCad (PCBNEW (6.0.4)) date 2023-06-21 10:24:11*
%MOMM*%
%LPD*%
G01*
G04 APERTURE LIST*
%ADD10C,0.300000*%
%ADD11C,0.150000*%
G04 APERTURE END LIST*
D10*
X71941428Y-69532142D02*
X70441428Y-69175000D01*
X71512857Y-68889285D01*
X70441428Y-68603571D01*
X71941428Y-68246428D01*
X70441428Y-67032142D02*
X71227142Y-67032142D01*
X71370000Y-67103571D01*
X71441428Y-67246428D01*
X71441428Y-67532142D01*
X71370000Y-67675000D01*
X70512857Y-67032142D02*
X70441428Y-67175000D01*
X70441428Y-67532142D01*
X70512857Y-67675000D01*
X70655714Y-67746428D01*
X70798571Y-67746428D01*
X70941428Y-67675000D01*
X71012857Y-67532142D01*
X71012857Y-67175000D01*
X71084285Y-67032142D01*
X71441428Y-66532142D02*
X71441428Y-65960714D01*
X71941428Y-66317857D02*
X70655714Y-66317857D01*
X70512857Y-66246428D01*
X70441428Y-66103571D01*
X70441428Y-65960714D01*
X70512857Y-64889285D02*
X70441428Y-65032142D01*
X70441428Y-65317857D01*
X70512857Y-65460714D01*
X70655714Y-65532142D01*
X71227142Y-65532142D01*
X71370000Y-65460714D01*
X71441428Y-65317857D01*
X71441428Y-65032142D01*
X71370000Y-64889285D01*
X71227142Y-64817857D01*
X71084285Y-64817857D01*
X70941428Y-65532142D01*
X70441428Y-64175000D02*
X71441428Y-64175000D01*
X71155714Y-64175000D02*
X71298571Y-64103571D01*
X71370000Y-64032142D01*
X71441428Y-63889285D01*
X71441428Y-63746428D01*
X71227142Y-38480714D02*
X71155714Y-38266428D01*
X71084285Y-38195000D01*
X70941428Y-38123571D01*
X70727142Y-38123571D01*
X70584285Y-38195000D01*
X70512857Y-38266428D01*
X70441428Y-38409285D01*
X70441428Y-38980714D01*
X71941428Y-38980714D01*
X71941428Y-38480714D01*
X71870000Y-38337857D01*
X71798571Y-38266428D01*
X71655714Y-38195000D01*
X71512857Y-38195000D01*
X71370000Y-38266428D01*
X71298571Y-38337857D01*
X71227142Y-38480714D01*
X71227142Y-38980714D01*
X70441428Y-37266428D02*
X70512857Y-37409285D01*
X70584285Y-37480714D01*
X70727142Y-37552142D01*
X71155714Y-37552142D01*
X71298571Y-37480714D01*
X71370000Y-37409285D01*
X71441428Y-37266428D01*
X71441428Y-37052142D01*
X71370000Y-36909285D01*
X71298571Y-36837857D01*
X71155714Y-36766428D01*
X70727142Y-36766428D01*
X70584285Y-36837857D01*
X70512857Y-36909285D01*
X70441428Y-37052142D01*
X70441428Y-37266428D01*
X70441428Y-35909285D02*
X70512857Y-36052142D01*
X70584285Y-36123571D01*
X70727142Y-36195000D01*
X71155714Y-36195000D01*
X71298571Y-36123571D01*
X71370000Y-36052142D01*
X71441428Y-35909285D01*
X71441428Y-35695000D01*
X71370000Y-35552142D01*
X71298571Y-35480714D01*
X71155714Y-35409285D01*
X70727142Y-35409285D01*
X70584285Y-35480714D01*
X70512857Y-35552142D01*
X70441428Y-35695000D01*
X70441428Y-35909285D01*
X70512857Y-34837857D02*
X70441428Y-34695000D01*
X70441428Y-34409285D01*
X70512857Y-34266428D01*
X70655714Y-34194999D01*
X70727142Y-34194999D01*
X70870000Y-34266428D01*
X70941428Y-34409285D01*
X70941428Y-34623571D01*
X71012857Y-34766428D01*
X71155714Y-34837857D01*
X71227142Y-34837857D01*
X71370000Y-34766428D01*
X71441428Y-34623571D01*
X71441428Y-34409285D01*
X71370000Y-34266428D01*
X71441428Y-33766428D02*
X71441428Y-33194999D01*
X71941428Y-33552142D02*
X70655714Y-33552142D01*
X70512857Y-33480714D01*
X70441428Y-33337857D01*
X70441428Y-33194999D01*
X70512857Y-30197857D02*
X70441428Y-29983571D01*
X70441428Y-29626428D01*
X70512857Y-29483571D01*
X70584285Y-29412142D01*
X70727142Y-29340714D01*
X70870000Y-29340714D01*
X71012857Y-29412142D01*
X71084285Y-29483571D01*
X71155714Y-29626428D01*
X71227142Y-29912142D01*
X71298571Y-30055000D01*
X71370000Y-30126428D01*
X71512857Y-30197857D01*
X71655714Y-30197857D01*
X71798571Y-30126428D01*
X71870000Y-30055000D01*
X71941428Y-29912142D01*
X71941428Y-29555000D01*
X71870000Y-29340714D01*
X71441428Y-28697857D02*
X69941428Y-28697857D01*
X71370000Y-28697857D02*
X71441428Y-28555000D01*
X71441428Y-28269285D01*
X71370000Y-28126428D01*
X71298571Y-28055000D01*
X71155714Y-27983571D01*
X70727142Y-27983571D01*
X70584285Y-28055000D01*
X70512857Y-28126428D01*
X70441428Y-28269285D01*
X70441428Y-28555000D01*
X70512857Y-28697857D01*
X71941428Y-26412142D02*
X71941428Y-25555000D01*
X70441428Y-25983571D02*
X71941428Y-25983571D01*
X70512857Y-24412142D02*
X70441428Y-24555000D01*
X70441428Y-24840714D01*
X70512857Y-24983571D01*
X70584285Y-25055000D01*
X70727142Y-25126428D01*
X71155714Y-25126428D01*
X71298571Y-25055000D01*
X71370000Y-24983571D01*
X71441428Y-24840714D01*
X71441428Y-24555000D01*
X71370000Y-24412142D01*
X71941428Y-59606428D02*
X71941428Y-59320714D01*
X71870000Y-59177857D01*
X71727142Y-59035000D01*
X71441428Y-58963571D01*
X70941428Y-58963571D01*
X70655714Y-59035000D01*
X70512857Y-59177857D01*
X70441428Y-59320714D01*
X70441428Y-59606428D01*
X70512857Y-59749285D01*
X70655714Y-59892142D01*
X70941428Y-59963571D01*
X71441428Y-59963571D01*
X71727142Y-59892142D01*
X71870000Y-59749285D01*
X71941428Y-59606428D01*
X70441428Y-58320714D02*
X71441428Y-58320714D01*
X71941428Y-58320714D02*
X71870000Y-58392142D01*
X71798571Y-58320714D01*
X71870000Y-58249285D01*
X71941428Y-58320714D01*
X71798571Y-58320714D01*
X70441428Y-57392142D02*
X70512857Y-57535000D01*
X70655714Y-57606428D01*
X71941428Y-57606428D01*
X70584285Y-56820714D02*
X70512857Y-56749285D01*
X70441428Y-56820714D01*
X70512857Y-56892142D01*
X70584285Y-56820714D01*
X70441428Y-56820714D01*
X71941428Y-56320714D02*
X71941428Y-55463571D01*
X70441428Y-55892142D02*
X71941428Y-55892142D01*
X71941428Y-49625000D02*
X71941428Y-49339285D01*
X71870000Y-49196428D01*
X71727142Y-49053571D01*
X71441428Y-48982142D01*
X70941428Y-48982142D01*
X70655714Y-49053571D01*
X70512857Y-49196428D01*
X70441428Y-49339285D01*
X70441428Y-49625000D01*
X70512857Y-49767857D01*
X70655714Y-49910714D01*
X70941428Y-49982142D01*
X71441428Y-49982142D01*
X71727142Y-49910714D01*
X71870000Y-49767857D01*
X71941428Y-49625000D01*
X70441428Y-48339285D02*
X71441428Y-48339285D01*
X71941428Y-48339285D02*
X71870000Y-48410714D01*
X71798571Y-48339285D01*
X71870000Y-48267857D01*
X71941428Y-48339285D01*
X71798571Y-48339285D01*
X70441428Y-47410714D02*
X70512857Y-47553571D01*
X70655714Y-47625000D01*
X71941428Y-47625000D01*
X70584285Y-46839285D02*
X70512857Y-46767857D01*
X70441428Y-46839285D01*
X70512857Y-46910714D01*
X70584285Y-46839285D01*
X70441428Y-46839285D01*
X70441428Y-46125000D02*
X71941428Y-46125000D01*
X71941428Y-45553571D01*
X71870000Y-45410714D01*
X71798571Y-45339285D01*
X71655714Y-45267857D01*
X71441428Y-45267857D01*
X71298571Y-45339285D01*
X71227142Y-45410714D01*
X71155714Y-45553571D01*
X71155714Y-46125000D01*
D11*
X50386666Y-70667619D02*
X50339047Y-70620000D01*
X50243809Y-70572380D01*
X50005714Y-70572380D01*
X49910476Y-70620000D01*
X49862857Y-70667619D01*
X49815238Y-70762857D01*
X49815238Y-70858095D01*
X49862857Y-71000952D01*
X50434285Y-71572380D01*
X49815238Y-71572380D01*
X49196190Y-70572380D02*
X49100952Y-70572380D01*
X49005714Y-70620000D01*
X48958095Y-70667619D01*
X48910476Y-70762857D01*
X48862857Y-70953333D01*
X48862857Y-71191428D01*
X48910476Y-71381904D01*
X48958095Y-71477142D01*
X49005714Y-71524761D01*
X49100952Y-71572380D01*
X49196190Y-71572380D01*
X49291428Y-71524761D01*
X49339047Y-71477142D01*
X49386666Y-71381904D01*
X49434285Y-71191428D01*
X49434285Y-70953333D01*
X49386666Y-70762857D01*
X49339047Y-70667619D01*
X49291428Y-70620000D01*
X49196190Y-70572380D01*
X48481904Y-70667619D02*
X48434285Y-70620000D01*
X48339047Y-70572380D01*
X48100952Y-70572380D01*
X48005714Y-70620000D01*
X47958095Y-70667619D01*
X47910476Y-70762857D01*
X47910476Y-70858095D01*
X47958095Y-71000952D01*
X48529523Y-71572380D01*
X47910476Y-71572380D01*
X47529523Y-70667619D02*
X47481904Y-70620000D01*
X47386666Y-70572380D01*
X47148571Y-70572380D01*
X47053333Y-70620000D01*
X47005714Y-70667619D01*
X46958095Y-70762857D01*
X46958095Y-70858095D01*
X47005714Y-71000952D01*
X47577142Y-71572380D01*
X46958095Y-71572380D01*
X45815238Y-70524761D02*
X46672380Y-71810476D01*
X45291428Y-70572380D02*
X45196190Y-70572380D01*
X45100952Y-70620000D01*
X45053333Y-70667619D01*
X45005714Y-70762857D01*
X44958095Y-70953333D01*
X44958095Y-71191428D01*
X45005714Y-71381904D01*
X45053333Y-71477142D01*
X45100952Y-71524761D01*
X45196190Y-71572380D01*
X45291428Y-71572380D01*
X45386666Y-71524761D01*
X45434285Y-71477142D01*
X45481904Y-71381904D01*
X45529523Y-71191428D01*
X45529523Y-70953333D01*
X45481904Y-70762857D01*
X45434285Y-70667619D01*
X45386666Y-70620000D01*
X45291428Y-70572380D01*
X44481904Y-71572380D02*
X44291428Y-71572380D01*
X44196190Y-71524761D01*
X44148571Y-71477142D01*
X44053333Y-71334285D01*
X44005714Y-71143809D01*
X44005714Y-70762857D01*
X44053333Y-70667619D01*
X44100952Y-70620000D01*
X44196190Y-70572380D01*
X44386666Y-70572380D01*
X44481904Y-70620000D01*
X44529523Y-70667619D01*
X44577142Y-70762857D01*
X44577142Y-71000952D01*
X44529523Y-71096190D01*
X44481904Y-71143809D01*
X44386666Y-71191428D01*
X44196190Y-71191428D01*
X44100952Y-71143809D01*
X44053333Y-71096190D01*
X44005714Y-71000952D01*
X42862857Y-70524761D02*
X43720000Y-71810476D01*
X42005714Y-71572380D02*
X42577142Y-71572380D01*
X42291428Y-71572380D02*
X42291428Y-70572380D01*
X42386666Y-70715238D01*
X42481904Y-70810476D01*
X42577142Y-70858095D01*
X41672380Y-70572380D02*
X41053333Y-70572380D01*
X41386666Y-70953333D01*
X41243809Y-70953333D01*
X41148571Y-71000952D01*
X41100952Y-71048571D01*
X41053333Y-71143809D01*
X41053333Y-71381904D01*
X41100952Y-71477142D01*
X41148571Y-71524761D01*
X41243809Y-71572380D01*
X41529523Y-71572380D01*
X41624761Y-71524761D01*
X41672380Y-71477142D01*
M02*
