M48
; DRILL file {KiCad (6.0.4)} date Thu Aug 18 03:47:55 2022
; FORMAT={-:-/ absolute / inch / decimal}
; #@! TF.CreationDate,2022-08-18T03:47:55+09:00
; #@! TF.GenerationSoftware,Kicad,Pcbnew,(6.0.4)
; #@! TF.FileFunction,Plated,1,2,PTH
FMAT,2
INCH
; #@! TA.AperFunction,Plated,PTH,ComponentDrill
T1C0.0276
; #@! TA.AperFunction,Plated,PTH,ComponentDrill
T2C0.0315
; #@! TA.AperFunction,Plated,PTH,ComponentDrill
T3C0.0394
; #@! TA.AperFunction,Plated,PTH,ComponentDrill
T4C0.0472
%
G90
G05
T1
X2.9758Y-1.2
X2.9766Y-2.625
X3.0742Y-1.2
X3.075Y-2.625
T2
X2.8Y-1.375
X2.8Y-1.775
X2.8Y-1.9
X2.8Y-2.3
X3.4Y-1.3
X3.4Y-1.7
X3.4Y-2.025
X3.4Y-2.425
T3
X2.475Y-1.4006
X2.475Y-1.5006
X2.475Y-1.6758
X2.475Y-1.7758
X2.475Y-1.95
X2.475Y-2.05
X2.475Y-2.15
X2.475Y-2.325
X2.475Y-2.425
X2.475Y-2.525
X2.65Y-1.15
X2.65Y-1.25
X2.65Y-1.35
X2.65Y-1.45
X2.65Y-1.55
X2.65Y-1.65
X2.65Y-1.75
X2.65Y-1.85
X2.65Y-1.95
X2.65Y-2.05
X2.65Y-2.15
X2.65Y-2.25
X2.65Y-2.35
X2.65Y-2.45
X2.65Y-2.55
X2.95Y-1.375
X2.95Y-1.775
X2.95Y-2.0
X2.95Y-2.4
X3.1Y-1.375
X3.1Y-1.775
X3.1Y-2.0
X3.1Y-2.4
X3.25Y-1.15
X3.25Y-1.25
X3.25Y-1.35
X3.25Y-1.45
X3.25Y-1.55
X3.25Y-1.65
X3.25Y-1.75
X3.25Y-1.85
X3.25Y-1.95
X3.25Y-2.05
X3.25Y-2.15
X3.25Y-2.25
X3.25Y-2.35
X3.25Y-2.45
X3.25Y-2.55
T4
X3.4Y-1.825
X3.4Y-2.55
T0
M30
