M48
; DRILL file {KiCad (6.0.4)} date Tue Sep 13 00:35:09 2022
; FORMAT={-:-/ absolute / inch / decimal}
; #@! TF.CreationDate,2022-09-13T00:35:09+09:00
; #@! TF.GenerationSoftware,Kicad,Pcbnew,(6.0.4)
; #@! TF.FileFunction,Plated,1,2,PTH
FMAT,2
INCH
; #@! TA.AperFunction,Plated,PTH,ComponentDrill
T1C0.0276
; #@! TA.AperFunction,Plated,PTH,ComponentDrill
T2C0.0315
; #@! TA.AperFunction,Plated,PTH,ComponentDrill
T3C0.0335
; #@! TA.AperFunction,Plated,PTH,ComponentDrill
T4C0.0394
; #@! TA.AperFunction,Plated,PTH,ComponentDrill
T5C0.0469
%
G90
G05
T1
X1.8008Y-2.175
X1.825Y-1.0
X1.825Y-1.1
X1.825Y-2.325
X1.825Y-2.425
X1.8992Y-2.175
X2.0508Y-2.175
X2.125Y-1.0
X2.125Y-1.1
X2.125Y-2.325
X2.125Y-2.425
X2.1492Y-2.175
T2
X1.925Y-1.2
X1.925Y-1.5
X1.925Y-1.625
X1.925Y-1.925
X2.1Y-1.2
X2.1Y-1.5
X2.1Y-1.625
X2.1Y-1.925
T3
X2.5359Y-1.325
X2.5359Y-1.4234
X2.5359Y-1.5219
X2.5367Y-1.7753
X2.5367Y-1.8737
X2.5367Y-1.9721
X2.5367Y-2.225
X2.5367Y-2.3234
X2.5367Y-2.575
X2.5367Y-2.6734
T4
X1.675Y-1.025
X1.675Y-1.125
X1.675Y-1.225
X1.675Y-1.325
X1.675Y-1.425
X1.675Y-1.525
X1.675Y-1.625
X1.675Y-1.725
X1.675Y-1.825
X1.675Y-1.925
X1.675Y-2.025
X1.675Y-2.125
X1.675Y-2.225
X1.675Y-2.325
X1.675Y-2.425
X2.275Y-1.025
X2.275Y-1.125
X2.275Y-1.225
X2.275Y-1.325
X2.275Y-1.425
X2.275Y-1.525
X2.275Y-1.625
X2.275Y-1.725
X2.275Y-1.825
X2.275Y-1.925
X2.275Y-2.025
X2.275Y-2.125
X2.275Y-2.225
X2.275Y-2.325
X2.275Y-2.425
T5
X2.5492Y-1.025
X2.5492Y-1.125
T0
M30
