%TF.GenerationSoftware,KiCad,Pcbnew,8.0.0*%
%TF.CreationDate,2024-03-16T12:10:51+09:00*%
%TF.ProjectId,MultiMeter,4d756c74-694d-4657-9465-722e6b696361,rev?*%
%TF.SameCoordinates,Original*%
%TF.FileFunction,Copper,L1,Top*%
%TF.FilePolarity,Positive*%
%FSLAX46Y46*%
G04 Gerber Fmt 4.6, Leading zero omitted, Abs format (unit mm)*
G04 Created by KiCad (PCBNEW 8.0.0) date 2024-03-16 12:10:51*
%MOMM*%
%LPD*%
G01*
G04 APERTURE LIST*
G04 Aperture macros list*
%AMRoundRect*
0 Rectangle with rounded corners*
0 $1 Rounding radius*
0 $2 $3 $4 $5 $6 $7 $8 $9 X,Y pos of 4 corners*
0 Add a 4 corners polygon primitive as box body*
4,1,4,$2,$3,$4,$5,$6,$7,$8,$9,$2,$3,0*
0 Add four circle primitives for the rounded corners*
1,1,$1+$1,$2,$3*
1,1,$1+$1,$4,$5*
1,1,$1+$1,$6,$7*
1,1,$1+$1,$8,$9*
0 Add four rect primitives between the rounded corners*
20,1,$1+$1,$2,$3,$4,$5,0*
20,1,$1+$1,$4,$5,$6,$7,0*
20,1,$1+$1,$6,$7,$8,$9,0*
20,1,$1+$1,$8,$9,$2,$3,0*%
G04 Aperture macros list end*
%TA.AperFunction,ComponentPad*%
%ADD10R,1.600000X1.600000*%
%TD*%
%TA.AperFunction,ComponentPad*%
%ADD11O,1.600000X1.600000*%
%TD*%
%TA.AperFunction,ComponentPad*%
%ADD12C,1.400000*%
%TD*%
%TA.AperFunction,ComponentPad*%
%ADD13O,1.400000X1.400000*%
%TD*%
%TA.AperFunction,ComponentPad*%
%ADD14C,2.000000*%
%TD*%
%TA.AperFunction,ComponentPad*%
%ADD15C,1.600000*%
%TD*%
%TA.AperFunction,ComponentPad*%
%ADD16RoundRect,0.250000X0.600000X0.725000X-0.600000X0.725000X-0.600000X-0.725000X0.600000X-0.725000X0*%
%TD*%
%TA.AperFunction,ComponentPad*%
%ADD17O,1.700000X1.950000*%
%TD*%
%TA.AperFunction,ComponentPad*%
%ADD18R,1.700000X1.700000*%
%TD*%
%TA.AperFunction,ComponentPad*%
%ADD19O,1.700000X1.700000*%
%TD*%
%TA.AperFunction,ComponentPad*%
%ADD20R,1.800000X1.800000*%
%TD*%
%TA.AperFunction,ComponentPad*%
%ADD21C,1.800000*%
%TD*%
%TA.AperFunction,ComponentPad*%
%ADD22RoundRect,0.250000X-0.845000X0.620000X-0.845000X-0.620000X0.845000X-0.620000X0.845000X0.620000X0*%
%TD*%
%TA.AperFunction,ComponentPad*%
%ADD23O,2.190000X1.740000*%
%TD*%
%TA.AperFunction,ComponentPad*%
%ADD24RoundRect,0.250000X0.675000X-0.600000X0.675000X0.600000X-0.675000X0.600000X-0.675000X-0.600000X0*%
%TD*%
%TA.AperFunction,ComponentPad*%
%ADD25O,1.850000X1.700000*%
%TD*%
%TA.AperFunction,ComponentPad*%
%ADD26RoundRect,0.250000X-0.600000X-0.675000X0.600000X-0.675000X0.600000X0.675000X-0.600000X0.675000X0*%
%TD*%
%TA.AperFunction,ComponentPad*%
%ADD27O,1.700000X1.850000*%
%TD*%
%TA.AperFunction,ComponentPad*%
%ADD28R,1.050000X1.500000*%
%TD*%
%TA.AperFunction,ComponentPad*%
%ADD29O,1.050000X1.500000*%
%TD*%
%TA.AperFunction,Conductor*%
%ADD30C,0.250000*%
%TD*%
G04 APERTURE END LIST*
D10*
%TO.P,A1,1,D1/TX*%
%TO.N,Net-(A1-D1{slash}TX)*%
X73081980Y-31995000D03*
D11*
%TO.P,A1,2,D0/RX*%
%TO.N,Net-(A1-D0{slash}RX)*%
X73081980Y-34535000D03*
%TO.P,A1,3,~{RESET}*%
%TO.N,Net-(J6-Pin_3)*%
X73081980Y-37075000D03*
%TO.P,A1,4,GND*%
%TO.N,+5V*%
X73081980Y-39615000D03*
%TO.P,A1,5,D2*%
%TO.N,Net-(A1-D2)*%
X73081980Y-42155000D03*
%TO.P,A1,6,D3*%
%TO.N,Net-(A1-D3)*%
X73081980Y-44695000D03*
%TO.P,A1,7,D4*%
%TO.N,Net-(A1-D4)*%
X73081980Y-47235000D03*
%TO.P,A1,8,D5*%
%TO.N,Net-(A1-D5)*%
X73081980Y-49775000D03*
%TO.P,A1,9,D6*%
%TO.N,Net-(A1-D6)*%
X73081980Y-52315000D03*
%TO.P,A1,10,D7*%
%TO.N,Net-(A1-D7)*%
X73081980Y-54855000D03*
%TO.P,A1,11,D8*%
%TO.N,Net-(A1-D8)*%
X73081980Y-57395000D03*
%TO.P,A1,12,D9*%
%TO.N,Net-(A1-D9)*%
X73081980Y-59935000D03*
%TO.P,A1,13,D10*%
%TO.N,Net-(A1-D10)*%
X73081980Y-62475000D03*
%TO.P,A1,14,D11*%
%TO.N,Net-(A1-D11)*%
X73081980Y-65015000D03*
%TO.P,A1,15,D12*%
%TO.N,Net-(A1-D12)*%
X73081980Y-67555000D03*
%TO.P,A1,16,D13*%
%TO.N,Net-(A1-D13)*%
X88321980Y-67555000D03*
%TO.P,A1,17,3V3*%
%TO.N,Net-(A1-3V3)*%
X88321980Y-65015000D03*
%TO.P,A1,18,AREF*%
%TO.N,Net-(A1-AREF)*%
X88321980Y-62475000D03*
%TO.P,A1,19,A0*%
%TO.N,Net-(A1-A0)*%
X88321980Y-59935000D03*
%TO.P,A1,20,A1*%
%TO.N,Net-(A1-A1)*%
X88321980Y-57395000D03*
%TO.P,A1,21,A2*%
%TO.N,Net-(A1-A2)*%
X88321980Y-54855000D03*
%TO.P,A1,22,A3*%
%TO.N,Net-(A1-A3)*%
X88321980Y-52315000D03*
%TO.P,A1,23,A4*%
%TO.N,Net-(A1-A4)*%
X88321980Y-49775000D03*
%TO.P,A1,24,A5*%
%TO.N,Net-(A1-A5)*%
X88321980Y-47235000D03*
%TO.P,A1,25,A6*%
%TO.N,Net-(A1-A6)*%
X88321980Y-44695000D03*
%TO.P,A1,26,A7*%
%TO.N,Net-(A1-A7)*%
X88321980Y-42155000D03*
%TO.P,A1,27,+5V*%
%TO.N,+5V*%
X88321980Y-39615000D03*
%TO.P,A1,28,~{RESET}*%
%TO.N,Net-(J7-Pin_13)*%
X88321980Y-37075000D03*
%TO.P,A1,29,GND*%
%TO.N,+5V*%
X88321980Y-34535000D03*
%TO.P,A1,30,VIN*%
%TO.N,+12V*%
X88321980Y-31995000D03*
%TD*%
D12*
%TO.P,R6,1*%
%TO.N,Net-(Q1-C)*%
X76726980Y-45460000D03*
D13*
%TO.P,R6,2*%
%TO.N,+5V*%
X84346980Y-45460000D03*
%TD*%
D14*
%TO.P,SW3,1,1*%
%TO.N,+5V*%
X26536980Y-46760000D03*
X33036980Y-46760000D03*
%TO.P,SW3,2,2*%
%TO.N,Net-(J14-Pin_3)*%
X26536980Y-51260000D03*
X33036980Y-51260000D03*
%TD*%
D15*
%TO.P,RV1,1*%
%TO.N,+12V*%
X94832980Y-21494000D03*
%TO.P,RV1,2*%
%TO.N,+5V*%
X92732980Y-26494000D03*
%TD*%
D16*
%TO.P,J11,1,Pin_1*%
%TO.N,+5V*%
X60296980Y-23200000D03*
D17*
%TO.P,J11,2,Pin_2*%
X57796980Y-23200000D03*
%TO.P,J11,3,Pin_3*%
%TO.N,Net-(A2-A5)*%
X55296980Y-23200000D03*
%TO.P,J11,4,Pin_4*%
%TO.N,Net-(A2-A4)*%
X52796980Y-23200000D03*
%TO.P,J11,5,Pin_5*%
%TO.N,unconnected-(J11-Pin_5-Pad5)*%
X50296980Y-23200000D03*
%TO.P,J11,6,Pin_6*%
%TO.N,unconnected-(J11-Pin_6-Pad6)*%
X47796980Y-23200000D03*
%TO.P,J11,7,Pin_7*%
%TO.N,unconnected-(J11-Pin_7-Pad7)*%
X45296980Y-23200000D03*
%TO.P,J11,8,Pin_8*%
%TO.N,+3.3V*%
X42796980Y-23200000D03*
%TD*%
D18*
%TO.P,J14,1,Pin_1*%
%TO.N,Net-(J14-Pin_1)*%
X36636980Y-37240000D03*
D19*
%TO.P,J14,2,Pin_2*%
%TO.N,Net-(J14-Pin_2)*%
X36636980Y-39780000D03*
%TO.P,J14,3,Pin_3*%
%TO.N,Net-(J14-Pin_3)*%
X36636980Y-42320000D03*
%TD*%
D20*
%TO.P,D5,1,K*%
%TO.N,+5V*%
X89586980Y-75175000D03*
D21*
%TO.P,D5,2,A*%
%TO.N,Net-(D5-A)*%
X92126980Y-75175000D03*
%TD*%
D22*
%TO.P,J9,1,Pin_1*%
%TO.N,+12V*%
X99624980Y-22724000D03*
D23*
%TO.P,J9,2,Pin_2*%
%TO.N,+5V*%
X99624980Y-25264000D03*
%TD*%
D24*
%TO.P,J2,1,Pin_1*%
%TO.N,+5V*%
X95941980Y-65015000D03*
D25*
%TO.P,J2,2,Pin_2*%
%TO.N,Net-(A1-A2)*%
X95941980Y-62515000D03*
%TD*%
D12*
%TO.P,R4,1*%
%TO.N,Net-(Q2-B)*%
X76891980Y-33900000D03*
D13*
%TO.P,R4,2*%
%TO.N,Net-(J5-Pin_2)*%
X84511980Y-33900000D03*
%TD*%
D22*
%TO.P,J5,1,Pin_1*%
%TO.N,Net-(J5-Pin_1)*%
X97318980Y-29582000D03*
D23*
%TO.P,J5,2,Pin_2*%
%TO.N,Net-(J5-Pin_2)*%
X97318980Y-32122000D03*
%TO.P,J5,3,Pin_3*%
%TO.N,Net-(A1-A7)*%
X97318980Y-34662000D03*
%TD*%
D18*
%TO.P,J6,1,Pin_1*%
%TO.N,Net-(A1-D1{slash}TX)*%
X69906980Y-31995000D03*
D19*
%TO.P,J6,2,Pin_2*%
%TO.N,Net-(A1-D0{slash}RX)*%
X69906980Y-34535000D03*
%TO.P,J6,3,Pin_3*%
%TO.N,Net-(J6-Pin_3)*%
X69906980Y-37075000D03*
%TO.P,J6,4,Pin_4*%
%TO.N,+5V*%
X69906980Y-39615000D03*
%TO.P,J6,5,Pin_5*%
%TO.N,Net-(A1-D2)*%
X69906980Y-42155000D03*
%TO.P,J6,6,Pin_6*%
%TO.N,Net-(A1-D3)*%
X69906980Y-44695000D03*
%TO.P,J6,7,Pin_7*%
%TO.N,Net-(A1-D4)*%
X69906980Y-47235000D03*
%TO.P,J6,8,Pin_8*%
%TO.N,Net-(A1-D5)*%
X69906980Y-49775000D03*
%TO.P,J6,9,Pin_9*%
%TO.N,Net-(A1-D6)*%
X69906980Y-52315000D03*
%TO.P,J6,10,Pin_10*%
%TO.N,Net-(A1-D7)*%
X69906980Y-54855000D03*
%TO.P,J6,11,Pin_11*%
%TO.N,Net-(A1-D8)*%
X69906980Y-57395000D03*
%TO.P,J6,12,Pin_12*%
%TO.N,Net-(A1-D9)*%
X69906980Y-59935000D03*
%TO.P,J6,13,Pin_13*%
%TO.N,Net-(A1-D10)*%
X69906980Y-62475000D03*
%TO.P,J6,14,Pin_14*%
%TO.N,Net-(A1-D11)*%
X69906980Y-65015000D03*
%TO.P,J6,15,Pin_15*%
%TO.N,Net-(A1-D12)*%
X69906980Y-67555000D03*
%TD*%
D24*
%TO.P,J3,1,Pin_1*%
%TO.N,+5V*%
X95941980Y-56125000D03*
D25*
%TO.P,J3,2,Pin_2*%
%TO.N,Net-(A1-A3)*%
X95941980Y-53625000D03*
%TO.P,J3,3,Pin_3*%
%TO.N,+5V*%
X95941980Y-51125000D03*
%TD*%
D26*
%TO.P,J12,1,Pin_1*%
%TO.N,+5V*%
X45036980Y-73460000D03*
D27*
%TO.P,J12,2,Pin_2*%
%TO.N,Net-(A2-D0{slash}RX)*%
X47536980Y-73460000D03*
%TO.P,J12,3,Pin_3*%
%TO.N,Net-(A2-D1{slash}TX)*%
X50036980Y-73460000D03*
%TO.P,J12,4,Pin_4*%
%TO.N,+5V*%
X52536980Y-73460000D03*
%TD*%
D24*
%TO.P,J1,1,Pin_1*%
%TO.N,+5V*%
X95941980Y-73905000D03*
D25*
%TO.P,J1,2,Pin_2*%
%TO.N,Net-(A1-A1)*%
X95941980Y-71405000D03*
%TD*%
D16*
%TO.P,J8,1,Pin_1*%
%TO.N,+5V*%
X87940980Y-23486000D03*
D17*
%TO.P,J8,2,Pin_2*%
X85440980Y-23486000D03*
%TO.P,J8,3,Pin_3*%
%TO.N,Net-(A1-A5)*%
X82940980Y-23486000D03*
%TO.P,J8,4,Pin_4*%
%TO.N,Net-(A1-A4)*%
X80440980Y-23486000D03*
%TO.P,J8,5,Pin_5*%
%TO.N,unconnected-(J8-Pin_5-Pad5)*%
X77940980Y-23486000D03*
%TO.P,J8,6,Pin_6*%
%TO.N,unconnected-(J8-Pin_6-Pad6)*%
X75440980Y-23486000D03*
%TO.P,J8,7,Pin_7*%
%TO.N,unconnected-(J8-Pin_7-Pad7)*%
X72940980Y-23486000D03*
%TO.P,J8,8,Pin_8*%
%TO.N,unconnected-(J8-Pin_8-Pad8)*%
X70440980Y-23486000D03*
%TD*%
D12*
%TO.P,R5,1*%
%TO.N,Net-(D5-A)*%
X85781980Y-77080000D03*
D13*
%TO.P,R5,2*%
%TO.N,+5V*%
X85781980Y-69460000D03*
%TD*%
D14*
%TO.P,SW2,1,1*%
%TO.N,+5V*%
X26536980Y-38210000D03*
X33036980Y-38210000D03*
%TO.P,SW2,2,2*%
%TO.N,Net-(J14-Pin_2)*%
X26536980Y-42710000D03*
X33036980Y-42710000D03*
%TD*%
D24*
%TO.P,J4,1,Pin_1*%
%TO.N,+5V*%
X95704980Y-44655000D03*
D25*
%TO.P,J4,2,Pin_2*%
%TO.N,Net-(A1-A6)*%
X95704980Y-42155000D03*
%TO.P,J4,3,Pin_3*%
%TO.N,+5V*%
X95704980Y-39655000D03*
%TD*%
D12*
%TO.P,R2,1*%
%TO.N,Net-(A1-A2)*%
X84511980Y-65015000D03*
D13*
%TO.P,R2,2*%
%TO.N,+5V*%
X76891980Y-65015000D03*
%TD*%
D10*
%TO.P,A2,1,D1/TX*%
%TO.N,Net-(A2-D1{slash}TX)*%
X43926980Y-31910000D03*
D11*
%TO.P,A2,2,D0/RX*%
%TO.N,Net-(A2-D0{slash}RX)*%
X43926980Y-34450000D03*
%TO.P,A2,3,~{RESET}*%
%TO.N,Net-(J13-Pin_3)*%
X43926980Y-36990000D03*
%TO.P,A2,4,GND*%
%TO.N,+5V*%
X43926980Y-39530000D03*
%TO.P,A2,5,D2*%
%TO.N,Net-(A2-D2)*%
X43926980Y-42070000D03*
%TO.P,A2,6,D3*%
%TO.N,Net-(A2-D3)*%
X43926980Y-44610000D03*
%TO.P,A2,7,D4*%
%TO.N,Net-(A2-D4)*%
X43926980Y-47150000D03*
%TO.P,A2,8,D5*%
%TO.N,Net-(A2-D5)*%
X43926980Y-49690000D03*
%TO.P,A2,9,D6*%
%TO.N,Net-(A2-D6)*%
X43926980Y-52230000D03*
%TO.P,A2,10,D7*%
%TO.N,Net-(A2-D7)*%
X43926980Y-54770000D03*
%TO.P,A2,11,D8*%
%TO.N,Net-(A2-D8)*%
X43926980Y-57310000D03*
%TO.P,A2,12,D9*%
%TO.N,Net-(A2-D9)*%
X43926980Y-59850000D03*
%TO.P,A2,13,D10*%
%TO.N,Net-(A2-D10)*%
X43926980Y-62390000D03*
%TO.P,A2,14,D11*%
%TO.N,Net-(A2-D11)*%
X43926980Y-64930000D03*
%TO.P,A2,15,D12*%
%TO.N,Net-(A2-D12)*%
X43926980Y-67470000D03*
%TO.P,A2,16,D13*%
%TO.N,unconnected-(A2-D13-Pad16)*%
X59166980Y-67470000D03*
%TO.P,A2,17,3V3*%
%TO.N,+3.3V*%
X59166980Y-64930000D03*
%TO.P,A2,18,AREF*%
%TO.N,unconnected-(A2-AREF-Pad18)*%
X59166980Y-62390000D03*
%TO.P,A2,19,A0*%
%TO.N,unconnected-(A2-A0-Pad19)*%
X59166980Y-59850000D03*
%TO.P,A2,20,A1*%
%TO.N,unconnected-(A2-A1-Pad20)*%
X59166980Y-57310000D03*
%TO.P,A2,21,A2*%
%TO.N,unconnected-(A2-A2-Pad21)*%
X59166980Y-54770000D03*
%TO.P,A2,22,A3*%
%TO.N,unconnected-(A2-A3-Pad22)*%
X59166980Y-52230000D03*
%TO.P,A2,23,A4*%
%TO.N,Net-(A2-A4)*%
X59166980Y-49690000D03*
%TO.P,A2,24,A5*%
%TO.N,Net-(A2-A5)*%
X59166980Y-47150000D03*
%TO.P,A2,25,A6*%
%TO.N,unconnected-(A2-A6-Pad25)*%
X59166980Y-44610000D03*
%TO.P,A2,26,A7*%
%TO.N,unconnected-(A2-A7-Pad26)*%
X59166980Y-42070000D03*
%TO.P,A2,27,+5V*%
%TO.N,+5V*%
X59166980Y-39530000D03*
%TO.P,A2,28,~{RESET}*%
%TO.N,unconnected-(A2-~{RESET}-Pad28)*%
X59166980Y-36990000D03*
%TO.P,A2,29,GND*%
%TO.N,+5V*%
X59166980Y-34450000D03*
%TO.P,A2,30,VIN*%
%TO.N,unconnected-(A2-VIN-Pad30)*%
X59166980Y-31910000D03*
%TD*%
D26*
%TO.P,J10,1,Pin_1*%
%TO.N,+5V*%
X71176980Y-73524000D03*
D27*
%TO.P,J10,2,Pin_2*%
%TO.N,Net-(A1-D0{slash}RX)*%
X73676980Y-73524000D03*
%TO.P,J10,3,Pin_3*%
%TO.N,Net-(A1-D1{slash}TX)*%
X76176980Y-73524000D03*
%TO.P,J10,4,Pin_4*%
%TO.N,+5V*%
X78676980Y-73524000D03*
%TD*%
D28*
%TO.P,Q2,1,E*%
%TO.N,Net-(A1-D3)*%
X82536980Y-40610000D03*
D29*
%TO.P,Q2,2,C*%
%TO.N,Net-(Q1-C)*%
X83806980Y-40610000D03*
%TO.P,Q2,3,B*%
%TO.N,Net-(Q2-B)*%
X85076980Y-40610000D03*
%TD*%
D14*
%TO.P,SW1,1,1*%
%TO.N,+5V*%
X26536980Y-29660000D03*
X33036980Y-29660000D03*
%TO.P,SW1,2,2*%
%TO.N,Net-(J14-Pin_1)*%
X26536980Y-34160000D03*
X33036980Y-34160000D03*
%TD*%
D12*
%TO.P,R3,1*%
%TO.N,Net-(Q1-B)*%
X76891980Y-31360000D03*
D13*
%TO.P,R3,2*%
%TO.N,Net-(J5-Pin_1)*%
X84511980Y-31360000D03*
%TD*%
D18*
%TO.P,J13,1,Pin_1*%
%TO.N,Net-(A2-D1{slash}TX)*%
X40036980Y-31880000D03*
D19*
%TO.P,J13,2,Pin_2*%
%TO.N,Net-(A2-D0{slash}RX)*%
X40036980Y-34420000D03*
%TO.P,J13,3,Pin_3*%
%TO.N,Net-(J13-Pin_3)*%
X40036980Y-36960000D03*
%TO.P,J13,4,Pin_4*%
%TO.N,+5V*%
X40036980Y-39500000D03*
%TO.P,J13,5,Pin_5*%
%TO.N,Net-(A2-D2)*%
X40036980Y-42040000D03*
%TO.P,J13,6,Pin_6*%
%TO.N,Net-(A2-D3)*%
X40036980Y-44580000D03*
%TO.P,J13,7,Pin_7*%
%TO.N,Net-(A2-D4)*%
X40036980Y-47120000D03*
%TO.P,J13,8,Pin_8*%
%TO.N,Net-(A2-D5)*%
X40036980Y-49660000D03*
%TO.P,J13,9,Pin_9*%
%TO.N,Net-(A2-D6)*%
X40036980Y-52200000D03*
%TO.P,J13,10,Pin_10*%
%TO.N,Net-(A2-D7)*%
X40036980Y-54740000D03*
%TO.P,J13,11,Pin_11*%
%TO.N,Net-(A2-D8)*%
X40036980Y-57280000D03*
%TO.P,J13,12,Pin_12*%
%TO.N,Net-(A2-D9)*%
X40036980Y-59820000D03*
%TO.P,J13,13,Pin_13*%
%TO.N,Net-(A2-D10)*%
X40036980Y-62360000D03*
%TO.P,J13,14,Pin_14*%
%TO.N,Net-(A2-D11)*%
X40036980Y-64900000D03*
%TO.P,J13,15,Pin_15*%
%TO.N,Net-(A2-D12)*%
X40036980Y-67440000D03*
%TD*%
D28*
%TO.P,Q1,1,E*%
%TO.N,Net-(A1-D2)*%
X76891980Y-40610000D03*
D29*
%TO.P,Q1,2,C*%
%TO.N,Net-(Q1-C)*%
X78161980Y-40610000D03*
%TO.P,Q1,3,B*%
%TO.N,Net-(Q1-B)*%
X79431980Y-40610000D03*
%TD*%
D18*
%TO.P,J7,1,Pin_1*%
%TO.N,Net-(A1-D13)*%
X91471980Y-67555000D03*
D19*
%TO.P,J7,2,Pin_2*%
%TO.N,Net-(A1-3V3)*%
X91471980Y-65015000D03*
%TO.P,J7,3,Pin_3*%
%TO.N,Net-(A1-AREF)*%
X91471980Y-62475000D03*
%TO.P,J7,4,Pin_4*%
%TO.N,Net-(A1-A0)*%
X91471980Y-59935000D03*
%TO.P,J7,5,Pin_5*%
%TO.N,Net-(A1-A1)*%
X91471980Y-57395000D03*
%TO.P,J7,6,Pin_6*%
%TO.N,Net-(A1-A2)*%
X91471980Y-54855000D03*
%TO.P,J7,7,Pin_7*%
%TO.N,Net-(A1-A3)*%
X91471980Y-52315000D03*
%TO.P,J7,8,Pin_8*%
%TO.N,Net-(A1-A4)*%
X91471980Y-49775000D03*
%TO.P,J7,9,Pin_9*%
%TO.N,Net-(A1-A5)*%
X91471980Y-47235000D03*
%TO.P,J7,10,Pin_10*%
%TO.N,Net-(A1-A6)*%
X91471980Y-44695000D03*
%TO.P,J7,11,Pin_11*%
%TO.N,Net-(A1-A7)*%
X91471980Y-42155000D03*
%TO.P,J7,12,Pin_12*%
%TO.N,+5V*%
X91471980Y-39615000D03*
%TO.P,J7,13,Pin_13*%
%TO.N,Net-(J7-Pin_13)*%
X91471980Y-37075000D03*
%TO.P,J7,14,Pin_14*%
%TO.N,+5V*%
X91471980Y-34535000D03*
%TO.P,J7,15,Pin_15*%
%TO.N,+12V*%
X91471980Y-31995000D03*
%TD*%
D12*
%TO.P,R1,1*%
%TO.N,Net-(A1-A1)*%
X84511980Y-67555000D03*
D13*
%TO.P,R1,2*%
%TO.N,+5V*%
X76891980Y-67555000D03*
%TD*%
D30*
%TO.N,Net-(A1-D12)*%
X73081980Y-67555000D02*
X69906980Y-67555000D01*
%TO.N,Net-(A1-D11)*%
X73081980Y-65015000D02*
X69906980Y-65015000D01*
%TO.N,Net-(J6-Pin_3)*%
X73081980Y-37075000D02*
X69906980Y-37075000D01*
%TO.N,Net-(A1-A4)*%
X88321980Y-49775000D02*
X91471980Y-49775000D01*
%TO.N,Net-(A1-D3)*%
X73081980Y-44695000D02*
X73881979Y-43895001D01*
X73081980Y-44695000D02*
X69906980Y-44695000D01*
X73881979Y-43895001D02*
X79251979Y-43895001D01*
X79251979Y-43895001D02*
X82536980Y-40610000D01*
%TO.N,Net-(A1-A5)*%
X87197469Y-40216611D02*
X87197469Y-40522489D01*
X87197469Y-40522489D02*
X87197469Y-46110489D01*
X86416980Y-39742000D02*
X87197469Y-40522489D01*
X86416980Y-26837000D02*
X86416980Y-39742000D01*
X82940980Y-23486000D02*
X83065980Y-23486000D01*
X87197469Y-46110489D02*
X88321980Y-47235000D01*
X83065980Y-23486000D02*
X86416980Y-26837000D01*
X88321980Y-47235000D02*
X91471980Y-47235000D01*
%TO.N,Net-(A1-AREF)*%
X88321980Y-62475000D02*
X91471980Y-62475000D01*
%TO.N,Net-(A1-A7)*%
X88321980Y-42155000D02*
X91471980Y-42155000D01*
%TO.N,Net-(A1-D13)*%
X88321980Y-67555000D02*
X91471980Y-67555000D01*
%TO.N,Net-(A1-D0{slash}RX)*%
X73081980Y-34535000D02*
X69906980Y-34535000D01*
%TO.N,Net-(A1-D6)*%
X73081980Y-52315000D02*
X69906980Y-52315000D01*
%TO.N,Net-(A1-A6)*%
X88321980Y-44695000D02*
X91471980Y-44695000D01*
X95704980Y-42155000D02*
X94011980Y-42155000D01*
X94011980Y-42155000D02*
X91471980Y-44695000D01*
%TO.N,Net-(J7-Pin_13)*%
X88321980Y-37075000D02*
X91471980Y-37075000D01*
%TO.N,Net-(A1-D2)*%
X73081980Y-42155000D02*
X69906980Y-42155000D01*
X75346980Y-42155000D02*
X76891980Y-40610000D01*
X73081980Y-42155000D02*
X75346980Y-42155000D01*
%TO.N,Net-(A1-A3)*%
X88321980Y-52315000D02*
X91471980Y-52315000D01*
X92781980Y-53625000D02*
X91471980Y-52315000D01*
X95941980Y-53625000D02*
X92781980Y-53625000D01*
%TO.N,Net-(A1-A0)*%
X88321980Y-59935000D02*
X91471980Y-59935000D01*
%TO.N,Net-(A1-D5)*%
X73081980Y-49775000D02*
X69906980Y-49775000D01*
%TO.N,Net-(A1-D10)*%
X73081980Y-62475000D02*
X69906980Y-62475000D01*
%TO.N,Net-(A1-D4)*%
X73081980Y-47235000D02*
X69906980Y-47235000D01*
%TO.N,Net-(A1-A2)*%
X88321980Y-54855000D02*
X91471980Y-54855000D01*
X84511980Y-65015000D02*
X86416980Y-63110000D01*
X87051980Y-54855000D02*
X88321980Y-54855000D01*
X86416980Y-63110000D02*
X86416980Y-55490000D01*
X86416980Y-55490000D02*
X87051980Y-54855000D01*
%TO.N,Net-(A1-D9)*%
X73081980Y-59935000D02*
X69906980Y-59935000D01*
%TO.N,Net-(A1-3V3)*%
X88321980Y-65015000D02*
X91471980Y-65015000D01*
%TO.N,Net-(A1-D7)*%
X73081980Y-54855000D02*
X69906980Y-54855000D01*
%TO.N,+12V*%
X98394980Y-21494000D02*
X99624980Y-22724000D01*
X91471980Y-24855000D02*
X94832980Y-21494000D01*
X91471980Y-31995000D02*
X91471980Y-24855000D01*
X88321980Y-31995000D02*
X91471980Y-31995000D01*
X94832980Y-21494000D02*
X98394980Y-21494000D01*
%TO.N,Net-(A1-A1)*%
X87197469Y-64869511D02*
X87197469Y-58519511D01*
X84511980Y-67555000D02*
X87197469Y-64869511D01*
X87197469Y-58519511D02*
X88321980Y-57395000D01*
X88321980Y-57395000D02*
X91471980Y-57395000D01*
%TO.N,Net-(A1-D1{slash}TX)*%
X69906980Y-31995000D02*
X73081980Y-31995000D01*
%TO.N,Net-(A1-D8)*%
X73081980Y-57395000D02*
X69906980Y-57395000D01*
%TO.N,Net-(A2-D3)*%
X43896980Y-44580000D02*
X43926980Y-44610000D01*
X40036980Y-44580000D02*
X43896980Y-44580000D01*
%TO.N,+5V*%
X83749980Y-71492000D02*
X85781980Y-69460000D01*
X88321980Y-34535000D02*
X91471980Y-34535000D01*
X71176980Y-73524000D02*
X73208980Y-71492000D01*
X87197469Y-24229511D02*
X87197469Y-38490489D01*
X97251980Y-39655000D02*
X97846980Y-40250000D01*
X91471980Y-34535000D02*
X94671980Y-34535000D01*
X88142384Y-39615000D02*
X88321980Y-39615000D01*
X91471980Y-34535000D02*
X92732980Y-33274000D01*
X99624980Y-25264000D02*
X93962980Y-25264000D01*
X95704980Y-39655000D02*
X97251980Y-39655000D01*
X94671980Y-34535000D02*
X95704980Y-35568000D01*
X92732980Y-33274000D02*
X92732980Y-26494000D01*
X88321980Y-39615000D02*
X91471980Y-39615000D01*
X92686500Y-40829520D02*
X96140500Y-40829520D01*
X97846980Y-49220000D02*
X95941980Y-51125000D01*
X97846980Y-40250000D02*
X97846980Y-49220000D01*
X87940980Y-23486000D02*
X87197469Y-24229511D01*
X87197469Y-38490489D02*
X88321980Y-39615000D01*
X73081980Y-39615000D02*
X69906980Y-39615000D01*
X96954500Y-43405480D02*
X95704980Y-44655000D01*
X96954500Y-41643520D02*
X96954500Y-43405480D01*
X93962980Y-25264000D02*
X92732980Y-26494000D01*
X40066980Y-39530000D02*
X40036980Y-39500000D01*
X95704980Y-35568000D02*
X95704980Y-39655000D01*
X91471980Y-39615000D02*
X92686500Y-40829520D01*
X96140500Y-40829520D02*
X96954500Y-41643520D01*
X43926980Y-39530000D02*
X40066980Y-39530000D01*
X73208980Y-71492000D02*
X83749980Y-71492000D01*
%TO.N,Net-(Q1-B)*%
X76891980Y-31360000D02*
X76136980Y-31360000D01*
X75536980Y-31960000D02*
X75536980Y-37460000D01*
X75536980Y-37460000D02*
X76036980Y-37960000D01*
X79036980Y-37960000D02*
X79431980Y-38355000D01*
X76036980Y-37960000D02*
X79036980Y-37960000D01*
X76136980Y-31360000D02*
X75536980Y-31960000D01*
X79431980Y-38355000D02*
X79431980Y-40610000D01*
%TO.N,Net-(Q2-B)*%
X76891980Y-33900000D02*
X78951980Y-35960000D01*
X83536980Y-35960000D02*
X85076980Y-37500000D01*
X85076980Y-37500000D02*
X85076980Y-40610000D01*
X78951980Y-35960000D02*
X83536980Y-35960000D01*
%TO.N,Net-(A2-D12)*%
X40036980Y-67440000D02*
X43896980Y-67440000D01*
X43896980Y-67440000D02*
X43926980Y-67470000D01*
%TO.N,Net-(A2-D11)*%
X43896980Y-64900000D02*
X43926980Y-64930000D01*
X40036980Y-64900000D02*
X43896980Y-64900000D01*
%TO.N,Net-(A2-D6)*%
X43896980Y-52200000D02*
X43926980Y-52230000D01*
X40036980Y-52200000D02*
X43896980Y-52200000D01*
%TO.N,Net-(J13-Pin_3)*%
X43926980Y-36990000D02*
X40066980Y-36990000D01*
X40066980Y-36990000D02*
X40036980Y-36960000D01*
%TO.N,Net-(A2-D1{slash}TX)*%
X40066980Y-31910000D02*
X40036980Y-31880000D01*
X43926980Y-31910000D02*
X40066980Y-31910000D01*
%TO.N,Net-(A2-D0{slash}RX)*%
X43926980Y-34450000D02*
X40066980Y-34450000D01*
X40066980Y-34450000D02*
X40036980Y-34420000D01*
%TO.N,Net-(A2-D5)*%
X43896980Y-49660000D02*
X43926980Y-49690000D01*
X40036980Y-49660000D02*
X43896980Y-49660000D01*
%TO.N,Net-(A2-D2)*%
X40036980Y-42040000D02*
X43896980Y-42040000D01*
X43896980Y-42040000D02*
X43926980Y-42070000D01*
%TO.N,Net-(A2-D9)*%
X40036980Y-59820000D02*
X43896980Y-59820000D01*
X43896980Y-59820000D02*
X43926980Y-59850000D01*
%TO.N,Net-(A2-D7)*%
X43896980Y-54740000D02*
X43926980Y-54770000D01*
X40036980Y-54740000D02*
X43896980Y-54740000D01*
%TO.N,Net-(A2-D10)*%
X40036980Y-62360000D02*
X43896980Y-62360000D01*
X43896980Y-62360000D02*
X43926980Y-62390000D01*
%TO.N,Net-(A2-D8)*%
X40036980Y-57280000D02*
X43896980Y-57280000D01*
X43896980Y-57280000D02*
X43926980Y-57310000D01*
%TO.N,Net-(A2-D4)*%
X43896980Y-47120000D02*
X43926980Y-47150000D01*
X40036980Y-47120000D02*
X43896980Y-47120000D01*
%TO.N,Net-(J14-Pin_1)*%
X36636980Y-37240000D02*
X36116980Y-37240000D01*
X36116980Y-37240000D02*
X33036980Y-34160000D01*
X33036980Y-34160000D02*
X26536980Y-34160000D01*
%TO.N,Net-(J14-Pin_3)*%
X26536980Y-51260000D02*
X33036980Y-51260000D01*
X34536980Y-44420000D02*
X34536980Y-49760000D01*
X34536980Y-49760000D02*
X33036980Y-51260000D01*
X36636980Y-42320000D02*
X34536980Y-44420000D01*
%TO.N,Net-(J14-Pin_2)*%
X36636980Y-39780000D02*
X33706980Y-42710000D01*
X26536980Y-42710000D02*
X33036980Y-42710000D01*
X33706980Y-42710000D02*
X33036980Y-42710000D01*
%TD*%
M02*
