%TF.GenerationSoftware,KiCad,Pcbnew,(6.0.4)*%
%TF.CreationDate,2022-08-18T03:48:08+09:00*%
%TF.ProjectId,MultiMeter,4d756c74-694d-4657-9465-722e6b696361,rev?*%
%TF.SameCoordinates,Original*%
%TF.FileFunction,Copper,L2,Bot*%
%TF.FilePolarity,Positive*%
%FSLAX46Y46*%
G04 Gerber Fmt 4.6, Leading zero omitted, Abs format (unit mm)*
G04 Created by KiCad (PCBNEW (6.0.4)) date 2022-08-18 03:48:08*
%MOMM*%
%LPD*%
G01*
G04 APERTURE LIST*
%TA.AperFunction,ComponentPad*%
%ADD10R,1.700000X1.700000*%
%TD*%
%TA.AperFunction,ComponentPad*%
%ADD11O,1.700000X1.700000*%
%TD*%
%TA.AperFunction,ComponentPad*%
%ADD12R,2.000000X2.000000*%
%TD*%
%TA.AperFunction,ComponentPad*%
%ADD13O,2.000000X2.000000*%
%TD*%
%TA.AperFunction,ComponentPad*%
%ADD14C,1.600000*%
%TD*%
%TA.AperFunction,ComponentPad*%
%ADD15O,1.600000X1.600000*%
%TD*%
%TA.AperFunction,ComponentPad*%
%ADD16C,1.400000*%
%TD*%
%TA.AperFunction,ComponentPad*%
%ADD17C,2.400000*%
%TD*%
%TA.AperFunction,ComponentPad*%
%ADD18R,1.600000X1.600000*%
%TD*%
%TA.AperFunction,Conductor*%
%ADD19C,0.250000*%
%TD*%
G04 APERTURE END LIST*
D10*
%TO.P,OilTemp,1*%
%TO.N,N/C*%
X62865000Y-45105000D03*
D11*
%TO.P,OilTemp,2*%
X62865000Y-42565000D03*
%TD*%
D10*
%TO.P,WaterTemp,1*%
%TO.N,N/C*%
X62865000Y-38115000D03*
D11*
%TO.P,WaterTemp,2*%
X62865000Y-35575000D03*
%TD*%
D12*
%TO.P,D2,1*%
%TO.N,N/C*%
X74930000Y-60960000D03*
D13*
%TO.P,D2,2*%
X74930000Y-50800000D03*
%TD*%
D10*
%TO.P,OilPress,1*%
%TO.N,N/C*%
X62865000Y-54610000D03*
D11*
%TO.P,OilPress,2*%
X62865000Y-52070000D03*
%TO.P,OilPress,3*%
X62865000Y-49530000D03*
%TD*%
D14*
%TO.P,R2,1*%
%TO.N,N/C*%
X71120000Y-58420000D03*
D15*
%TO.P,R2,2*%
X71120000Y-48260000D03*
%TD*%
D16*
%TO.P,C1,1*%
%TO.N,N/C*%
X78105000Y-66675000D03*
%TO.P,C1,2*%
X75605000Y-66675000D03*
%TD*%
D14*
%TO.P,R1,1*%
%TO.N,N/C*%
X71120000Y-45085000D03*
D15*
%TO.P,R1,2*%
X71120000Y-34925000D03*
%TD*%
D12*
%TO.P,D4,1*%
%TO.N,N/C*%
X74930000Y-45085000D03*
D13*
%TO.P,D4,2*%
X74930000Y-34925000D03*
%TD*%
D12*
%TO.P,D1,1*%
%TO.N,N/C*%
X78740000Y-50800000D03*
D13*
%TO.P,D1,2*%
X78740000Y-60960000D03*
%TD*%
D17*
%TO.P,Speed,1*%
%TO.N,N/C*%
X86360000Y-46355000D03*
%TD*%
D16*
%TO.P,C2,1*%
%TO.N,N/C*%
X75585000Y-30480000D03*
%TO.P,C2,2*%
X78085000Y-30480000D03*
%TD*%
D17*
%TO.P,Tacho,1*%
%TO.N,N/C*%
X86360000Y-64770000D03*
%TD*%
D18*
%TO.P,A1,1*%
%TO.N,N/C*%
X82550000Y-64770000D03*
D15*
%TO.P,A1,2*%
X82550000Y-62230000D03*
%TO.P,A1,3*%
X82550000Y-59690000D03*
%TO.P,A1,4*%
X82550000Y-57150000D03*
%TO.P,A1,5*%
X82550000Y-54610000D03*
%TO.P,A1,6*%
X82550000Y-52070000D03*
%TO.P,A1,7*%
X82550000Y-49530000D03*
%TO.P,A1,8*%
X82550000Y-46990000D03*
%TO.P,A1,9*%
X82550000Y-44450000D03*
%TO.P,A1,10*%
X82550000Y-41910000D03*
%TO.P,A1,11*%
X82550000Y-39370000D03*
%TO.P,A1,12*%
X82550000Y-36830000D03*
%TO.P,A1,13*%
X82550000Y-34290000D03*
%TO.P,A1,14*%
X82550000Y-31750000D03*
%TO.P,A1,15*%
X82550000Y-29210000D03*
%TO.P,A1,16*%
X67310000Y-29210000D03*
%TO.P,A1,17*%
X67310000Y-31750000D03*
%TO.P,A1,18*%
X67310000Y-34290000D03*
%TO.P,A1,19*%
X67310000Y-36830000D03*
%TO.P,A1,20*%
X67310000Y-39370000D03*
%TO.P,A1,21*%
X67310000Y-41910000D03*
%TO.P,A1,22*%
X67310000Y-44450000D03*
%TO.P,A1,23*%
X67310000Y-46990000D03*
%TO.P,A1,24*%
X67310000Y-49530000D03*
%TO.P,A1,25*%
X67310000Y-52070000D03*
%TO.P,A1,26*%
X67310000Y-54610000D03*
%TO.P,A1,27*%
X67310000Y-57150000D03*
%TO.P,A1,28*%
X67310000Y-59690000D03*
%TO.P,A1,29*%
X67310000Y-62230000D03*
%TO.P,A1,30*%
X67310000Y-64770000D03*
%TD*%
D14*
%TO.P,R4,1*%
%TO.N,N/C*%
X86360000Y-33020000D03*
D15*
%TO.P,R4,2*%
X86360000Y-43180000D03*
%TD*%
D12*
%TO.P,D3,1*%
%TO.N,N/C*%
X78740000Y-34925000D03*
D13*
%TO.P,D3,2*%
X78740000Y-45085000D03*
%TD*%
D10*
%TO.P,Boost,1*%
%TO.N,N/C*%
X62865000Y-64135000D03*
D11*
%TO.P,Boost,2*%
X62865000Y-61595000D03*
%TO.P,Boost,3*%
X62865000Y-59055000D03*
%TD*%
D14*
%TO.P,R3,1*%
%TO.N,N/C*%
X86360000Y-51435000D03*
D15*
%TO.P,R3,2*%
X86360000Y-61595000D03*
%TD*%
D19*
%TO.N,*%
X61595000Y-45085000D02*
X61595000Y-38735000D01*
X65405000Y-60960000D02*
X64770000Y-61595000D01*
X69215000Y-59055000D02*
X69215000Y-57785000D01*
X74930000Y-60960000D02*
X71120000Y-60960000D01*
X65405000Y-47625000D02*
X65405000Y-60960000D01*
X61615000Y-45105000D02*
X61595000Y-45085000D01*
X62865000Y-45105000D02*
X61615000Y-45105000D01*
X80645000Y-33020000D02*
X86360000Y-33020000D01*
X62865000Y-54610000D02*
X61595000Y-54610000D01*
X61595000Y-54610000D02*
X61595000Y-45085000D01*
X62215000Y-38115000D02*
X62865000Y-38115000D01*
X69215000Y-57785000D02*
X68580000Y-57150000D01*
X61595000Y-38735000D02*
X62215000Y-38115000D01*
X66040000Y-46990000D02*
X65405000Y-47625000D01*
X68580000Y-57150000D02*
X67310000Y-57150000D01*
X67310000Y-46990000D02*
X66040000Y-46990000D01*
X61595000Y-62865000D02*
X61595000Y-54610000D01*
X71120000Y-60960000D02*
X69215000Y-59055000D01*
X62865000Y-64135000D02*
X61595000Y-62865000D01*
X78740000Y-34925000D02*
X80645000Y-33020000D01*
X78740000Y-53340000D02*
X78740000Y-50800000D01*
X80010000Y-54610000D02*
X78740000Y-53340000D01*
X64770000Y-61595000D02*
X62865000Y-61595000D01*
X82550000Y-54610000D02*
X80010000Y-54610000D01*
%TD*%
M02*
