%TF.GenerationSoftware,KiCad,Pcbnew,(6.0.4)*%
%TF.CreationDate,2022-09-15T10:04:33+09:00*%
%TF.ProjectId,MultiMeter,4d756c74-694d-4657-9465-722e6b696361,rev?*%
%TF.SameCoordinates,Original*%
%TF.FileFunction,Legend,Top*%
%TF.FilePolarity,Positive*%
%FSLAX46Y46*%
G04 Gerber Fmt 4.6, Leading zero omitted, Abs format (unit mm)*
G04 Created by KiCad (PCBNEW (6.0.4)) date 2022-09-15 10:04:33*
%MOMM*%
%LPD*%
G01*
G04 APERTURE LIST*
%ADD10C,0.150000*%
%ADD11C,0.300000*%
%ADD12C,0.120000*%
G04 APERTURE END LIST*
D10*
X43180000Y-23495000D02*
G75*
G03*
X43180000Y-23495000I-635000J0D01*
G01*
D11*
X70298571Y-69532142D02*
X71798571Y-69175000D01*
X70727142Y-68889285D01*
X71798571Y-68603571D01*
X70298571Y-68246428D01*
X71798571Y-67032142D02*
X71012857Y-67032142D01*
X70870000Y-67103571D01*
X70798571Y-67246428D01*
X70798571Y-67532142D01*
X70870000Y-67675000D01*
X71727142Y-67032142D02*
X71798571Y-67175000D01*
X71798571Y-67532142D01*
X71727142Y-67675000D01*
X71584285Y-67746428D01*
X71441428Y-67746428D01*
X71298571Y-67675000D01*
X71227142Y-67532142D01*
X71227142Y-67175000D01*
X71155714Y-67032142D01*
X70798571Y-66532142D02*
X70798571Y-65960714D01*
X70298571Y-66317857D02*
X71584285Y-66317857D01*
X71727142Y-66246428D01*
X71798571Y-66103571D01*
X71798571Y-65960714D01*
X71727142Y-64889285D02*
X71798571Y-65032142D01*
X71798571Y-65317857D01*
X71727142Y-65460714D01*
X71584285Y-65532142D01*
X71012857Y-65532142D01*
X70870000Y-65460714D01*
X70798571Y-65317857D01*
X70798571Y-65032142D01*
X70870000Y-64889285D01*
X71012857Y-64817857D01*
X71155714Y-64817857D01*
X71298571Y-65532142D01*
X71798571Y-64175000D02*
X70798571Y-64175000D01*
X71084285Y-64175000D02*
X70941428Y-64103571D01*
X70870000Y-64032142D01*
X70798571Y-63889285D01*
X70798571Y-63746428D01*
X71012857Y-38480714D02*
X71084285Y-38266428D01*
X71155714Y-38195000D01*
X71298571Y-38123571D01*
X71512857Y-38123571D01*
X71655714Y-38195000D01*
X71727142Y-38266428D01*
X71798571Y-38409285D01*
X71798571Y-38980714D01*
X70298571Y-38980714D01*
X70298571Y-38480714D01*
X70370000Y-38337857D01*
X70441428Y-38266428D01*
X70584285Y-38195000D01*
X70727142Y-38195000D01*
X70870000Y-38266428D01*
X70941428Y-38337857D01*
X71012857Y-38480714D01*
X71012857Y-38980714D01*
X71798571Y-37266428D02*
X71727142Y-37409285D01*
X71655714Y-37480714D01*
X71512857Y-37552142D01*
X71084285Y-37552142D01*
X70941428Y-37480714D01*
X70870000Y-37409285D01*
X70798571Y-37266428D01*
X70798571Y-37052142D01*
X70870000Y-36909285D01*
X70941428Y-36837857D01*
X71084285Y-36766428D01*
X71512857Y-36766428D01*
X71655714Y-36837857D01*
X71727142Y-36909285D01*
X71798571Y-37052142D01*
X71798571Y-37266428D01*
X71798571Y-35909285D02*
X71727142Y-36052142D01*
X71655714Y-36123571D01*
X71512857Y-36195000D01*
X71084285Y-36195000D01*
X70941428Y-36123571D01*
X70870000Y-36052142D01*
X70798571Y-35909285D01*
X70798571Y-35695000D01*
X70870000Y-35552142D01*
X70941428Y-35480714D01*
X71084285Y-35409285D01*
X71512857Y-35409285D01*
X71655714Y-35480714D01*
X71727142Y-35552142D01*
X71798571Y-35695000D01*
X71798571Y-35909285D01*
X71727142Y-34837857D02*
X71798571Y-34695000D01*
X71798571Y-34409285D01*
X71727142Y-34266428D01*
X71584285Y-34195000D01*
X71512857Y-34195000D01*
X71370000Y-34266428D01*
X71298571Y-34409285D01*
X71298571Y-34623571D01*
X71227142Y-34766428D01*
X71084285Y-34837857D01*
X71012857Y-34837857D01*
X70870000Y-34766428D01*
X70798571Y-34623571D01*
X70798571Y-34409285D01*
X70870000Y-34266428D01*
X70798571Y-33766428D02*
X70798571Y-33195000D01*
X70298571Y-33552142D02*
X71584285Y-33552142D01*
X71727142Y-33480714D01*
X71798571Y-33337857D01*
X71798571Y-33195000D01*
X71727142Y-30197857D02*
X71798571Y-29983571D01*
X71798571Y-29626428D01*
X71727142Y-29483571D01*
X71655714Y-29412142D01*
X71512857Y-29340714D01*
X71370000Y-29340714D01*
X71227142Y-29412142D01*
X71155714Y-29483571D01*
X71084285Y-29626428D01*
X71012857Y-29912142D01*
X70941428Y-30055000D01*
X70870000Y-30126428D01*
X70727142Y-30197857D01*
X70584285Y-30197857D01*
X70441428Y-30126428D01*
X70370000Y-30055000D01*
X70298571Y-29912142D01*
X70298571Y-29555000D01*
X70370000Y-29340714D01*
X70798571Y-28697857D02*
X72298571Y-28697857D01*
X70870000Y-28697857D02*
X70798571Y-28555000D01*
X70798571Y-28269285D01*
X70870000Y-28126428D01*
X70941428Y-28055000D01*
X71084285Y-27983571D01*
X71512857Y-27983571D01*
X71655714Y-28055000D01*
X71727142Y-28126428D01*
X71798571Y-28269285D01*
X71798571Y-28555000D01*
X71727142Y-28697857D01*
X70298571Y-26412142D02*
X70298571Y-25555000D01*
X71798571Y-25983571D02*
X70298571Y-25983571D01*
X71727142Y-24412142D02*
X71798571Y-24555000D01*
X71798571Y-24840714D01*
X71727142Y-24983571D01*
X71655714Y-25055000D01*
X71512857Y-25126428D01*
X71084285Y-25126428D01*
X70941428Y-25055000D01*
X70870000Y-24983571D01*
X70798571Y-24840714D01*
X70798571Y-24555000D01*
X70870000Y-24412142D01*
X70298571Y-59606428D02*
X70298571Y-59320714D01*
X70370000Y-59177857D01*
X70512857Y-59035000D01*
X70798571Y-58963571D01*
X71298571Y-58963571D01*
X71584285Y-59035000D01*
X71727142Y-59177857D01*
X71798571Y-59320714D01*
X71798571Y-59606428D01*
X71727142Y-59749285D01*
X71584285Y-59892142D01*
X71298571Y-59963571D01*
X70798571Y-59963571D01*
X70512857Y-59892142D01*
X70370000Y-59749285D01*
X70298571Y-59606428D01*
X71798571Y-58320714D02*
X70798571Y-58320714D01*
X70298571Y-58320714D02*
X70370000Y-58392142D01*
X70441428Y-58320714D01*
X70370000Y-58249285D01*
X70298571Y-58320714D01*
X70441428Y-58320714D01*
X71798571Y-57392142D02*
X71727142Y-57535000D01*
X71584285Y-57606428D01*
X70298571Y-57606428D01*
X71655714Y-56820714D02*
X71727142Y-56749285D01*
X71798571Y-56820714D01*
X71727142Y-56892142D01*
X71655714Y-56820714D01*
X71798571Y-56820714D01*
X70298571Y-56320714D02*
X70298571Y-55463571D01*
X71798571Y-55892142D02*
X70298571Y-55892142D01*
X70298571Y-49625000D02*
X70298571Y-49339285D01*
X70370000Y-49196428D01*
X70512857Y-49053571D01*
X70798571Y-48982142D01*
X71298571Y-48982142D01*
X71584285Y-49053571D01*
X71727142Y-49196428D01*
X71798571Y-49339285D01*
X71798571Y-49625000D01*
X71727142Y-49767857D01*
X71584285Y-49910714D01*
X71298571Y-49982142D01*
X70798571Y-49982142D01*
X70512857Y-49910714D01*
X70370000Y-49767857D01*
X70298571Y-49625000D01*
X71798571Y-48339285D02*
X70798571Y-48339285D01*
X70298571Y-48339285D02*
X70370000Y-48410714D01*
X70441428Y-48339285D01*
X70370000Y-48267857D01*
X70298571Y-48339285D01*
X70441428Y-48339285D01*
X71798571Y-47410714D02*
X71727142Y-47553571D01*
X71584285Y-47625000D01*
X70298571Y-47625000D01*
X71655714Y-46839285D02*
X71727142Y-46767857D01*
X71798571Y-46839285D01*
X71727142Y-46910714D01*
X71655714Y-46839285D01*
X71798571Y-46839285D01*
X71798571Y-46125000D02*
X70298571Y-46125000D01*
X70298571Y-45553571D01*
X70370000Y-45410714D01*
X70441428Y-45339285D01*
X70584285Y-45267857D01*
X70798571Y-45267857D01*
X70941428Y-45339285D01*
X71012857Y-45410714D01*
X71084285Y-45553571D01*
X71084285Y-46125000D01*
D10*
%TO.C,A1*%
X49450714Y-21121666D02*
X49926904Y-21121666D01*
X49355476Y-21407380D02*
X49688809Y-20407380D01*
X50022142Y-21407380D01*
X50879285Y-21407380D02*
X50307857Y-21407380D01*
X50593571Y-21407380D02*
X50593571Y-20407380D01*
X50498333Y-20550238D01*
X50403095Y-20645476D01*
X50307857Y-20693095D01*
%TO.C,D1*%
X47227380Y-45823095D02*
X46227380Y-45823095D01*
X46227380Y-45585000D01*
X46275000Y-45442142D01*
X46370238Y-45346904D01*
X46465476Y-45299285D01*
X46655952Y-45251666D01*
X46798809Y-45251666D01*
X46989285Y-45299285D01*
X47084523Y-45346904D01*
X47179761Y-45442142D01*
X47227380Y-45585000D01*
X47227380Y-45823095D01*
X47227380Y-44299285D02*
X47227380Y-44870714D01*
X47227380Y-44585000D02*
X46227380Y-44585000D01*
X46370238Y-44680238D01*
X46465476Y-44775476D01*
X46513095Y-44870714D01*
X47547380Y-49156904D02*
X46547380Y-49156904D01*
X47547380Y-48585476D02*
X46975952Y-49014047D01*
X46547380Y-48585476D02*
X47118809Y-49156904D01*
%TO.C,C2*%
X53173333Y-53352142D02*
X53125714Y-53399761D01*
X52982857Y-53447380D01*
X52887619Y-53447380D01*
X52744761Y-53399761D01*
X52649523Y-53304523D01*
X52601904Y-53209285D01*
X52554285Y-53018809D01*
X52554285Y-52875952D01*
X52601904Y-52685476D01*
X52649523Y-52590238D01*
X52744761Y-52495000D01*
X52887619Y-52447380D01*
X52982857Y-52447380D01*
X53125714Y-52495000D01*
X53173333Y-52542619D01*
X53554285Y-52542619D02*
X53601904Y-52495000D01*
X53697142Y-52447380D01*
X53935238Y-52447380D01*
X54030476Y-52495000D01*
X54078095Y-52542619D01*
X54125714Y-52637857D01*
X54125714Y-52733095D01*
X54078095Y-52875952D01*
X53506666Y-53447380D01*
X54125714Y-53447380D01*
%TO.C,D5*%
X59581904Y-65707380D02*
X59581904Y-64707380D01*
X59820000Y-64707380D01*
X59962857Y-64755000D01*
X60058095Y-64850238D01*
X60105714Y-64945476D01*
X60153333Y-65135952D01*
X60153333Y-65278809D01*
X60105714Y-65469285D01*
X60058095Y-65564523D01*
X59962857Y-65659761D01*
X59820000Y-65707380D01*
X59581904Y-65707380D01*
X61058095Y-64707380D02*
X60581904Y-64707380D01*
X60534285Y-65183571D01*
X60581904Y-65135952D01*
X60677142Y-65088333D01*
X60915238Y-65088333D01*
X61010476Y-65135952D01*
X61058095Y-65183571D01*
X61105714Y-65278809D01*
X61105714Y-65516904D01*
X61058095Y-65612142D01*
X61010476Y-65659761D01*
X60915238Y-65707380D01*
X60677142Y-65707380D01*
X60581904Y-65659761D01*
X60534285Y-65612142D01*
%TO.C,D3*%
X51672380Y-45823095D02*
X50672380Y-45823095D01*
X50672380Y-45585000D01*
X50720000Y-45442142D01*
X50815238Y-45346904D01*
X50910476Y-45299285D01*
X51100952Y-45251666D01*
X51243809Y-45251666D01*
X51434285Y-45299285D01*
X51529523Y-45346904D01*
X51624761Y-45442142D01*
X51672380Y-45585000D01*
X51672380Y-45823095D01*
X50672380Y-44918333D02*
X50672380Y-44299285D01*
X51053333Y-44632619D01*
X51053333Y-44489761D01*
X51100952Y-44394523D01*
X51148571Y-44346904D01*
X51243809Y-44299285D01*
X51481904Y-44299285D01*
X51577142Y-44346904D01*
X51624761Y-44394523D01*
X51672380Y-44489761D01*
X51672380Y-44775476D01*
X51624761Y-44870714D01*
X51577142Y-44918333D01*
X51992380Y-49156904D02*
X50992380Y-49156904D01*
X51992380Y-48585476D02*
X51420952Y-49014047D01*
X50992380Y-48585476D02*
X51563809Y-49156904D01*
%TO.C,J2*%
X70089880Y-61928333D02*
X70804166Y-61928333D01*
X70947023Y-61975952D01*
X71042261Y-62071190D01*
X71089880Y-62214047D01*
X71089880Y-62309285D01*
X70185119Y-61499761D02*
X70137500Y-61452142D01*
X70089880Y-61356904D01*
X70089880Y-61118809D01*
X70137500Y-61023571D01*
X70185119Y-60975952D01*
X70280357Y-60928333D01*
X70375595Y-60928333D01*
X70518452Y-60975952D01*
X71089880Y-61547380D01*
X71089880Y-60928333D01*
%TO.C,C1*%
X46823333Y-53352142D02*
X46775714Y-53399761D01*
X46632857Y-53447380D01*
X46537619Y-53447380D01*
X46394761Y-53399761D01*
X46299523Y-53304523D01*
X46251904Y-53209285D01*
X46204285Y-53018809D01*
X46204285Y-52875952D01*
X46251904Y-52685476D01*
X46299523Y-52590238D01*
X46394761Y-52495000D01*
X46537619Y-52447380D01*
X46632857Y-52447380D01*
X46775714Y-52495000D01*
X46823333Y-52542619D01*
X47775714Y-53447380D02*
X47204285Y-53447380D01*
X47490000Y-53447380D02*
X47490000Y-52447380D01*
X47394761Y-52590238D01*
X47299523Y-52685476D01*
X47204285Y-52733095D01*
%TO.C,R4*%
X49998333Y-26472380D02*
X49665000Y-25996190D01*
X49426904Y-26472380D02*
X49426904Y-25472380D01*
X49807857Y-25472380D01*
X49903095Y-25520000D01*
X49950714Y-25567619D01*
X49998333Y-25662857D01*
X49998333Y-25805714D01*
X49950714Y-25900952D01*
X49903095Y-25948571D01*
X49807857Y-25996190D01*
X49426904Y-25996190D01*
X50855476Y-25805714D02*
X50855476Y-26472380D01*
X50617380Y-25424761D02*
X50379285Y-26139047D01*
X50998333Y-26139047D01*
%TO.C,J5*%
X68667380Y-23828333D02*
X69381666Y-23828333D01*
X69524523Y-23875952D01*
X69619761Y-23971190D01*
X69667380Y-24114047D01*
X69667380Y-24209285D01*
X68667380Y-22875952D02*
X68667380Y-23352142D01*
X69143571Y-23399761D01*
X69095952Y-23352142D01*
X69048333Y-23256904D01*
X69048333Y-23018809D01*
X69095952Y-22923571D01*
X69143571Y-22875952D01*
X69238809Y-22828333D01*
X69476904Y-22828333D01*
X69572142Y-22875952D01*
X69619761Y-22923571D01*
X69667380Y-23018809D01*
X69667380Y-23256904D01*
X69619761Y-23352142D01*
X69572142Y-23399761D01*
%TO.C,J6*%
X39036666Y-22717380D02*
X39036666Y-23431666D01*
X38989047Y-23574523D01*
X38893809Y-23669761D01*
X38750952Y-23717380D01*
X38655714Y-23717380D01*
X39941428Y-22717380D02*
X39750952Y-22717380D01*
X39655714Y-22765000D01*
X39608095Y-22812619D01*
X39512857Y-22955476D01*
X39465238Y-23145952D01*
X39465238Y-23526904D01*
X39512857Y-23622142D01*
X39560476Y-23669761D01*
X39655714Y-23717380D01*
X39846190Y-23717380D01*
X39941428Y-23669761D01*
X39989047Y-23622142D01*
X40036666Y-23526904D01*
X40036666Y-23288809D01*
X39989047Y-23193571D01*
X39941428Y-23145952D01*
X39846190Y-23098333D01*
X39655714Y-23098333D01*
X39560476Y-23145952D01*
X39512857Y-23193571D01*
X39465238Y-23288809D01*
%TO.C,J3*%
X70089880Y-53038333D02*
X70804166Y-53038333D01*
X70947023Y-53085952D01*
X71042261Y-53181190D01*
X71089880Y-53324047D01*
X71089880Y-53419285D01*
X70089880Y-52657380D02*
X70089880Y-52038333D01*
X70470833Y-52371666D01*
X70470833Y-52228809D01*
X70518452Y-52133571D01*
X70566071Y-52085952D01*
X70661309Y-52038333D01*
X70899404Y-52038333D01*
X70994642Y-52085952D01*
X71042261Y-52133571D01*
X71089880Y-52228809D01*
X71089880Y-52514523D01*
X71042261Y-52609761D01*
X70994642Y-52657380D01*
%TO.C,J1*%
X70089880Y-70818333D02*
X70804166Y-70818333D01*
X70947023Y-70865952D01*
X71042261Y-70961190D01*
X71089880Y-71104047D01*
X71089880Y-71199285D01*
X71089880Y-69818333D02*
X71089880Y-70389761D01*
X71089880Y-70104047D02*
X70089880Y-70104047D01*
X70232738Y-70199285D01*
X70327976Y-70294523D01*
X70375595Y-70389761D01*
%TO.C,R5*%
X47948333Y-65547380D02*
X47615000Y-65071190D01*
X47376904Y-65547380D02*
X47376904Y-64547380D01*
X47757857Y-64547380D01*
X47853095Y-64595000D01*
X47900714Y-64642619D01*
X47948333Y-64737857D01*
X47948333Y-64880714D01*
X47900714Y-64975952D01*
X47853095Y-65023571D01*
X47757857Y-65071190D01*
X47376904Y-65071190D01*
X48853095Y-64547380D02*
X48376904Y-64547380D01*
X48329285Y-65023571D01*
X48376904Y-64975952D01*
X48472142Y-64928333D01*
X48710238Y-64928333D01*
X48805476Y-64975952D01*
X48853095Y-65023571D01*
X48900714Y-65118809D01*
X48900714Y-65356904D01*
X48853095Y-65452142D01*
X48805476Y-65499761D01*
X48710238Y-65547380D01*
X48472142Y-65547380D01*
X48376904Y-65499761D01*
X48329285Y-65452142D01*
%TO.C,J4*%
X70069880Y-41608333D02*
X70784166Y-41608333D01*
X70927023Y-41655952D01*
X71022261Y-41751190D01*
X71069880Y-41894047D01*
X71069880Y-41989285D01*
X70403214Y-40703571D02*
X71069880Y-40703571D01*
X70022261Y-40941666D02*
X70736547Y-41179761D01*
X70736547Y-40560714D01*
%TO.C,R2*%
X49998333Y-61427380D02*
X49665000Y-60951190D01*
X49426904Y-61427380D02*
X49426904Y-60427380D01*
X49807857Y-60427380D01*
X49903095Y-60475000D01*
X49950714Y-60522619D01*
X49998333Y-60617857D01*
X49998333Y-60760714D01*
X49950714Y-60855952D01*
X49903095Y-60903571D01*
X49807857Y-60951190D01*
X49426904Y-60951190D01*
X50379285Y-60522619D02*
X50426904Y-60475000D01*
X50522142Y-60427380D01*
X50760238Y-60427380D01*
X50855476Y-60475000D01*
X50903095Y-60522619D01*
X50950714Y-60617857D01*
X50950714Y-60713095D01*
X50903095Y-60855952D01*
X50331666Y-61427380D01*
X50950714Y-61427380D01*
%TO.C,D4*%
X51672380Y-35028095D02*
X50672380Y-35028095D01*
X50672380Y-34790000D01*
X50720000Y-34647142D01*
X50815238Y-34551904D01*
X50910476Y-34504285D01*
X51100952Y-34456666D01*
X51243809Y-34456666D01*
X51434285Y-34504285D01*
X51529523Y-34551904D01*
X51624761Y-34647142D01*
X51672380Y-34790000D01*
X51672380Y-35028095D01*
X51005714Y-33599523D02*
X51672380Y-33599523D01*
X50624761Y-33837619D02*
X51339047Y-34075714D01*
X51339047Y-33456666D01*
X51992380Y-38361904D02*
X50992380Y-38361904D01*
X51992380Y-37790476D02*
X51420952Y-38219047D01*
X50992380Y-37790476D02*
X51563809Y-38361904D01*
%TO.C,R3*%
X49998333Y-23932380D02*
X49665000Y-23456190D01*
X49426904Y-23932380D02*
X49426904Y-22932380D01*
X49807857Y-22932380D01*
X49903095Y-22980000D01*
X49950714Y-23027619D01*
X49998333Y-23122857D01*
X49998333Y-23265714D01*
X49950714Y-23360952D01*
X49903095Y-23408571D01*
X49807857Y-23456190D01*
X49426904Y-23456190D01*
X50331666Y-22932380D02*
X50950714Y-22932380D01*
X50617380Y-23313333D01*
X50760238Y-23313333D01*
X50855476Y-23360952D01*
X50903095Y-23408571D01*
X50950714Y-23503809D01*
X50950714Y-23741904D01*
X50903095Y-23837142D01*
X50855476Y-23884761D01*
X50760238Y-23932380D01*
X50474523Y-23932380D01*
X50379285Y-23884761D01*
X50331666Y-23837142D01*
%TO.C,J7*%
X60601666Y-63817380D02*
X60601666Y-64531666D01*
X60554047Y-64674523D01*
X60458809Y-64769761D01*
X60315952Y-64817380D01*
X60220714Y-64817380D01*
X60982619Y-63817380D02*
X61649285Y-63817380D01*
X61220714Y-64817380D01*
%TO.C,R1*%
X49998333Y-63967380D02*
X49665000Y-63491190D01*
X49426904Y-63967380D02*
X49426904Y-62967380D01*
X49807857Y-62967380D01*
X49903095Y-63015000D01*
X49950714Y-63062619D01*
X49998333Y-63157857D01*
X49998333Y-63300714D01*
X49950714Y-63395952D01*
X49903095Y-63443571D01*
X49807857Y-63491190D01*
X49426904Y-63491190D01*
X50950714Y-63967380D02*
X50379285Y-63967380D01*
X50665000Y-63967380D02*
X50665000Y-62967380D01*
X50569761Y-63110238D01*
X50474523Y-63205476D01*
X50379285Y-63253095D01*
%TO.C,D2*%
X47227380Y-35028095D02*
X46227380Y-35028095D01*
X46227380Y-34790000D01*
X46275000Y-34647142D01*
X46370238Y-34551904D01*
X46465476Y-34504285D01*
X46655952Y-34456666D01*
X46798809Y-34456666D01*
X46989285Y-34504285D01*
X47084523Y-34551904D01*
X47179761Y-34647142D01*
X47227380Y-34790000D01*
X47227380Y-35028095D01*
X46322619Y-34075714D02*
X46275000Y-34028095D01*
X46227380Y-33932857D01*
X46227380Y-33694761D01*
X46275000Y-33599523D01*
X46322619Y-33551904D01*
X46417857Y-33504285D01*
X46513095Y-33504285D01*
X46655952Y-33551904D01*
X47227380Y-34123333D01*
X47227380Y-33504285D01*
X47547380Y-38361904D02*
X46547380Y-38361904D01*
X47547380Y-37790476D02*
X46975952Y-38219047D01*
X46547380Y-37790476D02*
X47118809Y-38361904D01*
D12*
%TO.C,A1*%
X56515000Y-24765000D02*
X56515000Y-62865000D01*
X41145000Y-27305000D02*
X41145000Y-65535000D01*
X41145000Y-22095000D02*
X41145000Y-24765000D01*
X59185000Y-65535000D02*
X59185000Y-22095000D01*
X56515000Y-24765000D02*
X59185000Y-24765000D01*
X43815000Y-27305000D02*
X43815000Y-24765000D01*
X43815000Y-62865000D02*
X41145000Y-62865000D01*
X59185000Y-22095000D02*
X41145000Y-22095000D01*
X41145000Y-65535000D02*
X59185000Y-65535000D01*
X43815000Y-27305000D02*
X43815000Y-62865000D01*
X43815000Y-24765000D02*
X41145000Y-24765000D01*
X43815000Y-27305000D02*
X41145000Y-27305000D01*
X56515000Y-62865000D02*
X59185000Y-62865000D01*
%TO.C,D1*%
X48895000Y-42315000D02*
X48895000Y-42965000D01*
X47775000Y-46365000D02*
X50015000Y-46365000D01*
X47775000Y-46485000D02*
X50015000Y-46485000D01*
X50015000Y-47205000D02*
X50015000Y-42965000D01*
X47775000Y-47205000D02*
X50015000Y-47205000D01*
X48895000Y-47855000D02*
X48895000Y-47205000D01*
X47775000Y-46605000D02*
X50015000Y-46605000D01*
X50015000Y-42965000D02*
X47775000Y-42965000D01*
X47775000Y-42965000D02*
X47775000Y-47205000D01*
%TO.C,C2*%
X50920000Y-54125000D02*
X55760000Y-54125000D01*
X50920000Y-56365000D02*
X55760000Y-56365000D01*
X50920000Y-54125000D02*
X50920000Y-56365000D01*
X55760000Y-54125000D02*
X55760000Y-56365000D01*
%TO.C,D5*%
X57760000Y-67670000D02*
X57760000Y-70760000D01*
X57760000Y-70759830D02*
G75*
G03*
X63310000Y-69214538I2560000J1544830D01*
G01*
X63310000Y-69215462D02*
G75*
G03*
X57760000Y-67670170I-2990000J462D01*
G01*
X62820000Y-69215000D02*
G75*
G03*
X62820000Y-69215000I-2500000J0D01*
G01*
%TO.C,D3*%
X52220000Y-47205000D02*
X54460000Y-47205000D01*
X52220000Y-46485000D02*
X54460000Y-46485000D01*
X53340000Y-42315000D02*
X53340000Y-42965000D01*
X52220000Y-42965000D02*
X52220000Y-47205000D01*
X54460000Y-42965000D02*
X52220000Y-42965000D01*
X53340000Y-47855000D02*
X53340000Y-47205000D01*
X52220000Y-46605000D02*
X54460000Y-46605000D01*
X52220000Y-46365000D02*
X54460000Y-46365000D01*
X54460000Y-47205000D02*
X54460000Y-42965000D01*
%TO.C,J2*%
X64127500Y-53655000D02*
X64127500Y-56065000D01*
X69547500Y-61575000D02*
X69547500Y-53955000D01*
X66537500Y-53655000D02*
X64127500Y-53655000D01*
X65427500Y-61575000D02*
X69547500Y-61575000D01*
X64427500Y-60575000D02*
X65427500Y-61575000D01*
X69547500Y-53955000D02*
X64427500Y-53955000D01*
X64427500Y-53955000D02*
X64427500Y-60575000D01*
%TO.C,C1*%
X44570000Y-54125000D02*
X49410000Y-54125000D01*
X49410000Y-54125000D02*
X49410000Y-56365000D01*
X44570000Y-56365000D02*
X49410000Y-56365000D01*
X44570000Y-54125000D02*
X44570000Y-56365000D01*
%TO.C,R4*%
X48245000Y-28860000D02*
X52085000Y-28860000D01*
X52085000Y-27020000D02*
X48245000Y-27020000D01*
X48245000Y-27020000D02*
X48245000Y-28860000D01*
X52085000Y-28860000D02*
X52085000Y-27020000D01*
X53035000Y-27940000D02*
X52085000Y-27940000D01*
X47295000Y-27940000D02*
X48245000Y-27940000D01*
%TO.C,J5*%
X65195000Y-28325000D02*
X64665000Y-28575000D01*
X69685000Y-24655000D02*
X63665000Y-24655000D01*
X63665000Y-28325000D02*
X64665000Y-28325000D01*
X69685000Y-29955000D02*
X69685000Y-24655000D01*
X63665000Y-26035000D02*
X64665000Y-26035000D01*
X68655000Y-24365000D02*
X64655000Y-24365000D01*
X64665000Y-26035000D02*
X64665000Y-28575000D01*
X69085000Y-26835000D02*
X69685000Y-26835000D01*
X69685000Y-25235000D02*
X69085000Y-25235000D01*
X63665000Y-26285000D02*
X64665000Y-26285000D01*
X64665000Y-26035000D02*
X65195000Y-26285000D01*
X69085000Y-25235000D02*
X69085000Y-26835000D01*
X69085000Y-29375000D02*
X69685000Y-29375000D01*
X69085000Y-27775000D02*
X69085000Y-29375000D01*
X63665000Y-24655000D02*
X63665000Y-29955000D01*
X64665000Y-28575000D02*
X63665000Y-28575000D01*
X69685000Y-27775000D02*
X69085000Y-27775000D01*
X65195000Y-26285000D02*
X65195000Y-28325000D01*
X63665000Y-29955000D02*
X69685000Y-29955000D01*
%TO.C,J6*%
X40700000Y-27305000D02*
X40700000Y-62925000D01*
X39370000Y-24705000D02*
X40700000Y-24705000D01*
X38040000Y-27305000D02*
X40700000Y-27305000D01*
X38040000Y-27305000D02*
X38040000Y-62925000D01*
X38040000Y-62925000D02*
X40700000Y-62925000D01*
X40700000Y-24705000D02*
X40700000Y-26035000D01*
%TO.C,J3*%
X65427500Y-52652500D02*
X69547500Y-52652500D01*
X64127500Y-42232500D02*
X64127500Y-44642500D01*
X64427500Y-42532500D02*
X64427500Y-51652500D01*
X64427500Y-51652500D02*
X65427500Y-52652500D01*
X69547500Y-42532500D02*
X64427500Y-42532500D01*
X69547500Y-52652500D02*
X69547500Y-42532500D01*
X66537500Y-42232500D02*
X64127500Y-42232500D01*
%TO.C,J1*%
X69547500Y-70465000D02*
X69547500Y-62845000D01*
X65427500Y-70465000D02*
X69547500Y-70465000D01*
X66537500Y-62545000D02*
X64127500Y-62545000D01*
X64427500Y-69465000D02*
X65427500Y-70465000D01*
X64427500Y-62845000D02*
X64427500Y-69465000D01*
X69547500Y-62845000D02*
X64427500Y-62845000D01*
X64127500Y-62545000D02*
X64127500Y-64955000D01*
%TO.C,R5*%
X50035000Y-67935000D02*
X50035000Y-66095000D01*
X50985000Y-67015000D02*
X50035000Y-67015000D01*
X46195000Y-66095000D02*
X46195000Y-67935000D01*
X46195000Y-67935000D02*
X50035000Y-67935000D01*
X45245000Y-67015000D02*
X46195000Y-67015000D01*
X50035000Y-66095000D02*
X46195000Y-66095000D01*
%TO.C,J4*%
X66517500Y-30795000D02*
X64107500Y-30795000D01*
X64407500Y-31095000D02*
X64407500Y-40215000D01*
X69527500Y-41215000D02*
X69527500Y-31095000D01*
X65407500Y-41215000D02*
X69527500Y-41215000D01*
X69527500Y-31095000D02*
X64407500Y-31095000D01*
X64107500Y-30795000D02*
X64107500Y-33205000D01*
X64407500Y-40215000D02*
X65407500Y-41215000D01*
%TO.C,R2*%
X47295000Y-59055000D02*
X48245000Y-59055000D01*
X52085000Y-59975000D02*
X52085000Y-58135000D01*
X48245000Y-59975000D02*
X52085000Y-59975000D01*
X52085000Y-58135000D02*
X48245000Y-58135000D01*
X53035000Y-59055000D02*
X52085000Y-59055000D01*
X48245000Y-58135000D02*
X48245000Y-59975000D01*
%TO.C,D4*%
X52220000Y-35690000D02*
X54460000Y-35690000D01*
X52220000Y-35570000D02*
X54460000Y-35570000D01*
X53340000Y-37060000D02*
X53340000Y-36410000D01*
X52220000Y-35810000D02*
X54460000Y-35810000D01*
X52220000Y-32170000D02*
X52220000Y-36410000D01*
X54460000Y-32170000D02*
X52220000Y-32170000D01*
X52220000Y-36410000D02*
X54460000Y-36410000D01*
X54460000Y-36410000D02*
X54460000Y-32170000D01*
X53340000Y-31520000D02*
X53340000Y-32170000D01*
%TO.C,R3*%
X48245000Y-24480000D02*
X48245000Y-26320000D01*
X53035000Y-25400000D02*
X52085000Y-25400000D01*
X52085000Y-24480000D02*
X48245000Y-24480000D01*
X47295000Y-25400000D02*
X48245000Y-25400000D01*
X48245000Y-26320000D02*
X52085000Y-26320000D01*
X52085000Y-26320000D02*
X52085000Y-24480000D01*
%TO.C,J7*%
X60935000Y-62925000D02*
X59605000Y-62925000D01*
X59605000Y-62925000D02*
X59605000Y-61595000D01*
X62265000Y-24705000D02*
X59605000Y-24705000D01*
X62265000Y-60325000D02*
X59605000Y-60325000D01*
X59605000Y-60325000D02*
X59605000Y-24705000D01*
X62265000Y-60325000D02*
X62265000Y-24705000D01*
%TO.C,R1*%
X47295000Y-61595000D02*
X48245000Y-61595000D01*
X52085000Y-62515000D02*
X52085000Y-60675000D01*
X52085000Y-60675000D02*
X48245000Y-60675000D01*
X48245000Y-60675000D02*
X48245000Y-62515000D01*
X53035000Y-61595000D02*
X52085000Y-61595000D01*
X48245000Y-62515000D02*
X52085000Y-62515000D01*
%TO.C,D2*%
X50015000Y-32170000D02*
X47775000Y-32170000D01*
X47775000Y-35810000D02*
X50015000Y-35810000D01*
X47775000Y-32170000D02*
X47775000Y-36410000D01*
X47775000Y-35690000D02*
X50015000Y-35690000D01*
X47775000Y-35570000D02*
X50015000Y-35570000D01*
X50015000Y-36410000D02*
X50015000Y-32170000D01*
X48895000Y-37060000D02*
X48895000Y-36410000D01*
X48895000Y-31520000D02*
X48895000Y-32170000D01*
X47775000Y-36410000D02*
X50015000Y-36410000D01*
%TD*%
M02*
