%TF.GenerationSoftware,KiCad,Pcbnew,(6.0.4)*%
%TF.CreationDate,2023-11-18T09:04:38+09:00*%
%TF.ProjectId,MultiMeter,4d756c74-694d-4657-9465-722e6b696361,rev?*%
%TF.SameCoordinates,Original*%
%TF.FileFunction,Copper,L2,Bot*%
%TF.FilePolarity,Positive*%
%FSLAX46Y46*%
G04 Gerber Fmt 4.6, Leading zero omitted, Abs format (unit mm)*
G04 Created by KiCad (PCBNEW (6.0.4)) date 2023-11-18 09:04:38*
%MOMM*%
%LPD*%
G01*
G04 APERTURE LIST*
G04 Aperture macros list*
%AMRoundRect*
0 Rectangle with rounded corners*
0 $1 Rounding radius*
0 $2 $3 $4 $5 $6 $7 $8 $9 X,Y pos of 4 corners*
0 Add a 4 corners polygon primitive as box body*
4,1,4,$2,$3,$4,$5,$6,$7,$8,$9,$2,$3,0*
0 Add four circle primitives for the rounded corners*
1,1,$1+$1,$2,$3*
1,1,$1+$1,$4,$5*
1,1,$1+$1,$6,$7*
1,1,$1+$1,$8,$9*
0 Add four rect primitives between the rounded corners*
20,1,$1+$1,$2,$3,$4,$5,0*
20,1,$1+$1,$4,$5,$6,$7,0*
20,1,$1+$1,$6,$7,$8,$9,0*
20,1,$1+$1,$8,$9,$2,$3,0*%
G04 Aperture macros list end*
%TA.AperFunction,ComponentPad*%
%ADD10R,1.600000X1.600000*%
%TD*%
%TA.AperFunction,ComponentPad*%
%ADD11O,1.600000X1.600000*%
%TD*%
%TA.AperFunction,ComponentPad*%
%ADD12C,1.400000*%
%TD*%
%TA.AperFunction,ComponentPad*%
%ADD13O,1.400000X1.400000*%
%TD*%
%TA.AperFunction,ComponentPad*%
%ADD14C,1.600000*%
%TD*%
%TA.AperFunction,ComponentPad*%
%ADD15R,1.800000X1.800000*%
%TD*%
%TA.AperFunction,ComponentPad*%
%ADD16C,1.800000*%
%TD*%
%TA.AperFunction,ComponentPad*%
%ADD17RoundRect,0.250000X-0.845000X0.620000X-0.845000X-0.620000X0.845000X-0.620000X0.845000X0.620000X0*%
%TD*%
%TA.AperFunction,ComponentPad*%
%ADD18O,2.190000X1.740000*%
%TD*%
%TA.AperFunction,ComponentPad*%
%ADD19RoundRect,0.250000X0.675000X-0.600000X0.675000X0.600000X-0.675000X0.600000X-0.675000X-0.600000X0*%
%TD*%
%TA.AperFunction,ComponentPad*%
%ADD20O,1.850000X1.700000*%
%TD*%
%TA.AperFunction,ComponentPad*%
%ADD21R,1.700000X1.700000*%
%TD*%
%TA.AperFunction,ComponentPad*%
%ADD22O,1.700000X1.700000*%
%TD*%
%TA.AperFunction,ComponentPad*%
%ADD23RoundRect,0.250000X0.600000X0.725000X-0.600000X0.725000X-0.600000X-0.725000X0.600000X-0.725000X0*%
%TD*%
%TA.AperFunction,ComponentPad*%
%ADD24O,1.700000X1.950000*%
%TD*%
%TA.AperFunction,ComponentPad*%
%ADD25RoundRect,0.250000X-0.600000X-0.675000X0.600000X-0.675000X0.600000X0.675000X-0.600000X0.675000X0*%
%TD*%
%TA.AperFunction,ComponentPad*%
%ADD26O,1.700000X1.850000*%
%TD*%
%TA.AperFunction,ComponentPad*%
%ADD27R,1.050000X1.500000*%
%TD*%
%TA.AperFunction,ComponentPad*%
%ADD28O,1.050000X1.500000*%
%TD*%
%TA.AperFunction,Conductor*%
%ADD29C,0.250000*%
%TD*%
G04 APERTURE END LIST*
D10*
%TO.P,A1,1,D1/TX*%
%TO.N,Net-(A1-Pad1)*%
X42545000Y-26035000D03*
D11*
%TO.P,A1,2,D0/RX*%
%TO.N,Net-(A1-Pad2)*%
X42545000Y-28575000D03*
%TO.P,A1,3,~{RESET}*%
%TO.N,Net-(A1-Pad3)*%
X42545000Y-31115000D03*
%TO.P,A1,4,GND*%
%TO.N,GNDPWR*%
X42545000Y-33655000D03*
%TO.P,A1,5,D2*%
%TO.N,Net-(A1-Pad5)*%
X42545000Y-36195000D03*
%TO.P,A1,6,D3*%
%TO.N,Net-(A1-Pad6)*%
X42545000Y-38735000D03*
%TO.P,A1,7,D4*%
%TO.N,Net-(A1-Pad7)*%
X42545000Y-41275000D03*
%TO.P,A1,8,D5*%
%TO.N,Net-(A1-Pad8)*%
X42545000Y-43815000D03*
%TO.P,A1,9,D6*%
%TO.N,Net-(A1-Pad9)*%
X42545000Y-46355000D03*
%TO.P,A1,10,D7*%
%TO.N,Net-(A1-Pad10)*%
X42545000Y-48895000D03*
%TO.P,A1,11,D8*%
%TO.N,Net-(A1-Pad11)*%
X42545000Y-51435000D03*
%TO.P,A1,12,D9*%
%TO.N,Net-(A1-Pad12)*%
X42545000Y-53975000D03*
%TO.P,A1,13,D10*%
%TO.N,Net-(A1-Pad13)*%
X42545000Y-56515000D03*
%TO.P,A1,14,D11*%
%TO.N,Net-(A1-Pad14)*%
X42545000Y-59055000D03*
%TO.P,A1,15,D12*%
%TO.N,Net-(A1-Pad15)*%
X42545000Y-61595000D03*
%TO.P,A1,16,D13*%
%TO.N,Net-(A1-Pad16)*%
X57785000Y-61595000D03*
%TO.P,A1,17,3V3*%
%TO.N,Net-(A1-Pad17)*%
X57785000Y-59055000D03*
%TO.P,A1,18,AREF*%
%TO.N,Net-(A1-Pad18)*%
X57785000Y-56515000D03*
%TO.P,A1,19,A0*%
%TO.N,Net-(A1-Pad19)*%
X57785000Y-53975000D03*
%TO.P,A1,20,A1*%
%TO.N,Net-(A1-Pad20)*%
X57785000Y-51435000D03*
%TO.P,A1,21,A2*%
%TO.N,Net-(A1-Pad21)*%
X57785000Y-48895000D03*
%TO.P,A1,22,A3*%
%TO.N,Net-(A1-Pad22)*%
X57785000Y-46355000D03*
%TO.P,A1,23,A4*%
%TO.N,Net-(A1-Pad23)*%
X57785000Y-43815000D03*
%TO.P,A1,24,A5*%
%TO.N,Net-(A1-Pad24)*%
X57785000Y-41275000D03*
%TO.P,A1,25,A6*%
%TO.N,Net-(A1-Pad25)*%
X57785000Y-38735000D03*
%TO.P,A1,26,A7*%
%TO.N,Net-(A1-Pad26)*%
X57785000Y-36195000D03*
%TO.P,A1,27,+5V*%
%TO.N,+5V*%
X57785000Y-33655000D03*
%TO.P,A1,28,~{RESET}*%
%TO.N,Net-(A1-Pad28)*%
X57785000Y-31115000D03*
%TO.P,A1,29,GND*%
%TO.N,GNDPWR*%
X57785000Y-28575000D03*
%TO.P,A1,30,VIN*%
%TO.N,+12V*%
X57785000Y-26035000D03*
%TD*%
D12*
%TO.P,R6,1*%
%TO.N,Net-(Q1-Pad2)*%
X51435000Y-39370000D03*
D13*
%TO.P,R6,2*%
%TO.N,Net-(JP1-Pad1)*%
X51435000Y-46990000D03*
%TD*%
D14*
%TO.P,RV1,1*%
%TO.N,+12V*%
X64296000Y-15534000D03*
%TO.P,RV1,2*%
%TO.N,GNDPWR*%
X62196000Y-20534000D03*
%TD*%
D12*
%TO.P,R9,1*%
%TO.N,Net-(A1-Pad6)*%
X48895000Y-46990000D03*
D13*
%TO.P,R9,2*%
%TO.N,GNDPWR*%
X48895000Y-39370000D03*
%TD*%
D15*
%TO.P,D5,1,K*%
%TO.N,GNDPWR*%
X59050000Y-69215000D03*
D16*
%TO.P,D5,2,A*%
%TO.N,Net-(D5-Pad2)*%
X61590000Y-69215000D03*
%TD*%
D17*
%TO.P,J9,1,Pin_1*%
%TO.N,+12V*%
X69088000Y-16764000D03*
D18*
%TO.P,J9,2,Pin_2*%
%TO.N,GNDPWR*%
X69088000Y-19304000D03*
%TD*%
D19*
%TO.P,J2,1,Pin_1*%
%TO.N,+5V*%
X65405000Y-59055000D03*
D20*
%TO.P,J2,2,Pin_2*%
%TO.N,Net-(A1-Pad21)*%
X65405000Y-56555000D03*
%TD*%
D12*
%TO.P,R4,1*%
%TO.N,Net-(Q2-Pad2)*%
X46355000Y-27940000D03*
D13*
%TO.P,R4,2*%
%TO.N,Net-(J5-Pad2)*%
X53975000Y-27940000D03*
%TD*%
D17*
%TO.P,J5,1,Pin_1*%
%TO.N,Net-(J5-Pad1)*%
X66782000Y-23622000D03*
D18*
%TO.P,J5,2,Pin_2*%
%TO.N,Net-(J5-Pad2)*%
X66782000Y-26162000D03*
%TO.P,J5,3,Pin_3*%
%TO.N,Net-(A1-Pad26)*%
X66782000Y-28702000D03*
%TD*%
D21*
%TO.P,J6,1,Pin_1*%
%TO.N,Net-(A1-Pad1)*%
X39370000Y-26035000D03*
D22*
%TO.P,J6,2,Pin_2*%
%TO.N,Net-(A1-Pad2)*%
X39370000Y-28575000D03*
%TO.P,J6,3,Pin_3*%
%TO.N,Net-(A1-Pad3)*%
X39370000Y-31115000D03*
%TO.P,J6,4,Pin_4*%
%TO.N,GNDPWR*%
X39370000Y-33655000D03*
%TO.P,J6,5,Pin_5*%
%TO.N,Net-(A1-Pad5)*%
X39370000Y-36195000D03*
%TO.P,J6,6,Pin_6*%
%TO.N,Net-(A1-Pad6)*%
X39370000Y-38735000D03*
%TO.P,J6,7,Pin_7*%
%TO.N,Net-(A1-Pad7)*%
X39370000Y-41275000D03*
%TO.P,J6,8,Pin_8*%
%TO.N,Net-(A1-Pad8)*%
X39370000Y-43815000D03*
%TO.P,J6,9,Pin_9*%
%TO.N,Net-(A1-Pad9)*%
X39370000Y-46355000D03*
%TO.P,J6,10,Pin_10*%
%TO.N,Net-(A1-Pad10)*%
X39370000Y-48895000D03*
%TO.P,J6,11,Pin_11*%
%TO.N,Net-(A1-Pad11)*%
X39370000Y-51435000D03*
%TO.P,J6,12,Pin_12*%
%TO.N,Net-(A1-Pad12)*%
X39370000Y-53975000D03*
%TO.P,J6,13,Pin_13*%
%TO.N,Net-(A1-Pad13)*%
X39370000Y-56515000D03*
%TO.P,J6,14,Pin_14*%
%TO.N,Net-(A1-Pad14)*%
X39370000Y-59055000D03*
%TO.P,J6,15,Pin_15*%
%TO.N,Net-(A1-Pad15)*%
X39370000Y-61595000D03*
%TD*%
D19*
%TO.P,J3,1,Pin_1*%
%TO.N,+5V*%
X65405000Y-50165000D03*
D20*
%TO.P,J3,2,Pin_2*%
%TO.N,Net-(A1-Pad22)*%
X65405000Y-47665000D03*
%TO.P,J3,3,Pin_3*%
%TO.N,GNDPWR*%
X65405000Y-45165000D03*
%TD*%
D12*
%TO.P,R7,1*%
%TO.N,Net-(Q2-Pad2)*%
X46355000Y-39370000D03*
D13*
%TO.P,R7,2*%
%TO.N,Net-(JP1-Pad1)*%
X46355000Y-46990000D03*
%TD*%
D19*
%TO.P,J1,1,Pin_1*%
%TO.N,+5V*%
X65405000Y-67945000D03*
D20*
%TO.P,J1,2,Pin_2*%
%TO.N,Net-(A1-Pad20)*%
X65405000Y-65445000D03*
%TD*%
D23*
%TO.P,J8,1,Pin_1*%
%TO.N,+5V*%
X57404000Y-17526000D03*
D24*
%TO.P,J8,2,Pin_2*%
%TO.N,GNDPWR*%
X54904000Y-17526000D03*
%TO.P,J8,3,Pin_3*%
%TO.N,Net-(A1-Pad24)*%
X52404000Y-17526000D03*
%TO.P,J8,4,Pin_4*%
%TO.N,Net-(A1-Pad23)*%
X49904000Y-17526000D03*
%TO.P,J8,5,Pin_5*%
%TO.N,unconnected-(J8-Pad5)*%
X47404000Y-17526000D03*
%TO.P,J8,6,Pin_6*%
%TO.N,unconnected-(J8-Pad6)*%
X44904000Y-17526000D03*
%TO.P,J8,7,Pin_7*%
%TO.N,unconnected-(J8-Pad7)*%
X42404000Y-17526000D03*
%TO.P,J8,8,Pin_8*%
%TO.N,unconnected-(J8-Pad8)*%
X39904000Y-17526000D03*
%TD*%
D12*
%TO.P,R5,1*%
%TO.N,Net-(D5-Pad2)*%
X55245000Y-71120000D03*
D13*
%TO.P,R5,2*%
%TO.N,+5V*%
X55245000Y-63500000D03*
%TD*%
D19*
%TO.P,J4,1,Pin_1*%
%TO.N,+5V*%
X65168000Y-38695000D03*
D20*
%TO.P,J4,2,Pin_2*%
%TO.N,Net-(A1-Pad25)*%
X65168000Y-36195000D03*
%TO.P,J4,3,Pin_3*%
%TO.N,GNDPWR*%
X65168000Y-33695000D03*
%TD*%
D12*
%TO.P,R8,1*%
%TO.N,Net-(A1-Pad5)*%
X53975000Y-46990000D03*
D13*
%TO.P,R8,2*%
%TO.N,Net-(Q1-Pad3)*%
X53975000Y-39370000D03*
%TD*%
D12*
%TO.P,R2,1*%
%TO.N,Net-(A1-Pad21)*%
X53975000Y-59055000D03*
D13*
%TO.P,R2,2*%
%TO.N,GNDPWR*%
X46355000Y-59055000D03*
%TD*%
D21*
%TO.P,JP1,1,A*%
%TO.N,Net-(JP1-Pad1)*%
X48768000Y-52324000D03*
D22*
%TO.P,JP1,2,B*%
%TO.N,+5V*%
X48768000Y-54864000D03*
%TD*%
D25*
%TO.P,J10,1,Pin_1*%
%TO.N,+5V*%
X40640000Y-67564000D03*
D26*
%TO.P,J10,2,Pin_2*%
%TO.N,Net-(A1-Pad2)*%
X43140000Y-67564000D03*
%TO.P,J10,3,Pin_3*%
%TO.N,Net-(A1-Pad1)*%
X45640000Y-67564000D03*
%TO.P,J10,4,Pin_4*%
%TO.N,GNDPWR*%
X48140000Y-67564000D03*
%TD*%
D27*
%TO.P,Q2,1,E*%
%TO.N,GNDPWR*%
X46355000Y-34650000D03*
D28*
%TO.P,Q2,2,C*%
%TO.N,Net-(Q2-Pad2)*%
X47625000Y-34650000D03*
%TO.P,Q2,3,B*%
%TO.N,GNDPWR*%
X48895000Y-34650000D03*
%TD*%
D12*
%TO.P,R3,1*%
%TO.N,Net-(Q1-Pad2)*%
X46355000Y-25400000D03*
D13*
%TO.P,R3,2*%
%TO.N,Net-(J5-Pad1)*%
X53975000Y-25400000D03*
%TD*%
D27*
%TO.P,Q1,1,E*%
%TO.N,GNDPWR*%
X52070000Y-34650000D03*
D28*
%TO.P,Q1,2,C*%
%TO.N,Net-(Q1-Pad2)*%
X53340000Y-34650000D03*
%TO.P,Q1,3,B*%
%TO.N,Net-(Q1-Pad3)*%
X54610000Y-34650000D03*
%TD*%
D21*
%TO.P,J7,1,Pin_1*%
%TO.N,Net-(A1-Pad16)*%
X60935000Y-61595000D03*
D22*
%TO.P,J7,2,Pin_2*%
%TO.N,Net-(A1-Pad17)*%
X60935000Y-59055000D03*
%TO.P,J7,3,Pin_3*%
%TO.N,Net-(A1-Pad18)*%
X60935000Y-56515000D03*
%TO.P,J7,4,Pin_4*%
%TO.N,Net-(A1-Pad19)*%
X60935000Y-53975000D03*
%TO.P,J7,5,Pin_5*%
%TO.N,Net-(A1-Pad20)*%
X60935000Y-51435000D03*
%TO.P,J7,6,Pin_6*%
%TO.N,Net-(A1-Pad21)*%
X60935000Y-48895000D03*
%TO.P,J7,7,Pin_7*%
%TO.N,Net-(A1-Pad22)*%
X60935000Y-46355000D03*
%TO.P,J7,8,Pin_8*%
%TO.N,Net-(A1-Pad23)*%
X60935000Y-43815000D03*
%TO.P,J7,9,Pin_9*%
%TO.N,Net-(A1-Pad24)*%
X60935000Y-41275000D03*
%TO.P,J7,10,Pin_10*%
%TO.N,Net-(A1-Pad25)*%
X60935000Y-38735000D03*
%TO.P,J7,11,Pin_11*%
%TO.N,Net-(A1-Pad26)*%
X60935000Y-36195000D03*
%TO.P,J7,12,Pin_12*%
%TO.N,+5V*%
X60935000Y-33655000D03*
%TO.P,J7,13,Pin_13*%
%TO.N,Net-(A1-Pad28)*%
X60935000Y-31115000D03*
%TO.P,J7,14,Pin_14*%
%TO.N,GNDPWR*%
X60935000Y-28575000D03*
%TO.P,J7,15,Pin_15*%
%TO.N,+12V*%
X60935000Y-26035000D03*
%TD*%
D12*
%TO.P,R1,1*%
%TO.N,Net-(A1-Pad20)*%
X53975000Y-61595000D03*
D13*
%TO.P,R1,2*%
%TO.N,GNDPWR*%
X46355000Y-61595000D03*
%TD*%
D29*
%TO.N,Net-(A1-Pad2)*%
X37463020Y-66040000D02*
X42926000Y-66040000D01*
X36955020Y-30989980D02*
X36955020Y-65532000D01*
X39370000Y-28575000D02*
X36955020Y-30989980D01*
X42926000Y-66040000D02*
X43140000Y-66254000D01*
X43140000Y-66254000D02*
X43140000Y-67564000D01*
X36955020Y-65532000D02*
X37463020Y-66040000D01*
%TO.N,Net-(A1-Pad20)*%
X53975000Y-67310000D02*
X53975000Y-61595000D01*
X54610000Y-67945000D02*
X53975000Y-67310000D01*
X54610000Y-67945000D02*
X62905000Y-67945000D01*
X65405000Y-65445000D02*
X62905000Y-67945000D01*
%TO.N,Net-(A1-Pad21)*%
X65405000Y-56555000D02*
X65405000Y-53365000D01*
X65405000Y-53365000D02*
X60935000Y-48895000D01*
%TO.N,Net-(A1-Pad23)*%
X68201520Y-22764027D02*
X68201520Y-32397502D01*
X54805480Y-22427480D02*
X49904000Y-17526000D01*
X65729502Y-34869520D02*
X64757458Y-34869520D01*
X64757458Y-34869520D02*
X62230000Y-37396978D01*
X68201520Y-32397502D02*
X65729502Y-34869520D01*
X62230000Y-42520000D02*
X60935000Y-43815000D01*
X62230000Y-37396978D02*
X62230000Y-42520000D01*
X67864973Y-22427480D02*
X68201520Y-22764027D01*
X67864973Y-22427480D02*
X54805480Y-22427480D01*
%TO.N,Net-(A1-Pad26)*%
X66782000Y-28702000D02*
X66782000Y-29822000D01*
X60935000Y-35669000D02*
X60935000Y-36195000D01*
X66782000Y-29822000D02*
X60935000Y-35669000D01*
%TO.N,Net-(J5-Pad1)*%
X55753000Y-23622000D02*
X66782000Y-23622000D01*
X53975000Y-25400000D02*
X55753000Y-23622000D01*
%TO.N,Net-(J5-Pad2)*%
X54755489Y-27159511D02*
X54805489Y-27209511D01*
X54805489Y-27209511D02*
X65734489Y-27209511D01*
X65734489Y-27209511D02*
X66782000Y-26162000D01*
X53975000Y-27940000D02*
X54755489Y-27159511D01*
%TO.N,Net-(D5-Pad2)*%
X59685000Y-71120000D02*
X61590000Y-69215000D01*
X55245000Y-71120000D02*
X59685000Y-71120000D01*
%TO.N,GNDPWR*%
X56515000Y-29845000D02*
X45085000Y-29845000D01*
X57785000Y-28575000D02*
X56515000Y-29845000D01*
X46355000Y-59055000D02*
X44450000Y-57150000D01*
X44450000Y-30734000D02*
X44450000Y-33655000D01*
X45445000Y-34650000D02*
X46355000Y-34650000D01*
X46355000Y-34650000D02*
X46355000Y-34425000D01*
X53975000Y-69215000D02*
X59050000Y-69215000D01*
X47204520Y-33575480D02*
X50995480Y-33575480D01*
X44450000Y-33655000D02*
X45445000Y-34650000D01*
X49791000Y-69215000D02*
X59050000Y-69215000D01*
X50995480Y-33575480D02*
X52070000Y-34650000D01*
X54904000Y-17526000D02*
X57912000Y-20534000D01*
X42545000Y-33655000D02*
X44450000Y-33655000D01*
X44450000Y-33655000D02*
X44450000Y-57150000D01*
X46355000Y-61595000D02*
X53975000Y-69215000D01*
X57912000Y-20534000D02*
X62196000Y-20534000D01*
X44450000Y-30480000D02*
X44450000Y-30734000D01*
X48140000Y-67564000D02*
X49791000Y-69215000D01*
X46355000Y-34425000D02*
X47204520Y-33575480D01*
X46355000Y-59055000D02*
X46355000Y-61595000D01*
X45085000Y-29845000D02*
X44450000Y-30480000D01*
%TO.N,+5V*%
X65405000Y-59474022D02*
X65405000Y-59055000D01*
X67310000Y-40837000D02*
X67310000Y-50165000D01*
X55245000Y-63500000D02*
X55245000Y-61341000D01*
X67310000Y-59055000D02*
X67310000Y-66675000D01*
X67310000Y-50165000D02*
X67310000Y-59055000D01*
X53475511Y-60079511D02*
X48768000Y-55372000D01*
X55245000Y-63500000D02*
X61379022Y-63500000D01*
X65168000Y-38695000D02*
X67310000Y-40837000D01*
X53983511Y-60079511D02*
X53475511Y-60079511D01*
X48768000Y-55372000D02*
X48768000Y-54864000D01*
X65405000Y-50165000D02*
X67310000Y-50165000D01*
X61379022Y-63500000D02*
X65405000Y-59474022D01*
X55245000Y-61341000D02*
X53983511Y-60079511D01*
X67310000Y-66675000D02*
X66040000Y-67945000D01*
X66040000Y-67945000D02*
X65405000Y-67945000D01*
X65405000Y-59055000D02*
X67310000Y-59055000D01*
%TO.N,Net-(JP1-Pad1)*%
X47379511Y-45965489D02*
X50410489Y-45965489D01*
X46355000Y-46990000D02*
X47379511Y-45965489D01*
X46355000Y-46990000D02*
X46355000Y-49911000D01*
X50410489Y-45965489D02*
X51435000Y-46990000D01*
X46355000Y-49911000D02*
X48768000Y-52324000D01*
%TO.N,Net-(A1-Pad1)*%
X45640000Y-67564000D02*
X43100000Y-65024000D01*
X38883501Y-29749511D02*
X39856499Y-29749511D01*
X39856499Y-29749511D02*
X41420489Y-28185521D01*
X41420489Y-27159511D02*
X42545000Y-26035000D01*
X41420489Y-28185521D02*
X41420489Y-27159511D01*
X40132000Y-65024000D02*
X38100000Y-62992000D01*
X43100000Y-65024000D02*
X40132000Y-65024000D01*
X38100000Y-30533012D02*
X38883501Y-29749511D01*
X38100000Y-62992000D02*
X38100000Y-30533012D01*
%TD*%
M02*
